<?xml version="1.0" encoding="UTF-8" standalone="no"?>
<!-- Created with Inkscape (http://www.inkscape.org/) -->

<svg
   width="76.060188mm"
   height="189.22928mm"
   viewBox="0 0 76.060188 189.22928"
   version="1.1"
   id="svg305"
   inkscape:version="1.2.2 (732a01da63, 2022-12-09)"
   sodipodi:docname="pe_direito.svg"
   xmlns:inkscape="http://www.inkscape.org/namespaces/inkscape"
   xmlns:sodipodi="http://sodipodi.sourceforge.net/DTD/sodipodi-0.dtd"
   xmlns="http://www.w3.org/2000/svg"
   xmlns:svg="http://www.w3.org/2000/svg">
  <sodipodi:namedview
     id="namedview307"
     pagecolor="#505050"
     bordercolor="#eeeeee"
     borderopacity="1"
     inkscape:showpageshadow="0"
     inkscape:pageopacity="0"
     inkscape:pagecheckerboard="0"
     inkscape:deskcolor="#505050"
     inkscape:document-units="mm"
     showgrid="false"
     inkscape:zoom="0.55761989"
     inkscape:cx="-106.70351"
     inkscape:cy="367.63395"
     inkscape:window-width="1366"
     inkscape:window-height="745"
     inkscape:window-x="-8"
     inkscape:window-y="-8"
     inkscape:window-maximized="1"
     inkscape:current-layer="layer1" />
  <defs
     id="defs302" />
  <g
     inkscape:label="pe_direito"
     inkscape:groupmode="layer"
     id="layer1"
     transform="translate(17.894501,-55.143838)">
    <path
       style="display:inline;fill:none;fill-rule:evenodd;stroke:#000000;stroke-width:0.264583;stroke-dasharray:none;paint-order:stroke fill markers;stop-color:#000000"
       d="m -2.4331748,226.24863 c 10.950293,25.66342 42.2120388,23.36061 47.4758288,-3.6305 l -2.60652,-27.64769 c -1.99312,-9.56514 -5.18812,-36.46117 5.11994,-57.06408 4.3096,-6.58479 5.518648,-13.3825 5.213028,-19.54887 -0.0956,-9.1719 -2.632208,-17.7749 -0.465448,-24.668808 5.028498,-7.6967 5.993148,-13.4451 5.678478,-21.78303 -1.98026,-9.49237 -8.069428,-16.57813 -17.593978,-15.08055 -5.24756,0.82536 -7.11996,5.88357 -8.16463,12.88964 -1.74993,6.64041 -1.12518,14.2456 -0.98076,20.62271 -1.14571,1.11072 -1.08181,0.94033 -2.16656,0.10608 -0.14414,-4.03724 0.19077,-8.07447 0.7899,-12.11171 0.50443,-5.00352 4.17325,-14.58103 2.17221,-17.97007 -4.53005,-8.4079 -13.043067,-5.09142 -14.810511,0.59241 -0.404739,4.95434 0.387299,10.29034 1.119398,15.7116 0.522016,3.86559 1.036719,7.14073 0.657864,10.09159 -0.540249,0.40202 -1.152137,0.5533 -2.040559,-0.26329 0.636283,-6.72888 0.776898,-13.10201 -0.526595,-18.69415 -4.531426,-7.44608 -10.0283918,-3.1791 -11.8484038,0.52659 -1.839083,5.35372 1.916174,16.5 3.159575,24.75 -0.557607,1.14066 -1.199914,1.56139 -2.106385,-0.26329 0.79543,-5.2191 -1.179904,-15.22144 -2.36968,-15.79787 -1.601565,-2.62702 -8.470375,-3.94991 -10.00532,2.1722 -0.644451,7.80728 1.527157,13.92493 3.422873,20.20811 0.800839,2.081628 -0.758021,4.315218 -1.843085,1.316488 -0.381975,-5.729608 -1.245988,-13.429898 -3.159574,-14.218078 -3.2896922,-1.37866 -6.0999052,-0.63392 -8.1622352,3.42287 -0.181317,2.75788 -0.560468,5.28495 0.263298,9.21543 0.894246,3.185658 1.45238,6.089818 0.2633,8.952118 -4.49065,13.15334 0.47201,29.90305 2.896274,38.37566 6.3827302,19.83768 7.3306052,40.9779 8.5478262,61.50733 z"
       id="path289"
       inkscape:label="contorno"
       sodipodi:nodetypes="ccccccccccccccsccccccccccccccccc" />
    <path
       id="path311"
       style="fill:#326497;fill-rule:evenodd;stroke:none;stroke-width:0.264583;stroke-dasharray:none;paint-order:stroke fill markers;stop-color:#000000;fill-opacity:1"
       inkscape:label="vertebra_lombar"
       d="m 58.031249,73.99265 -0.51676,-0.13539 c -0.002,0.22773 -0.009,0.45341 -0.0207,0.67696 -0.0117,0.22355 -0.0283,0.44477 -0.0496,0.66456 -0.0213,0.21979 -0.047,0.43776 -0.0775,0.65422 -0.0305,0.21646 -0.066,0.43136 -0.10542,0.64492 -0.0395,0.21356 -0.0832,0.42609 -0.13126,0.63717 -0.048,0.21108 -0.10027,0.4209 -0.15657,0.62994 -0.0563,0.20903 -0.11663,0.41735 -0.18087,0.62477 -0.0642,0.20741 -0.13228,0.41388 -0.20412,0.62011 -0.0719,0.20623 -0.14722,0.41207 -0.22635,0.61754 -0.0791,0.20546 -0.16197,0.41085 -0.24804,0.61598 -0.17216,0.41027 -0.35804,0.81995 -0.55604,1.23145 -0.19801,0.4115 -0.40819,0.82459 -0.62942,1.24075 -0.22123,0.41616 -0.4532,0.83563 -0.69505,1.25987 -0.24184,0.42424 -0.4936,0.85306 -0.75344,1.28881 -0.25984,0.43575 -0.52784,0.87844 -0.80305,1.32912 -0.55044,0.90136 -1.12923,1.83576 -1.72548,2.8174 -0.29812,0.49082 -0.60075,0.99344 -0.9064,1.50947 -0.30565,0.51602 -0.61445,1.04543 -0.92501,1.59008 -0.31056,0.54466 -0.62249,1.10484 -0.93535,1.68155 -0.31285,0.57671 -0.62643,1.17013 -0.93896,1.78232 -0.0257,0.6575 -0.0424,1.31493 -0.0512,1.97146 -0.009,0.65652 -0.009,1.31224 -0.004,1.9668 0.006,0.65457 0.0176,1.30795 0.0351,1.95957 0.0175,0.65163 0.0403,1.30154 0.0672,1.94924 0.0537,1.29539 0.12348,2.58181 0.19895,3.85558 0.0755,1.27377 0.15687,2.53483 0.23358,3.77909 0.0767,1.24426 0.14878,2.47146 0.20619,3.67833 0.0287,0.60344 0.0539,1.20212 0.0739,1.79472 0.02,0.59261 0.0351,1.17931 0.0439,1.7601 0.009,0.5808 0.0112,1.15541 0.006,1.72341 -0.005,0.568 -0.0179,1.12941 -0.0393,1.68362 -0.0214,0.55422 -0.0516,1.10128 -0.092,1.64073 -0.0404,0.53945 -0.0906,1.07156 -0.15244,1.59525 -0.50522,0.96202 -1.01048,1.9239 -1.51206,2.88665 -0.50158,0.96274 -0.99954,1.92598 -1.49086,2.89077 -0.49133,0.9648 -0.97558,1.9314 -1.45004,2.89957 -0.47446,0.96817 -0.93912,1.93806 -1.3901,2.91093 -0.22549,0.48644 -0.44773,0.97356 -0.66611,1.46141 -0.21838,0.48786 -0.43293,0.97662 -0.64337,1.46606 -0.21044,0.48945 -0.41637,0.97952 -0.61805,1.47071 -0.20168,0.4912 -0.39909,0.98329 -0.59118,1.4764 -0.19209,0.49311 -0.37901,0.9874 -0.56069,1.4826 -0.18167,0.49519 -0.35822,0.99135 -0.52865,1.48879 -0.17043,0.49745 -0.33463,0.99618 -0.49299,1.49604 -0.15836,0.49986 -0.31084,1.00083 -0.4563,1.50326 -0.11507,1.08258 -0.22119,2.15324 -0.31885,3.21221 -0.0977,1.05897 -0.18665,2.10638 -0.26716,3.14296 -0.0805,1.03658 -0.15236,2.06245 -0.21601,3.07785 -0.0636,1.0154 -0.11934,2.02039 -0.1664,3.01584 -0.047,0.99544 -0.0855,1.98126 -0.11627,2.95796 -0.0307,0.9767 -0.0535,1.944 -0.0682,2.90318 -0.0147,0.95917 -0.0213,1.91019 -0.0202,2.85305 0.001,0.94287 0.01,1.87775 0.0264,2.80552 0.0166,0.92777 0.041,1.84821 0.0729,2.7621 0.0319,0.91389 0.0715,1.82109 0.11834,2.72232 0.0468,0.90122 0.10076,1.79687 0.16226,2.68665 0.0615,0.88979 0.13026,1.77404 0.20619,2.65359 0.0759,0.87955 0.159,1.75411 0.24908,2.62465 0.0901,0.87053 0.1875,1.7371 0.29146,2.59984 0.10396,0.86274 0.21471,1.72146 0.33228,2.57762 0.11756,0.85615 0.24168,1.70977 0.37259,2.56056 0.12088,0.79538 0.24695,1.58182 0.37672,2.36058 0.12976,0.77877 0.26336,1.54968 0.39946,2.31356 0.27218,1.52776 0.55446,3.02753 0.83664,4.50618 0.28218,1.47865 0.56435,2.93616 0.83612,4.37958 0.13589,0.72171 0.26897,1.43992 0.39843,2.15542 0.12945,0.71551 0.25521,1.42837 0.37568,2.13941 0.12047,0.71104 0.23575,1.42024 0.34469,2.12855 0.10893,0.70831 0.21159,1.41556 0.30644,2.12287 0.0949,0.70731 0.18172,1.41482 0.25993,2.12287 0.0782,0.70805 0.14768,1.41699 0.20671,2.12752 0.059,0.71052 0.10741,1.4226 0.14469,2.13733 0.0373,0.71474 0.0635,1.43216 0.0765,2.15284 0.013,0.72069 0.0128,1.44463 -0.001,2.173 -0.007,0.36418 -0.0174,0.72911 -0.0315,1.09554 -0.0141,0.36643 -0.0316,0.7344 -0.0532,1.10329 l 0.72657,-0.1478 c 0.76251,-1.88936 1.37737,-3.94472 1.81177,-6.17223 l -2.60656,-27.64792 c -1.99311,-9.56513 -5.18846,-36.46133 5.11959,-57.06422 4.30959,-6.58478 5.51874,-13.38231 5.21312,-19.54868 -0.0956,-9.17189 -2.63236,-17.77487 -0.46561,-24.66878 4.59713,-7.03643 5.79403,-12.45049 5.72575,-19.6975 z" />
    <g
       id="g5602"
       style="display:inline"
       transform="translate(-79.139216,-72.010866)"
       inkscape:label="cabeça">
      <path
         id="path960"
         style="font-variation-settings:normal;opacity:1;vector-effect:none;fill:#f8a9c6;fill-opacity:1;fill-rule:evenodd;stroke:#000000;stroke-width:0.264583;stroke-linecap:butt;stroke-linejoin:miter;stroke-miterlimit:4;stroke-dasharray:none;stroke-dashoffset:0;stroke-opacity:1;-inkscape-stroke:none;paint-order:stroke fill markers;stop-color:#000000;stop-opacity:1"
         d="m 73.471484,167.12778 c -0.04877,-0.40561 -0.09305,-0.81717 -0.147794,-1.21336 -0.10291,-0.74479 -0.216883,-1.46791 -0.342615,-2.15284 -0.06287,-0.34246 -0.128416,-0.67533 -0.197404,-0.99632 -0.06899,-0.32099 -0.141138,-0.63034 -0.216524,-0.92553 -0.07539,-0.29518 -0.154099,-0.57625 -0.236161,-0.84129 -0.08206,-0.26504 -0.167301,-0.5141 -0.256316,-0.74466 -0.08902,-0.23055 -0.181774,-0.44284 -0.278019,-0.63458 -0.09624,-0.19174 -0.195971,-0.36302 -0.299723,-0.5116 -0.05188,-0.0743 -0.104842,-0.14298 -0.158647,-0.20567 -0.0538,-0.0627 -0.108562,-0.11895 -0.164331,-0.1695 -0.05577,-0.0505 -0.112765,-0.0949 -0.170532,-0.13281 -0.05777,-0.0379 -0.116417,-0.0694 -0.176217,-0.094 -0.205605,-0.0862 -0.409538,-0.16429 -0.611332,-0.23358 -0.201794,-0.0693 -0.401594,-0.12955 -0.599446,-0.18138 -0.197853,-0.0518 -0.393782,-0.0949 -0.587562,-0.12868 -0.193779,-0.0338 -0.385067,-0.0587 -0.574641,-0.0739 -0.189575,-0.0152 -0.377001,-0.0206 -0.56224,-0.0165 -0.185239,0.004 -0.368548,0.0175 -0.54932,0.0413 -0.180773,0.0238 -0.359193,0.0576 -0.535368,0.1018 -0.176175,0.0442 -0.349969,0.0987 -0.521416,0.16382 -0.171446,0.0651 -0.340359,0.14074 -0.506945,0.22737 -0.166587,0.0866 -0.330882,0.18428 -0.492477,0.29301 -0.161595,0.10873 -0.3205,0.22877 -0.476973,0.36019 -0.156473,0.13141 -0.310768,0.27423 -0.461988,0.42891 -0.151219,0.15468 -0.299615,0.32118 -0.44545,0.49971 -0.145836,0.17853 -0.289112,0.3691 -0.429432,0.57206 -0.140319,0.20295 -0.277704,0.41851 -0.412377,0.64647 -0.134674,0.22796 -0.26643,0.46837 -0.395325,0.72192 -0.04533,0.68947 -0.103216,1.36437 -0.151412,2.05052 -0.0241,0.34308 -0.04541,0.68894 -0.06201,1.04076 -0.0166,0.35183 -0.0284,0.70999 -0.03204,1.07694 -0.0036,0.36696 6.98e-4,0.74273 0.0155,1.1312 0.0027,0.0698 0.01059,0.14595 0.01395,0.21652 1.518793,0.61309 3.179753,0.9524 4.95267,0.9524 2.13657,0 4.187559,-0.44958 6.069913,-1.26866 z"
         inkscape:label="mínimo" />
      <path
         id="path5536"
         style="font-variation-settings:normal;display:inline;opacity:1;vector-effect:none;fill:#f8a9c6;fill-opacity:1;fill-rule:evenodd;stroke:#000000;stroke-width:0.264583;stroke-linecap:butt;stroke-linejoin:miter;stroke-miterlimit:4;stroke-dasharray:none;stroke-dashoffset:0;stroke-opacity:1;-inkscape-stroke:none;paint-order:stroke fill markers;stop-color:#000000;stop-opacity:1"
         inkscape:label="anelar"
         d="m 72.479297,157.58005 c 0.05742,0.0202 0.113189,0.0431 0.171049,0.0625 0.226559,0.0759 0.456239,0.1462 0.689363,0.21033 0.233125,0.0641 0.46947,0.12217 0.709001,0.17415 0.239531,0.052 0.482343,0.098 0.728121,0.13746 0.245778,0.0395 0.494341,0.0726 0.746208,0.0992 0.251866,0.0267 0.507016,0.0464 0.764811,0.0599 0.257795,0.0135 0.518299,0.0207 0.781864,0.0207 0.263566,0 0.526514,-0.006 0.788066,-0.0186 0.261552,-0.0123 0.521652,-0.0305 0.780831,-0.0548 0.259178,-0.0243 0.517151,-0.0548 0.773596,-0.0909 0.256445,-0.0362 0.511459,-0.0783 0.764811,-0.12609 0.253352,-0.0478 0.505094,-0.10151 0.754993,-0.16072 0.249898,-0.0592 0.498055,-0.1239 0.744141,-0.1943 0.246085,-0.0704 0.490343,-0.14601 0.732255,-0.22737 0.241911,-0.0814 0.481441,-0.16833 0.718819,-0.26045 0.237378,-0.0921 0.472382,-0.18983 0.704866,-0.29249 0.232485,-0.10267 0.46265,-0.21051 0.689881,-0.3235 0.01098,-0.005 0.02159,-0.0116 0.03256,-0.0171 -0.529863,-3.82574 -1.46381,-7.22266 -2.142505,-7.55148 -1.601561,-2.627 -8.470133,-3.94961 -10.005074,2.17248 -0.185983,2.25312 -0.136447,4.36475 0.07235,6.38101 z" />
      <path
         id="path5506"
         style="font-variation-settings:normal;display:inline;opacity:1;vector-effect:none;fill:#f8a9c6;fill-opacity:1;fill-rule:evenodd;stroke:#000000;stroke-width:0.264583;stroke-linecap:butt;stroke-linejoin:miter;stroke-miterlimit:4;stroke-dasharray:none;stroke-dashoffset:0;stroke-opacity:1;-inkscape-stroke:none;paint-order:stroke fill markers;stop-color:#000000;stop-opacity:1"
         inkscape:label="médio"
         d="m 83.588696,148.32066 c 0.0037,8e-4 0.0072,0.002 0.01085,0.003 0.239531,0.052 0.481826,0.098 0.727605,0.13746 0.245778,0.0395 0.494858,0.0726 0.746724,0.0992 0.251866,0.0267 0.506499,0.047 0.764294,0.0605 0.257796,0.0135 0.518817,0.0202 0.782382,0.0202 0.263565,0 0.525996,-0.006 0.787548,-0.0186 0.261552,-0.0123 0.522169,-0.0305 0.781348,-0.0548 0.259179,-0.0243 0.517151,-0.0548 0.773596,-0.0909 0.256445,-0.0362 0.51146,-0.0783 0.764811,-0.12609 0.253352,-0.0478 0.505095,-0.10099 0.754993,-0.1602 0.249898,-0.0592 0.498056,-0.12442 0.744141,-0.19482 0.246085,-0.0704 0.489827,-0.14601 0.731738,-0.22738 0.241911,-0.0814 0.481958,-0.16832 0.719336,-0.26044 0.237378,-0.0921 0.472382,-0.18931 0.704867,-0.29198 0.232484,-0.10266 0.462132,-0.2105 0.689363,-0.32349 0.227231,-0.11299 0.451727,-0.2314 0.673344,-0.3545 0.221617,-0.1231 0.440647,-0.25097 0.656291,-0.38396 0.215644,-0.13299 0.42786,-0.27126 0.63717,-0.41393 0.128992,-0.0879 0.254379,-0.1808 0.380855,-0.27233 -0.151565,-1.95728 -0.421342,-3.8477 -0.842842,-5.65599 -4.531418,-7.44606 -10.028363,-3.1791 -11.848373,0.52659 -0.687803,2.00225 -0.593155,4.81483 -0.140043,7.98297 z" />
      <path
         id="path5452"
         style="font-variation-settings:normal;opacity:1;vector-effect:none;fill:#f8a9c6;fill-opacity:1;fill-rule:evenodd;stroke:#000000;stroke-width:0.264583;stroke-linecap:butt;stroke-linejoin:miter;stroke-miterlimit:4;stroke-dasharray:none;stroke-dashoffset:0;stroke-opacity:1;-inkscape-stroke:none;paint-order:stroke fill markers;stop-color:#000000;stop-opacity:1"
         d="m 111.17513,140.03951 c 0.0377,-0.1886 0.0786,-0.3798 0.11368,-0.56637 0.0793,-0.42151 0.15139,-0.83705 0.21446,-1.24437 0.0631,-0.40732 0.11718,-0.80637 0.15968,-1.19424 0.0425,-0.38787 0.0733,-0.76441 0.0909,-1.12758 0.0176,-0.36317 0.0219,-0.71271 0.0103,-1.04593 -0.006,-0.16661 -0.0156,-0.32918 -0.0295,-0.48731 -0.0139,-0.15813 -0.0322,-0.31195 -0.0548,-0.46095 -0.0225,-0.14901 -0.0494,-0.29332 -0.0811,-0.43254 -0.0317,-0.13921 -0.0681,-0.27327 -0.10955,-0.40204 -0.0415,-0.12877 -0.0878,-0.25233 -0.13953,-0.37 -0.0517,-0.11767 -0.10903,-0.22947 -0.17156,-0.33538 -0.12387,-0.2299 -0.25074,-0.45096 -0.38034,-0.66353 -0.12961,-0.21256 -0.26197,-0.41676 -0.39688,-0.61236 -0.1349,-0.19561 -0.27209,-0.3827 -0.41186,-0.56173 -0.13976,-0.17902 -0.28214,-0.34979 -0.42633,-0.51263 -0.14418,-0.16283 -0.29056,-0.31754 -0.43873,-0.46457 -0.14817,-0.14702 -0.29788,-0.28646 -0.44959,-0.41806 -0.15171,-0.13159 -0.3051,-0.25552 -0.45992,-0.37207 -0.15481,-0.11655 -0.31122,-0.22574 -0.4687,-0.32763 -0.15748,-0.10189 -0.31623,-0.19661 -0.47594,-0.28422 -0.15971,-0.0876 -0.32013,-0.16813 -0.48163,-0.24184 -0.16149,-0.0737 -0.32394,-0.14031 -0.48679,-0.20051 -0.16284,-0.0602 -0.32613,-0.11365 -0.48989,-0.16071 -0.16376,-0.0471 -0.32825,-0.0877 -0.49248,-0.12196 -0.16423,-0.0343 -0.32821,-0.0628 -0.49247,-0.0847 -0.16427,-0.0219 -0.32862,-0.0376 -0.49248,-0.0475 -0.16386,-0.01 -0.3274,-0.014 -0.49041,-0.0124 h -5.2e-4 c -0.20958,0.002 -0.41843,0.0135 -0.6258,0.0341 -0.20736,0.0206 -0.41332,0.0502 -0.61753,0.0884 -0.20421,0.0382 -0.40656,0.085 -0.60668,0.14004 -0.20012,0.055 -0.39815,0.1186 -0.59325,0.18966 -0.1951,0.071 -0.38704,0.1499 -0.57619,0.23616 -0.18915,0.0863 -0.37533,0.17995 -0.55759,0.2806 -0.18226,0.10065 -0.360927,0.20823 -0.535367,0.32246 -0.17444,0.11423 -0.34487,0.23474 -0.51056,0.36174 -0.1657,0.12699 -0.32665,0.26051 -0.48266,0.39946 -0.156017,0.13894 -0.306767,0.28348 -0.452167,0.43356 -0.1454,0.15008 -0.28525,0.30572 -0.4191,0.46612 -0.13385,0.16041 -0.26155,0.32566 -0.38292,0.49558 -0.12137,0.16991 -0.236717,0.34435 -0.344687,0.52296 -0.10796,0.17862 -0.20868,0.36128 -0.3023,0.54777 -0.0936,0.1865 -0.18004,0.37695 -0.25839,0.57051 -0.0783,0.19357 -0.1487,0.39033 -0.21084,0.59015 -0.0506,0.61929 -0.0825,1.24469 -0.0982,1.87534 -0.0156,0.63064 -0.0149,1.26654 -5.1e-4,1.90737 0.0144,0.64084 0.0427,1.28645 0.0822,1.93632 0.0206,0.33897 0.0516,0.682 0.078,1.02319 2.052897,1.32143 4.514601,2.08153 7.293081,2.08153 2.63606,0 5.18072,-0.61953 7.4533,-1.74977 z"
         inkscape:label="indicador" />
      <path
         id="path16625"
         style="font-variation-settings:normal;display:inline;vector-effect:none;fill:#f8a9c6;fill-opacity:1;stroke:#000000;stroke-width:0.264583;stroke-linecap:butt;stroke-linejoin:miter;stroke-miterlimit:4;stroke-dasharray:none;stroke-dashoffset:0;stroke-opacity:1;-inkscape-stroke:none;paint-order:stroke fill markers;stop-color:#000000"
         d="m 110.51057,146.36535 c -0.0191,0.16265 -0.0421,0.32418 -0.0594,0.48731 -0.0463,0.43661 -0.0864,0.87481 -0.12041,1.31413 -0.034,0.43933 -0.0621,0.87988 -0.0853,1.32085 -0.0454,0.86492 -0.0707,1.73159 -0.0822,2.59674 2.45056,0.17837 5.07929,3.42729 5.07928,6.50607 0,1.47874 -0.21396,2.6671 -0.71779,3.5295 l 6.31693,1.97197 c -0.003,-2.23691 -0.34861,-4.69314 -0.89555,-7.3365 l 3.40289,-0.71624 c 9.8e-4,0.007 0.003,0.0131 0.004,0.0196 -0.0806,-0.50406 0.0514,-1.02217 0.59893,-1.51102 a 15.139627,12.96742 0 0 1 -13.44983,-8.10752 c 0.003,-0.025 0.006,-0.0499 0.009,-0.0749 z m 14.78307,8.1778 a 15.139627,12.96742 0 0 1 -0.75757,0.0207 15.139627,12.96742 0 0 0 0.75654,-0.0176 z m -1.92856,1.5844 c 0.002,0.0107 0.004,0.0214 0.006,0.032 -0.002,-0.0107 -0.004,-0.0213 -0.006,-0.032 z m 0.0248,0.10955 c 0.003,0.011 0.005,0.0221 0.008,0.0331 -0.003,-0.011 -0.005,-0.022 -0.008,-0.0331 z m 0.0279,0.0992 c 0.004,0.0142 0.009,0.0282 0.0134,0.0424 -0.005,-0.0142 -0.009,-0.0282 -0.0134,-0.0424 z m 0.45372,0.91209 c 0.0187,0.0287 0.0373,0.0575 0.0563,0.0858 -0.019,-0.0282 -0.0377,-0.0572 -0.0563,-0.0858 z m -12.63178,-15.00578 c 0.0233,0.056 0.0459,0.11233 0.0698,0.16795 0.0476,0.11108 0.0963,0.2217 0.14625,0.33124 0.0499,0.10954 0.10074,0.21812 0.15296,0.32608 0.0522,0.10796 0.10571,0.21509 0.1602,0.32143 0.0545,0.10633 0.11017,0.21211 0.16691,0.31677 0.0567,0.10467 0.11467,0.20814 0.17364,0.3111 0.059,0.10295 0.11917,0.20523 0.18035,0.30644 0.0612,0.1012 0.12319,0.20134 0.18655,0.30075 0.0634,0.0994 0.12774,0.19802 0.19327,0.29559 0.0655,0.0976 0.13231,0.19421 0.19999,0.28991 0.0677,0.0957 0.13638,0.19044 0.20619,0.28422 0.0698,0.0938 0.14098,0.18672 0.2129,0.27853 0.0719,0.0918 0.14459,0.18253 0.21859,0.27234 0.074,0.0898 0.14924,0.17837 0.22531,0.26613 0.0761,0.0878 0.15287,0.17478 0.231,0.26045 0.0781,0.0857 0.15755,0.17019 0.23771,0.25373 0.0802,0.0835 0.16123,0.16617 0.24339,0.24753 0.0822,0.0814 0.16545,0.16166 0.2496,0.24082 0.0841,0.0791 0.16916,0.15719 0.25528,0.23409 0.0861,0.0769 0.17341,0.15226 0.26149,0.22686 0.0881,0.0746 0.17716,0.1484 0.26716,0.22066 0.09,0.0722 0.18094,0.14304 0.27285,0.2129 0.0919,0.0699 0.18474,0.13875 0.27854,0.20619 0.0938,0.0674 0.18855,0.13347 0.28422,0.19844 0.0957,0.065 0.19187,0.12874 0.28939,0.1912 0.0975,0.0625 0.19623,0.12354 0.29559,0.18346 0.0994,0.0599 0.19959,0.1189 0.30075,0.17621 0.10117,0.0573 0.20298,0.11327 0.30593,0.16795 0.10295,0.0547 0.20688,0.1082 0.31161,0.1602 0.10472,0.052 0.2103,0.10265 0.31677,0.15193 0.10648,0.0493 0.21426,0.0971 0.32247,0.14366 0.1082,0.0465 0.21719,0.0912 0.32711,0.13487 0.10991,0.0437 0.22067,0.0863 0.33228,0.12713 0.11161,0.0409 0.22416,0.0804 0.33744,0.11833 0.11328,0.038 0.22717,0.0745 0.3421,0.10956 0.11493,0.035 0.23071,0.0687 0.34727,0.10077 0.11656,0.0321 0.23374,0.0624 0.35191,0.0915 0.11818,0.029 0.23732,0.0567 0.35709,0.0827 0.11976,0.026 0.2404,0.0505 0.36173,0.0734 0.12134,0.0229 0.2435,0.0438 0.36639,0.0636 0.12289,0.0197 0.24661,0.0382 0.37104,0.0548 0.12442,0.0166 0.24923,0.0316 0.37517,0.045 0.12593,0.0133 0.25291,0.0246 0.38034,0.0346 0.12742,0.0101 0.25557,0.0186 0.38447,0.0253 0.1289,0.007 0.25825,0.0121 0.3886,0.0155 0.13035,0.003 0.26148,0.005 0.39326,0.005 0.13178,0 0.26351,-0.002 0.39481,-0.005 0.1313,-0.003 0.26248,-0.008 0.39326,-0.0139 0.13077,-0.006 0.26098,-0.0141 0.39119,-0.0233 0.1302,-0.009 0.26005,-0.0194 0.38964,-0.0315 0.12959,-0.0122 0.25916,-0.0262 0.38809,-0.0413 0.12893,-0.0151 0.25728,-0.0315 0.3855,-0.0496 0.12823,-0.0181 0.25597,-0.0379 0.38344,-0.0589 0.12748,-0.021 0.2547,-0.0433 0.38138,-0.0672 0.12667,-0.0239 0.25295,-0.0492 0.37878,-0.076 0.12584,-0.0268 0.25126,-0.0551 0.37621,-0.0847 0.12495,-0.0296 0.2496,-0.0606 0.37362,-0.093 0.12402,-0.0324 0.24748,-0.0661 0.37052,-0.10129 0.12304,-0.0352 0.2454,-0.0716 0.36742,-0.10955 0.12202,-0.038 0.24388,-0.0777 0.36483,-0.11834 0.12096,-0.0407 0.24138,-0.0827 0.36122,-0.12609 0.11985,-0.0434 0.23891,-0.0878 0.3576,-0.13384 0.11869,-0.0461 0.23702,-0.0934 0.3545,-0.14211 0.11749,-0.0487 0.23413,-0.0991 0.35037,-0.15038 0.11624,-0.0513 0.2318,-0.10369 0.34675,-0.15762 0.11495,-0.0539 0.22952,-0.10938 0.34313,-0.16588 0.11362,-0.0565 0.22625,-0.11408 0.33848,-0.17311 0.11224,-0.059 0.22406,-0.11932 0.33486,-0.18087 0.11081,-0.0615 0.22088,-0.12458 0.33022,-0.18862 0.10933,-0.064 0.21774,-0.12936 0.32556,-0.19585 0.10782,-0.0665 0.21465,-0.13416 0.32091,-0.20309 0.10626,-0.0689 0.21212,-0.13899 0.31678,-0.21032 0.10465,-0.0713 0.2086,-0.14385 0.3116,-0.21756 0.10301,-0.0737 0.20514,-0.14874 0.30645,-0.22479 0.1013,-0.0761 0.2017,-0.15313 0.30127,-0.23151 0.0996,-0.0784 0.19832,-0.15807 0.29611,-0.23875 0.0978,-0.0807 0.19447,-0.16251 0.29042,-0.24546 0.0959,-0.0829 0.19118,-0.16699 0.28525,-0.25218 0.0941,-0.0852 0.1869,-0.1715 0.27905,-0.2589 0.0922,-0.0874 0.18318,-0.17603 0.27337,-0.26562 0.0902,-0.0896 0.17951,-0.18006 0.26769,-0.27182 0.0882,-0.0917 0.17536,-0.18465 0.26148,-0.27853 0.0861,-0.0939 0.17126,-0.18875 0.25528,-0.28474 0.084,-0.096 0.16721,-0.19286 0.24908,-0.29094 0.0819,-0.0981 0.16268,-0.19753 0.24236,-0.29766 0.0744,-0.0935 0.14768,-0.18792 0.22014,-0.28318 -0.004,-0.1389 -0.004,-0.2696 -0.009,-0.41031 -1.98026,-9.49235 -8.06922,-16.5778 -17.59376,-15.08022 -5.24755,0.82536 -7.1202,5.8836 -8.16487,12.88965 -0.045,0.17078 -0.0816,0.34476 -0.12351,0.51677 z"
         inkscape:label="polegar" />
    </g>
    <ellipse
       style="display:inline;fill:#eec6c6;fill-opacity:1;fill-rule:evenodd;stroke-width:0.264583"
       id="path352"
       cx="87.112907"
       cy="119.71992"
       rx="3.8688481"
       ry="3.6232071"
       inkscape:label="glândula pituitária"
       transform="translate(-40.459446,-50.272959)" />
    <g
       id="g5811"
       inkscape:label="dentes"
       style="display:inline"
       transform="translate(-79.139216,-72.01126)">
      <path
         id="path1301"
         style="font-variation-settings:normal;display:inline;opacity:1;vector-effect:none;fill:#e77dae;fill-opacity:1;fill-rule:evenodd;stroke-width:0.264583;stroke-linecap:butt;stroke-linejoin:miter;stroke-miterlimit:4;stroke-dasharray:none;stroke-dashoffset:0;stroke-opacity:1;-inkscape-stroke:none;stop-color:#000000;stop-opacity:1"
         d="m 84.769467,159.16001 c -0.06655,-0.76961 -0.107986,-1.81656 -0.215972,-2.58145 -3.18833,1.58904 -6.910574,2.17857 -10.414806,1.46766 -0.560467,-0.11972 -1.116424,-0.26703 -1.654739,-0.46468 0.128367,1.35018 0.350517,2.22499 0.626836,3.55239 5.074586,1.16258 7.903515,0.96639 11.658681,-1.97392 z"
         sodipodi:nodetypes="cscccc"
         inkscape:label="anelar2" />
      <path
         id="path1174"
         style="font-variation-settings:normal;vector-effect:none;fill:#e77dae;fill-opacity:1;fill-rule:evenodd;stroke-width:0.264583;stroke-linecap:butt;stroke-linejoin:miter;stroke-miterlimit:4;stroke-dasharray:none;stroke-dashoffset:0;stroke-opacity:1;-inkscape-stroke:none;stop-color:#000000"
         d="m 96.571883,150.32829 c 0.0013,-0.13841 0.0026,-0.27706 0.0031,-0.41496 6.57e-4,-0.19801 1.16e-4,-0.39528 -0.001,-0.59221 -0.0011,-0.19694 -0.0032,-0.39328 -0.0062,-0.58911 -0.003,-0.19584 -0.0069,-0.3913 -0.01189,-0.58601 -0.0049,-0.19472 -0.01065,-0.38883 -0.01757,-0.5824 -0.0069,-0.19356 -0.01481,-0.38638 -0.02377,-0.57877 -0.009,-0.19239 -0.01892,-0.38449 -0.02997,-0.57568 -0.01106,-0.19119 -0.02348,-0.38158 -0.03669,-0.57154 -0.0086,-0.12376 -0.01836,-0.24677 -0.02791,-0.37 -0.126474,0.0915 -0.251863,0.18443 -0.380855,0.27233 -0.20931,0.14267 -0.421528,0.28094 -0.63717,0.41393 -0.215644,0.13299 -0.434674,0.26086 -0.656291,0.38396 -0.221617,0.1231 -0.446113,0.24151 -0.673344,0.3545 -0.227231,0.11299 -0.456881,0.22083 -0.689363,0.32349 -0.232485,0.10267 -0.467489,0.19987 -0.704867,0.29197 -0.237378,0.0921 -0.477425,0.17905 -0.719336,0.26045 -0.241911,0.0814 -0.485653,0.15698 -0.731738,0.22738 -0.246085,0.0704 -0.494243,0.13562 -0.744141,0.19482 -0.249898,0.0592 -0.501641,0.11239 -0.754993,0.16019 -0.253349,0.0478 -0.508366,0.0899 -0.764811,0.1261 -0.256443,0.0361 -0.514417,0.0667 -0.773596,0.0909 -0.259179,0.0243 -0.519796,0.0425 -0.781348,0.0548 -0.26155,0.0126 -0.523985,0.0186 -0.787548,0.0186 -0.263565,0 -0.524586,-0.007 -0.782382,-0.0202 -0.257793,-0.0135 -0.512428,-0.0338 -0.764294,-0.0605 -0.251866,-0.0266 -0.500948,-0.0597 -0.746724,-0.0992 -0.245779,-0.0395 -0.488074,-0.0855 -0.727605,-0.13746 -0.0036,-0.001 -0.0072,-0.002 -0.01085,-0.003 0.0012,0.009 0.0024,0.0168 0.0036,0.0253 0.03802,0.26489 0.07867,0.53245 0.121439,0.80202 0.04277,0.26957 0.08786,0.54122 0.134876,0.81494 0.04701,0.27372 0.096,0.54948 0.146761,0.82682 0.05076,0.27735 0.103074,0.5562 0.157096,0.83664 0.04306,0.22354 0.08796,0.44866 0.132809,0.67386 a 13.033244,9.412899 0 0 0 3.656107,0.41238 13.033244,9.412899 0 0 0 8.630481,-2.38435 z"
         inkscape:label="médio2" />
      <path
         id="path1112"
         style="font-variation-settings:normal;vector-effect:none;fill:#e77dae;fill-opacity:1;fill-rule:evenodd;stroke-width:0.264583;stroke-linecap:butt;stroke-linejoin:miter;stroke-miterlimit:4;stroke-dasharray:none;stroke-dashoffset:0;stroke-opacity:1;-inkscape-stroke:none;stop-color:#000000"
         d="m 110.02171,145.12809 c 0.13884,-0.58745 0.2777,-1.1734 0.42013,-1.77612 0.20442,-0.86506 0.40658,-1.73846 0.58911,-2.59932 0.0508,-0.23983 0.0957,-0.4752 0.14314,-0.71262 -2.27231,1.12991 -4.8166,1.74925 -7.45226,1.74925 -2.77846,0 -5.240198,-0.7601 -7.293091,-2.08153 0.02424,0.31293 0.04326,0.62379 0.07183,0.93845 0.05973,0.65773 0.128047,1.31888 0.203088,1.98334 0.07504,0.66445 0.156405,1.33193 0.241846,2.00194 0.01373,0.10766 0.02948,0.21726 0.04341,0.32505 a 13.230718,11.387632 0 0 0 6.684867,1.56889 13.230718,11.387632 0 0 0 6.34793,-1.39733 z"
         inkscape:label="indicador2" />
      <path
         id="path1003"
         style="font-variation-settings:normal;vector-effect:none;fill:#e77dae;fill-opacity:1;fill-rule:evenodd;stroke-width:0.264583;stroke-linecap:butt;stroke-linejoin:miter;stroke-miterlimit:4;stroke-dasharray:none;stroke-dashoffset:0;stroke-opacity:1;-inkscape-stroke:none;stop-color:#000000"
         d="m 137.12341,148.79092 c 0.006,-0.14315 0.0167,-0.28297 0.0217,-0.42737 0.0164,-0.47039 0.0259,-0.94738 0.0289,-1.43247 0.003,-0.48509 -3.1e-4,-0.97801 -0.009,-1.48001 -0.008,-0.45229 -0.0224,-0.91462 -0.0393,-1.38234 0.002,0.0853 0.003,0.17057 0.006,0.25786 -0.0725,0.0953 -0.14574,0.18969 -0.22014,0.28319 -0.0797,0.10013 -0.16046,0.19955 -0.24236,0.29765 -0.0819,0.0981 -0.16508,0.19494 -0.24908,0.29094 -0.084,0.096 -0.16918,0.19084 -0.25528,0.28474 -0.0861,0.0939 -0.17328,0.18684 -0.26148,0.27854 -0.0882,0.0918 -0.17749,0.18221 -0.26769,0.27181 -0.0902,0.0896 -0.18117,0.17822 -0.27337,0.26562 -0.0922,0.0874 -0.18495,0.1737 -0.27905,0.2589 -0.0941,0.0852 -0.18935,0.16928 -0.28525,0.25218 -0.0959,0.083 -0.19262,0.16476 -0.29042,0.24546 -0.0978,0.0807 -0.19651,0.16035 -0.29611,0.23875 -0.0996,0.0784 -0.19997,0.15541 -0.30127,0.23151 -0.10131,0.0761 -0.20344,0.15109 -0.30645,0.22479 -0.103,0.0737 -0.20695,0.14626 -0.3116,0.21756 -0.10466,0.0713 -0.21052,0.14142 -0.31678,0.21032 -0.10626,0.0689 -0.21309,0.13659 -0.32091,0.20309 -0.10782,0.0665 -0.21623,0.13185 -0.32556,0.19585 -0.10934,0.064 -0.21941,0.12712 -0.33022,0.18862 -0.1108,0.0616 -0.22262,0.12187 -0.33486,0.18087 -0.11223,0.059 -0.22486,0.11662 -0.33848,0.17312 -0.11361,0.0565 -0.22818,0.11198 -0.34313,0.16588 -0.11495,0.0539 -0.23051,0.10631 -0.34675,0.15761 -0.11624,0.0513 -0.23288,0.10168 -0.35037,0.15038 -0.11748,0.0487 -0.23581,0.096 -0.3545,0.14211 -0.11869,0.046 -0.23775,0.0904 -0.3576,0.13384 -0.11984,0.0434 -0.24026,0.0854 -0.36122,0.12609 -0.12095,0.0406 -0.24281,0.0803 -0.36483,0.11834 -0.12202,0.0379 -0.24438,0.0744 -0.36742,0.10956 -0.12304,0.0352 -0.2465,0.0689 -0.37052,0.10128 -0.12402,0.0324 -0.24867,0.0634 -0.37362,0.093 -0.12495,0.0296 -0.25037,0.058 -0.37621,0.0848 -0.12583,0.0268 -0.25211,0.0521 -0.37878,0.076 -0.12668,0.0239 -0.2539,0.0462 -0.38138,0.0672 -0.12747,0.021 -0.25521,0.0408 -0.38344,0.0589 -0.1282,0.0181 -0.25657,0.0345 -0.3855,0.0496 -0.12893,0.0151 -0.2585,0.0291 -0.38809,0.0413 -0.12959,0.0121 -0.25944,0.0225 -0.38964,0.0315 -0.13021,0.009 -0.26042,0.0172 -0.39119,0.0232 -0.13078,0.006 -0.26196,0.011 -0.39326,0.0139 -0.1313,0.003 -0.26303,0.005 -0.39481,0.005 -0.13178,0 -0.26291,-0.002 -0.39326,-0.005 -0.13035,-0.003 -0.2597,-0.008 -0.3886,-0.0155 -0.1289,-0.007 -0.25705,-0.0152 -0.38447,-0.0253 -0.12743,-0.01 -0.25441,-0.0213 -0.38034,-0.0346 -0.12594,-0.0134 -0.25075,-0.0284 -0.37517,-0.045 -0.12443,-0.0166 -0.24815,-0.0351 -0.37104,-0.0548 -0.12289,-0.0198 -0.24505,-0.0407 -0.36639,-0.0636 -0.12133,-0.0229 -0.24197,-0.0474 -0.36173,-0.0734 -0.11977,-0.026 -0.23891,-0.0537 -0.35709,-0.0827 -0.11817,-0.0291 -0.23535,-0.0594 -0.35191,-0.0915 -0.11656,-0.0321 -0.23234,-0.0658 -0.34727,-0.10077 -0.11493,-0.0351 -0.22882,-0.0716 -0.3421,-0.10956 -0.11328,-0.0379 -0.22583,-0.0774 -0.33744,-0.11833 -0.11161,-0.0408 -0.22237,-0.0834 -0.33228,-0.12713 -0.10992,-0.0437 -0.21891,-0.0884 -0.32711,-0.13487 -0.10821,-0.0466 -0.21599,-0.0944 -0.32247,-0.14366 -0.10647,-0.0493 -0.21205,-0.0999 -0.31677,-0.15193 -0.10473,-0.052 -0.20866,-0.1055 -0.31161,-0.1602 -0.10295,-0.0547 -0.20476,-0.11065 -0.30593,-0.16795 -0.10116,-0.0573 -0.20135,-0.11631 -0.30075,-0.17621 -0.0994,-0.0599 -0.19809,-0.12096 -0.29559,-0.18346 -0.0975,-0.0625 -0.19369,-0.1262 -0.28939,-0.1912 -0.0957,-0.065 -0.19042,-0.13104 -0.28422,-0.19844 -0.0938,-0.0674 -0.18664,-0.13629 -0.27854,-0.20619 -0.0919,-0.0699 -0.18285,-0.1407 -0.27285,-0.2129 -0.09,-0.0723 -0.17906,-0.14606 -0.26716,-0.22066 -0.0881,-0.0746 -0.17539,-0.14996 -0.26149,-0.22686 -0.0861,-0.0769 -0.17118,-0.15499 -0.25528,-0.23409 -0.0841,-0.0792 -0.1674,-0.15942 -0.2496,-0.24082 -0.0822,-0.0814 -0.16319,-0.16403 -0.24339,-0.24753 -0.0802,-0.0835 -0.15961,-0.16803 -0.23771,-0.25373 -0.0781,-0.0857 -0.1549,-0.17265 -0.231,-0.26045 -0.0761,-0.0878 -0.15131,-0.17633 -0.22531,-0.26613 -0.074,-0.0898 -0.14669,-0.18054 -0.21859,-0.27234 -0.0719,-0.0918 -0.1431,-0.18473 -0.2129,-0.27853 -0.0698,-0.0938 -0.13849,-0.18852 -0.20619,-0.28422 -0.0677,-0.0957 -0.13449,-0.19231 -0.19999,-0.28991 -0.0655,-0.0976 -0.12987,-0.19619 -0.19327,-0.29559 -0.0634,-0.0994 -0.12535,-0.19955 -0.18655,-0.30075 -0.0612,-0.10121 -0.12135,-0.20349 -0.18035,-0.30644 -0.059,-0.10296 -0.11694,-0.20643 -0.17364,-0.3111 -0.0567,-0.10466 -0.11241,-0.21044 -0.16691,-0.31677 -0.0545,-0.10634 -0.108,-0.21347 -0.1602,-0.32143 -0.0522,-0.10796 -0.10306,-0.21654 -0.15296,-0.32608 -0.05,-0.10954 -0.0987,-0.22016 -0.14625,-0.33124 -0.0239,-0.0556 -0.0465,-0.11195 -0.0698,-0.16795 l 5.2e-4,-5.2e-4 c 0.0173,-0.0709 0.0332,-0.14186 0.0496,-0.21291 -0.0796,0.31612 -0.15849,0.63234 -0.2279,0.9524 -0.0915,0.42203 -0.17454,0.84742 -0.24959,1.27537 -0.0751,0.42796 -0.14259,0.85858 -0.20257,1.2914 -0.041,0.29598 -0.074,0.5941 -0.10852,0.89193 a 15.139627,12.96742 0 0 0 14.03428,8.12354 15.139627,12.96742 0 0 0 12.58786,-5.77329 z"
         inkscape:label="polegar2" />
      <path
         id="path1431"
         style="font-variation-settings:normal;display:inline;vector-effect:none;fill:#e77dae;fill-opacity:1;fill-rule:evenodd;stroke-width:0.264583;stroke-linecap:butt;stroke-linejoin:miter;stroke-miterlimit:4;stroke-dasharray:none;stroke-dashoffset:0;stroke-opacity:1;-inkscape-stroke:none;stop-color:#000000"
         d="m 73.774308,170.02166 c -0.05354,-0.60651 -0.107883,-1.216 -0.173116,-1.82624 -0.03852,-0.36038 -0.0868,-0.71074 -0.129708,-1.06764 -1.88235,0.81908 -3.933347,1.26866 -6.069913,1.26866 -1.772915,0 -3.433879,-0.33931 -4.95267,-0.9524 0.01535,0.32243 0.03334,0.6475 0.06511,0.98909 0.03873,0.41636 0.09105,0.8485 0.159163,1.29915 0.02644,0.1749 0.06727,0.36703 0.0987,0.54777 a 8.3926191,6.9773932 0 0 0 5.322673,1.58801 8.3926191,6.9773932 0 0 0 5.679756,-1.8464 z"
         inkscape:label="mínimo2" />
    </g>
    <path
       id="path496-5"
       style="display:inline;fill:#6f75b6;fill-opacity:1;fill-rule:evenodd;stroke:none;stroke-width:0.264583;stroke-dasharray:none;paint-order:stroke fill markers;stop-color:#000000"
       inkscape:label="ouvido"
       d="m 5.628734,86.39354 c -0.01759,0.006 -0.03512,0.0133 -0.05271,0.0196 0.01748,0.2589 0.03477,0.50998 0.05426,0.73535 -0.117349,0.0919 -0.233696,0.18112 -0.349333,0.26769 -0.115636,0.0866 -0.230564,0.17033 -0.344682,0.25166 -0.114118,0.0813 -0.227755,0.15998 -0.340547,0.23616 -0.112793,0.0762 -0.224752,0.15006 -0.336414,0.22118 -0.111662,0.0711 -0.222589,0.13953 -0.333313,0.20567 -0.110724,0.0661 -0.221266,0.12995 -0.331246,0.1912 -0.10998,0.0613 -0.21975,0.1203 -0.329179,0.17674 -0.109429,0.0564 -0.218556,0.11055 -0.327628,0.16226 -0.109072,0.0517 -0.217688,0.10072 -0.326595,0.1478 -0.108909,0.0471 -0.218173,0.0918 -0.327112,0.13435 -0.108939,0.0425 -0.21795,0.0829 -0.327112,0.12093 -0.109163,0.038 -0.218566,0.0738 -0.328145,0.10748 -0.10958,0.0337 -0.218988,0.0652 -0.329179,0.0946 -0.110191,0.0294 -0.220768,0.0565 -0.331763,0.0816 -0.110995,0.0251 -0.22287,0.0482 -0.334863,0.0692 -0.111994,0.021 -0.224262,0.0399 -0.337447,0.0568 -0.113185,0.017 -0.227011,0.032 -0.341582,0.045 -0.114569,0.013 -0.230082,0.024 -0.346232,0.0331 -0.116149,0.009 -0.232961,0.0164 -0.350883,0.0217 -0.117921,0.005 -0.236679,0.009 -0.356567,0.0103 -0.119888,0.002 -0.240721,0.002 -0.362769,-5.1e-4 -0.122046,-0.002 -0.245602,-0.006 -0.370003,-0.0114 -0.1244,-0.006 -0.249774,-0.0127 -0.376721,-0.0217 -0.126947,-0.009 -0.255303,-0.0203 -0.384989,-0.0325 -0.129688,-0.0124 -0.260636,-0.0262 -0.393258,-0.0419 -0.132622,-0.0157 -0.266811,-0.0333 -0.402559,-0.0522 -0.13575,-0.0189 -0.273309,-0.039 -0.412378,-0.061 -0.139071,-0.022 -0.279611,-0.0458 -0.422197,-0.0708 -0.142585,-0.025 -0.287271,-0.0516 -0.433565,-0.0796 -0.146294,-0.028 -0.294223,-0.0575 -0.444417,-0.0884 -0.150196,-0.0309 -0.302529,-0.063 -0.45682,-0.0966 -0.154291,-0.0336 -0.310642,-0.0686 -0.469222,-0.10491 -0.09626,-0.46242 -0.185738,-0.87014 -0.267167,-1.26193 -0.04071,-0.19591 -0.07937,-0.38789 -0.115755,-0.58085 -0.03638,-0.19296 -0.07069,-0.3867 -0.10232,-0.58653 -0.0029,-10e-4 -0.0059,-0.003 -0.0088,-0.004 0.606295,4.51429 1.96706,8.57636 3.213241,12.70672 0.800837,2.08163 -0.758237,4.31491 -1.843299,1.3162 -0.05765,-0.86478 -0.130825,-1.77763 -0.21239,-2.70165 a 8.3926191,6.9773932 0 0 1 -0.597379,0.41652 8.3926191,6.9773932 0 0 1 -0.641305,0.36897 8.3926191,6.9773932 0 0 1 -0.680062,0.31781 8.3926191,6.9773932 0 0 1 -0.712101,0.26406 8.3926191,6.9773932 0 0 1 -0.738973,0.20774 8.3926191,6.9773932 0 0 1 -0.75861,0.14986 8.3926191,6.9773932 0 0 1 -0.772563,0.0909 8.3926191,6.9773932 0 0 1 -0.778763,0.0305 8.3926191,6.9773932 0 0 1 -0.719853,-0.0264 8.3926191,6.9773932 0 0 1 -0.714685,-0.0775 8.3926191,6.9773932 0 0 1 -0.70435,-0.12815 8.3926191,6.9773932 0 0 1 -0.68833,-0.17829 8.3926191,6.9773932 0 0 1 -0.667143,-0.22634 8.3926191,6.9773932 0 0 1 -0.641304,-0.27285 8.3926191,6.9773932 0 0 1 -0.611332,-0.31833 8.3926191,6.9773932 0 0 1 -0.575676,-0.36018 c 0.04956,0.28493 0.09306,0.56288 0.156063,0.86351 0.650231,2.31638 1.122486,4.48401 0.874882,6.59495 a 2.8798203,3.3241353 0 0 1 1.377694,-0.40722 2.8798203,3.3241353 0 0 1 2.850472,2.85461 c 0.194189,-0.0225 0.388633,-0.0447 0.583427,-0.0667 0.794394,-0.0897 1.593332,-0.17625 2.389001,-0.26614 0.397835,-0.0449 0.794732,-0.0909 1.190108,-0.13849 0.395377,-0.0476 0.789221,-0.0969 1.18029,-0.14883 0.195534,-0.026 0.390351,-0.0527 0.58446,-0.0801 0.194111,-0.0274 0.387355,-0.0552 0.57981,-0.0842 0.192455,-0.029 0.384074,-0.059 0.574642,-0.0899 0.190568,-0.0309 0.379991,-0.0626 0.568441,-0.0956 0.188449,-0.033 0.376139,-0.0671 0.562239,-0.10232 0.186101,-0.0352 0.37097,-0.0718 0.554488,-0.10955 0.18352,-0.0378 0.365513,-0.0768 0.54622,-0.1173 0.180708,-0.0405 0.359771,-0.0827 0.537435,-0.1261 0.177664,-0.0434 0.353744,-0.0883 0.528133,-0.13487 0.174389,-0.0466 0.347432,-0.0947 0.518315,-0.14469 0.170883,-0.05 0.339801,-0.10149 0.506946,-0.15503 0.167144,-0.0536 0.332401,-0.10905 0.495577,-0.1664 0.163175,-0.0574 0.324198,-0.11639 0.483174,-0.17777 0.158976,-0.0614 0.315712,-0.12507 0.470256,-0.19068 0.154544,-0.0656 0.306939,-0.13353 0.456819,-0.20361 0.149882,-0.0701 0.297364,-0.14228 0.442351,-0.21704 0.07249,-0.0374 0.144265,-0.0756 0.21549,-0.11421 0.07123,-0.0386 0.141943,-0.0775 0.211874,-0.1173 0.06993,-0.0398 0.139133,-0.0804 0.207739,-0.12144 0.06861,-0.0411 0.136353,-0.0827 0.203605,-0.12506 0.06725,-0.0424 0.134119,-0.0855 0.199988,-0.12919 0.06587,-0.0437 0.130879,-0.0883 0.195337,-0.13332 0.06446,-0.0451 0.128185,-0.0905 0.191203,-0.13695 0.06302,-0.0464 0.12552,-0.0938 0.187068,-0.14159 0.06155,-0.0478 0.122368,-0.0965 0.182418,-0.14573 0.06005,-0.0493 0.119245,-0.0992 0.177767,-0.14986 0.05852,-0.0507 0.11615,-0.10181 0.173116,-0.154 0.05697,-0.0522 0.113084,-0.10547 0.168465,-0.15916 0.05538,-0.0537 0.110047,-0.10807 0.163815,-0.1633 0.05377,-0.0552 0.107039,-0.11115 0.159163,-0.16794 0.05213,-0.0568 0.103026,-0.11422 0.153479,-0.1726 0.05045,-0.0584 0.100076,-0.11777 0.148828,-0.17777 0.04875,-0.06 0.09664,-0.12078 0.143661,-0.18242 0.04702,-0.0616 0.09323,-0.12427 0.138493,-0.18758 0.04526,-0.0633 0.08985,-0.12723 0.133325,-0.19224 0.04348,-0.065 0.08598,-0.13118 0.127641,-0.19792 0.04166,-0.0667 0.08214,-0.13408 0.121956,-0.20257 0.03981,-0.0685 0.07885,-0.13799 0.116789,-0.20826 0.03794,-0.0703 0.07507,-0.14134 0.111104,-0.21342 0.03604,-0.0721 0.07131,-0.1452 0.10542,-0.21911 0.0341,-0.0739 0.06708,-0.1485 0.09922,-0.22428 0.03214,-0.0758 0.06338,-0.15281 0.09353,-0.23047 0.03015,-0.0777 0.0592,-0.15607 0.08733,-0.23565 0.02814,-0.0796 0.05505,-0.16032 0.08113,-0.24184 0.02609,-0.0815 0.05144,-0.16404 0.07545,-0.24753 0.02401,-0.0835 0.04682,-0.16773 0.06873,-0.25322 0.02191,-0.0855 0.04276,-0.1719 0.06253,-0.25941 0.01977,-0.0875 0.03872,-0.17605 0.05633,-0.26562 0.01761,-0.0896 0.03368,-0.18017 0.04909,-0.27182 0.01542,-0.0916 0.0297,-0.18427 0.04289,-0.27802 0.01319,-0.0937 0.02575,-0.18885 0.03669,-0.28474 0.01094,-0.0959 0.02027,-0.19289 0.02894,-0.29093 0.0087,-0.0981 0.01638,-0.19691 0.02274,-0.29714 0.0064,-0.10024 0.01148,-0.20193 0.0155,-0.30438 0.004,-0.10244 0.0071,-0.20588 0.0088,-0.31057 0.0017,-0.10469 0.0018,-0.21034 0.001,-0.3173 -7.41e-4,-0.10695 -0.0025,-0.21527 -0.0057,-0.32452 -0.0032,-0.10926 -0.0073,-0.21967 -0.01292,-0.33125 -0.0056,-0.11158 -0.01257,-0.22404 -0.02067,-0.33796 -0.0081,-0.11393 -0.01781,-0.22942 -0.02842,-0.34572 -0.01061,-0.1163 -0.02251,-0.23372 -0.03566,-0.35243 -0.01315,-0.11871 -0.02717,-0.23853 -0.04289,-0.35967 -0.01572,-0.12114 -0.03284,-0.2433 -0.05116,-0.3669 -0.01831,-0.1236 -0.03797,-0.24857 -0.05891,-0.37466 l -0.0186,-0.41651 c -0.418321,0.30668 -0.898563,0.088 -1.493966,-1.11053 0.270297,-1.7735 0.216095,-4.09913 -0.01395,-6.41976 z m -21.133593,20.30884 c -0.0055,0.0239 -0.01081,0.0479 -0.01654,0.0718 0.0057,-0.0239 0.01102,-0.0479 0.01654,-0.0718 z m -0.442867,1.38234 c -0.03163,0.0926 -0.06214,0.18579 -0.09198,0.27906 0.03071,-0.093 0.06035,-0.18639 0.09198,-0.27906 z" />
    <path
       id="path467"
       style="fill:#af62d6;fill-opacity:1;fill-rule:evenodd;stroke-width:0.264583"
       d="m 35.789672,17.82313 0.453203,3.7083 c 0.408239,3.34047 1.054247,6.70838 0.656807,10.08207 -1.109125,0.9177 -2.537536,-0.26958 -1.927531,-1.52083 0.190769,-2.29989 0.343703,-4.60563 0.346232,-6.91431 -3.604244,2.28718 -8.150195,2.84076 -12.264884,2.00039 0.830386,4.2579 1.929411,8.46326 2.590022,12.75375 2.787516,2.488 16.279674,7.39331 21.296894,-3.95738 -0.0231,-2.36536 1.82366,-12.20963 1.74459,-15.9613 a 13.230718,11.387632 0 0 1 -6.25594,1.3565 13.230718,11.387632 0 0 1 -6.639393,-1.54719 z"
       inkscape:label="olho"
       transform="translate(-17.894501,55.143838)" />
    <path
       id="path1314"
       style="opacity:1;fill:#075e92;fill-opacity:1;fill-rule:evenodd;stroke-width:0.264583"
       d="m -15.340009,105.72931 c -0.0077,0.0656 -0.01259,0.13141 -0.02171,0.19689 -0.02523,0.18114 -0.05552,0.36168 -0.09198,0.54209 -0.03647,0.1804 -0.07873,0.36075 -0.127124,0.54053 -0.04839,0.17978 -0.103319,0.35919 -0.164331,0.53847 -0.06101,0.17928 -0.128254,0.35854 -0.202571,0.53743 -0.140333,0.41105 -0.27154,0.82512 -0.393775,1.24282 -0.07435,0.25408 -0.139347,0.51158 -0.207222,0.76791 a 2.8798203,3.3241353 0 0 0 2.590023,1.87276 2.8798203,3.3241353 0 0 0 2.879927,-3.32435 2.8798203,3.3241353 0 0 0 -2.879927,-3.32383 2.8798203,3.3241353 0 0 0 -1.38131,0.40928 z"
       inkscape:label="axila" />
    <path
       id="path16125"
       style="display:inline;fill:#01bae9;fill-opacity:1;stroke:none;stroke-width:0.264583px;stroke-linecap:butt;stroke-linejoin:miter;stroke-opacity:1"
       d="m 47.192094,98.078099 c -10.93985,3.640141 -25.65065,5.080361 -42.092007,5.511291 -0.04692,0.0478 -0.09399,0.0954 -0.142111,0.14211 -0.05538,0.0537 -0.111495,0.10696 -0.168465,0.15916 -0.05697,0.0522 -0.114596,0.1033 -0.173116,0.154 -0.05852,0.0507 -0.117717,0.10056 -0.177767,0.14986 -0.06005,0.0492 -0.120868,0.0979 -0.182418,0.14573 -0.06155,0.0478 -0.124048,0.0952 -0.187068,0.14159 -0.06302,0.0464 -0.126743,0.0918 -0.191203,0.13695 -0.06446,0.045 -0.129467,0.0896 -0.195337,0.13332 -0.06587,0.0437 -0.132738,0.0868 -0.199988,0.12919 -0.06725,0.0424 -0.134995,0.084 -0.203605,0.12506 -0.06861,0.041 -0.137809,0.0816 -0.207739,0.12144 -0.06993,0.0398 -0.140644,0.0787 -0.211874,0.1173 -0.07122,0.0386 -0.143,0.0768 -0.21549,0.11421 -0.144987,0.0748 -0.292469,0.14694 -0.442351,0.21704 -0.14988,0.0701 -0.302275,0.13801 -0.456819,0.20361 -0.154544,0.0656 -0.31128,0.12928 -0.470256,0.19068 -0.158976,0.0614 -0.319999,0.12037 -0.483174,0.17777 -0.163176,0.0573 -0.328433,0.1128 -0.495577,0.1664 -0.167145,0.0535 -0.336063,0.10503 -0.506946,0.15503 -0.170883,0.05 -0.343926,0.0981 -0.518315,0.14469 -0.174389,0.0466 -0.350469,0.0915 -0.528133,0.13487 -0.177664,0.0434 -0.356727,0.0856 -0.537435,0.1261 -0.180707,0.0405 -0.3627,0.0795 -0.54622,0.1173 -0.183518,0.0377 -0.368387,0.0743 -0.554488,0.10955 -0.1861,0.0352 -0.37379,0.0693 -0.562239,0.10232 -0.18845,0.033 -0.377873,0.0647 -0.568441,0.0956 -0.190568,0.0309 -0.382187,0.0609 -0.574642,0.0899 -0.192455,0.029 -0.385699,0.0568 -0.57981,0.0842 -0.194109,0.0274 -0.388926,0.0541 -0.58446,0.0801 -0.05889,0.008 -0.118753,0.0145 -0.177767,0.0222 l 0.158647,0.63407 c -2.744279,6.64041 -0.120181,13.28088 1.861901,19.92127 9.50135,2.57672 16.697974,-2.22236 24.575761,-4.84105 6.088712,3.32877 12.733332,6.4842 23.910682,8.22275 0.0685,-0.13507 0.13434,-0.27065 0.20309,-0.40566 0.49132,-0.96477 0.98929,-1.92805 1.49087,-2.89077 0.50158,-0.96275 1.00683,-1.92463 1.51205,-2.88665 0.0618,-0.52369 0.11204,-1.0558 0.15244,-1.59525 0.0404,-0.53945 0.0706,-1.08651 0.092,-1.64073 0.0214,-0.55421 0.0343,-1.11562 0.0393,-1.68362 0.005,-0.568 0.003,-1.14261 -0.006,-1.72341 -0.009,-0.58079 -0.0234,-1.16749 -0.0434,-1.7601 -0.02,-0.59258 -0.0452,-1.19128 -0.0739,-1.79472 -0.0574,-1.20687 -0.12949,-2.43407 -0.20619,-3.67833 -0.0767,-1.24424 -0.1586,-2.50532 -0.2341,-3.77909 -0.0755,-1.27377 -0.14473,-2.56019 -0.19843,-3.85558 -0.0269,-0.6477 -0.0502,-1.29761 -0.0677,-1.94924 -0.0175,-0.65162 -0.0286,-1.305 -0.0346,-1.959571 -0.005,-0.61001 -0.004,-1.22122 0.004,-1.83296 z"
       inkscape:label="pulmão/torax" />
    <path
       id="path13175"
       style="display:inline;fill:#ff66cc;stroke:none;stroke-width:0.264583px;stroke-linecap:butt;stroke-linejoin:miter;stroke-opacity:1"
       d="m 37.765274,87.54748 -1.71566,0.21807 c -0.17749,1.82656 -0.81146,3.07083 -2.10736,3.63492 0.0602,3.1848 0.98231,6.34796 2.64428,9.35188 1.47866,-0.27866 2.91788,-0.58063 4.31137,-0.90898 l 2.46238,-10.9797 z m -8.92969,2.0252 c -0.0101,0.021 -0.0209,0.0406 -0.031,0.0615 -0.0234,0.0481 -0.0634,0.12938 -0.063,0.12919 0.0315,-0.0632 0.0631,-0.1264 0.094,-0.19068 z m -0.094,0.19068 c 0.007,-0.0142 0.0233,-0.0488 0.032,-0.0667 -0.0486,0.0988 -0.0978,0.19687 -0.14779,0.293 0.0357,-0.0686 0.0714,-0.13723 0.10645,-0.20722 0.002,-0.004 0.007,-0.015 0.009,-0.0191 z m 0.31885,0.14831 c 0.005,0.24827 0.0101,0.4005 0.009,0.30489 -0.003,-0.10146 -0.006,-0.20291 -0.009,-0.30437 -1.3e-4,-1.9e-4 -3.7e-4,-3.2e-4 -5.1e-4,-5.2e-4 z m 0.009,0.30489 c 0.002,0.0756 0.004,0.15125 0.007,0.22686 -0.003,-0.0792 -0.005,-0.15847 -0.007,-0.23771 6e-5,0.005 -4e-5,0.007 0,0.0109 z m 0.007,0.22686 c 0,1.8e-4 -10e-6,3.5e-4 0,5.2e-4 0.13559,0.10428 0.25329,0.1983 0.3576,0.2806 0.0522,0.0411 0.10066,0.0795 0.14676,0.11472 0.046,0.0352 0.0891,0.0671 0.13022,0.0961 0.005,0.004 0.01,0.006 0.0145,0.009 -0.0197,-0.0134 -0.0801,-0.0572 -0.14469,-0.10593 -1.8e-4,-1.4e-4 -3.4e-4,-3.8e-4 -5.2e-4,-5.2e-4 -0.0505,-0.0381 -0.10074,-0.0768 -0.12816,-0.10025 -0.006,-0.005 -0.0117,-0.009 -0.0181,-0.0139 -0.10431,-0.0823 -0.22201,-0.17633 -0.3576,-0.28061 z m -0.49868,-0.35915 c -0.0585,0.11056 -0.11908,0.21749 -0.17932,0.32453 0.007,-0.0119 0.009,-0.0158 0.016,-0.0279 0.0548,-0.0979 0.10993,-0.1958 0.1633,-0.29662 z m -0.26148,0.47129 c -0.006,0.011 -0.0133,0.0211 -0.0196,0.032 -0.0507,0.086 -0.10389,0.17673 -0.0992,0.1695 0.04,-0.0664 0.0795,-0.13368 0.11886,-0.20154 z m -0.0744,0.12299 c -0.0475,0.0801 -0.0947,0.16017 -0.14314,0.23823 0.0303,-0.0487 0.0605,-0.0972 0.0904,-0.14676 0.01,-0.0169 0.0382,-0.0668 0.0527,-0.0915 z m 1.48828,0.26872 c 5.2e-4,4.7e-4 0.004,0.003 0.004,0.003 3.1e-4,1.8e-4 0.002,0.002 0.003,0.002 0.0316,0.0217 0.0633,0.0429 0.0925,0.0605 0.0373,0.0224 0.0728,0.0412 0.10748,0.0568 0.0174,0.008 0.0343,0.0152 0.0512,0.0212 0.0169,0.006 0.034,0.011 0.0506,0.015 0.0166,0.004 0.0327,0.008 0.0491,0.0103 0.0164,0.002 0.0332,0.003 0.0496,0.004 -0.0329,-0.001 -0.0655,-0.006 -0.0987,-0.0145 -0.0332,-0.008 -0.0671,-0.0206 -0.10181,-0.0362 -0.0347,-0.0156 -0.0702,-0.0344 -0.10748,-0.0568 -0.0313,-0.0188 -0.0647,-0.0416 -0.0987,-0.0651 z m -1.68827,0.061 c -0.26718,0.42238 -0.54865,0.81515 -0.84335,1.17874 0.31985,-0.30996 0.6193,-0.6352 0.79478,-1.00924 -0.008,-0.0177 -0.0154,-0.0356 -0.0233,-0.0532 l -5.1e-4,-5.2e-4 0.0413,-0.0651 c 0.0106,-0.0165 0.0205,-0.034 0.031,-0.0506 z m -0.0486,0.1695 c 0.1286,0.28357 0.25601,0.56761 0.3824,0.85214 -0.12652,-0.2849 -0.25332,-0.5692 -0.38188,-0.85266 z m 0.3824,0.85214 c 0.1264,0.28453 0.25152,0.56946 0.37621,0.85473 -0.12468,-0.28541 -0.24993,-0.57039 -0.37621,-0.85473 z m 0.37621,0.85473 c 0.1606,0.36745 0.31879,0.73604 0.47749,1.10432 -0.15865,-0.3684 -0.317,-0.73696 -0.47749,-1.10432 z m 1.50172,-1.77922 c -0.006,0.001 -0.0119,0.005 -0.0176,0.006 0.006,-10e-4 0.0128,-0.003 0.0191,-0.005 -5.2e-4,-3.5e-4 -10e-4,-6.8e-4 -0.002,-0.001 z M 7.74904,93.07636 c -0.03485,0.0713 -0.06986,0.13986 -0.105419,0.20515 -0.03556,0.0653 -0.07165,0.12749 -0.108004,0.18604 -0.03635,0.0585 -0.07284,0.11378 -0.110071,0.16485 -0.03723,0.0511 -0.07497,0.0977 -0.113171,0.14056 -0.0382,0.0428 -0.07702,0.0814 -0.116272,0.11523 -0.01944,0.0168 -0.0392,0.0326 -0.05891,0.047 l 0.01809,0.40514 c 0.02094,0.12609 0.0406,0.25106 0.05891,0.37466 0.01832,0.1236 0.03544,0.24576 0.05116,0.3669 0.01572,0.12114 0.02974,0.24096 0.04289,0.35967 0.01315,0.11871 0.02505,0.23613 0.03566,0.35243 0.01061,0.1163 0.02032,0.23179 0.02842,0.34572 0.0081,0.11392 0.01507,0.22638 0.02067,0.33796 0.0056,0.11158 0.0097,0.22199 0.01292,0.33125 0.0032,0.10925 0.0049,0.21757 0.0057,0.32452 8e-4,0.10696 6.67e-4,0.21261 -0.001,0.3173 -0.0017,0.10469 -0.0048,0.20813 -0.0088,0.31057 -0.004,0.10245 -0.0091,0.20414 -0.0155,0.30438 -0.0064,0.10023 -0.01404,0.19904 -0.02274,0.29714 -0.0087,0.098 -0.01801,0.1951 -0.02894,0.29093 -0.01094,0.0959 -0.0235,0.19104 -0.03669,0.28474 -0.01319,0.0937 -0.02747,0.18642 -0.04289,0.27802 -0.01541,0.0916 -0.03148,0.18222 -0.04909,0.27182 -0.01761,0.0896 -0.03656,0.17812 -0.05633,0.26562 -0.01977,0.0875 -0.04062,0.17391 -0.06253,0.25941 -0.02191,0.0855 -0.04472,0.16972 -0.06873,0.25322 -0.02401,0.0835 -0.04936,0.16603 -0.07545,0.24753 -0.02608,0.0815 -0.05299,0.16224 -0.08113,0.24184 -0.02813,0.0796 -0.05718,0.15795 -0.08733,0.23565 -0.03015,0.0777 -0.06139,0.15467 -0.09353,0.23047 -0.03214,0.0758 -0.06512,0.15038 -0.09922,0.22428 -0.03411,0.0739 -0.06938,0.14701 -0.10542,0.21911 -0.03603,0.0721 -0.07316,0.14312 -0.111104,0.21342 -0.03794,0.0703 -0.07698,0.13976 -0.116789,0.20826 -0.03982,0.0685 -0.0803,0.13587 -0.121956,0.20257 -0.04166,0.0667 -0.08416,0.13292 -0.127641,0.19792 -0.04348,0.065 -0.08807,0.12894 -0.133325,0.19224 -0.04526,0.0633 -0.09147,0.12598 -0.138493,0.18758 -0.04702,0.0616 -0.09491,0.12242 -0.143661,0.18242 -0.04875,0.06 -0.09838,0.11937 -0.148828,0.17777 -0.05045,0.0584 -0.101349,0.1158 -0.153479,0.1726 -0.05212,0.0568 -0.105393,0.11274 -0.159163,0.16794 -0.007,0.007 -0.01419,0.0141 -0.02119,0.0212 8.242031,-0.21604 16.0472,-0.6866 23.16189,-1.56011 -0.96186,-2.4719 -1.75184,-5.00165 -2.34559,-7.57266 -0.12435,-0.41111 -0.0326,-0.76227 0.17053,-1.08676 -6.077916,5.59832 -15.993866,1.7991 -18.338413,-0.29352 z m 21.930964,1.95853 c 0.205,0.47876 0.40997,0.95754 0.61546,1.43609 -0.20528,-0.47829 -0.41032,-0.9567 -0.61546,-1.43609 z"
       inkscape:label="trapézio" />
    <path
       id="path5421"
       style="display:inline;fill:#b7ebef;fill-opacity:1;stroke:none;stroke-width:0.264583px;stroke-linecap:butt;stroke-linejoin:miter;stroke-opacity:1"
       d="m -5.520454,122.85075 -0.0124,0.015 c 0.06281,0.19067 0.122947,0.38069 0.184485,0.57103 -0.05734,-0.19533 -0.116193,-0.39068 -0.172083,-0.58601 z m 26.173596,0.44028 c -7.877763,2.61869 -15.074438,7.41777 -24.575761,4.84105 -0.127728,-0.42792 -0.258367,-0.85574 -0.38964,-1.28364 0.506124,1.78964 0.943689,3.55856 1.299146,5.29993 9.406495,0.97675 15.835479,-3.86519 24.067777,-4.47363 2.58207,2.07008 15.35166,4.79585 22.38158,6.09214 0.36998,-0.75222 0.74577,-1.50343 1.12603,-2.25361 -11.17633,-1.73858 -17.82074,-4.89363 -23.909132,-8.22224 z"
       inkscape:label="diafragma" />
    <circle
       style="display:inline;fill:#f3efa0;fill-opacity:1;fill-rule:evenodd;stroke-width:0.264583"
       id="path934"
       cx="20.005278"
       cy="121.51909"
       r="3.9494679"
       inkscape:label="plexo_solar" />
    <path
       id="path581"
       style="display:inline;fill:#cccc00;stroke:none;stroke-width:0.264583px;stroke-linecap:butt;stroke-linejoin:miter;stroke-opacity:1"
       d="m -6.056338,107.59121 c -0.295645,0.0382 -0.591435,0.0763 -0.889352,0.11214 -0.395374,0.0476 -0.792273,0.0936 -1.190108,0.13849 -0.795667,0.0899 -1.594609,0.17644 -2.389001,0.26614 -0.195665,0.0221 -0.390957,0.0446 -0.586011,0.0672 a 2.8798203,3.3241353 0 0 1 0.03204,0.4687 2.8798203,3.3241353 0 0 1 -2.879927,3.32435 2.8798203,3.3241353 0 0 1 -0.521932,-0.0605 c -0.570023,5.31497 0.0068,10.71485 1.560628,16.18712 0,0 -0.836781,8.59734 -1.235067,14.45958 0.0326,0.11838 0.06635,0.24714 0.0987,0.36381 0.358936,1.29454 0.702074,2.48282 1.005107,3.5419 0.112011,0.34813 0.218417,0.69752 0.327112,1.04645 1.080813,-0.53995 2.305802,-1.37563 2.305802,-1.37563 3.022747,-0.1149 7.418765,0.0528 8.425325,-5.59501 -0.145869,-5.88505 -1.69746,-12.30471 -3.949629,-18.89187 -0.661485,-4.65156 -1.998437,-9.30314 0,-13.9547 z"
       inkscape:label="ombro" />
    <path
       id="path12933"
       style="display:inline;fill:#ff3300;fill-opacity:1;stroke:none;stroke-width:0.264583px;stroke-linecap:butt;stroke-linejoin:miter;stroke-opacity:1"
       d="m -15.59168,107.04344 c -0.023,0.0841 -0.0469,0.16821 -0.0724,0.25218 0.0259,-0.0841 0.0503,-0.16799 0.0734,-0.25218 z m -0.0724,0.25218 c -0.0255,0.084 -0.0526,0.1678 -0.0811,0.25167 0.0285,-0.0838 0.0553,-0.1678 0.0811,-0.25167 z m -0.0811,0.25167 c -0.0305,0.0896 -0.0624,0.17913 -0.0961,0.26872 0.0337,-0.0896 0.0656,-0.17908 0.0961,-0.26872 z m -0.0961,0.26872 c -0.0337,0.0896 -0.0693,0.17927 -0.10645,0.26871 0.0372,-0.0894 0.0727,-0.17913 0.10645,-0.26871 z m -0.56689,1.74873 c -0.0965,0.33995 -0.18879,0.68151 -0.27388,1.02526 -0.10487,0.42364 -0.20116,0.85014 -0.28939,1.27899 -0.0882,0.42885 -0.16848,0.86012 -0.24081,1.29346 -0.0723,0.43334 -0.13663,0.86876 -0.19379,1.30586 -0.0572,0.43711 -0.10714,0.87606 -0.14986,1.3162 -0.0427,0.44014 -0.0785,0.8815 -0.10749,1.32395 -0.029,0.44246 -0.0511,0.88559 -0.0672,1.32964 -0.0161,0.44404 -0.0257,0.88886 -0.0295,1.33377 -0.004,0.4449 -0.002,0.89028 0.006,1.33531 0.008,0.44505 0.0213,0.88983 0.0398,1.33429 0.0185,0.44446 0.0423,0.88855 0.0708,1.3317 0.0571,0.88631 0.13349,1.76912 0.22634,2.64584 0.0929,0.8767 0.20174,1.74729 0.32453,2.60862 0.1228,0.86133 0.2593,1.7137 0.40618,2.55385 0.14688,0.84015 0.30411,1.66782 0.46922,2.48099 0.16511,0.81317 0.33825,1.61171 0.51573,2.3921 0.17748,0.78039 0.35964,1.5428 0.54364,2.28461 0.184,0.74182 0.36983,1.46315 0.55449,2.1606 0.18466,0.69743 0.36778,1.3712 0.54725,2.01848 0.35894,1.29454 0.70207,2.48282 1.00511,3.5419 0.10067,0.31289 0.19604,0.62697 0.29404,0.94051 1.47367,-0.16514 2.46906,-1.55246 2.83031,-4.56044 -0.977,-6.15901 -2.38336,-12.74772 -3.58376,-19.1301 -0.68394,-4.07823 -0.60821,-7.99368 0.031,-11.78843 a 2.8798203,3.3241353 0 0 1 -0.47904,0.0465 2.8798203,3.3241353 0 0 1 -2.59002,-1.87276 c 0.0468,-0.17687 0.0924,-0.35423 0.14056,-0.53071 z"
       inkscape:label="braço" />
    <path
       id="path16165"
       style="display:inline;fill:#cccc00;stroke:none;stroke-width:0.264583px;stroke-linecap:butt;stroke-linejoin:miter;stroke-opacity:1"
       d="m 29.05159,89.263649 0.004,0.29507 c 0.034,1.33066 -1.4e-4,0.50975 -0.004,-0.29507 z m -0.0827,0.0248 c -0.2344,0.5014 -0.45161,0.92718 -0.0822,0.17725 z m -0.33693,0.69246 c -0.23312,0.43718 -0.23311,0.43717 0,0 z m -0.17673,0.32969 c -0.25783,0.45616 -0.49453,0.84132 -0.0904,0.16124 z m 0.99683,0.42737 c 0.10968,0.0938 0.58072,0.43119 0,0 z m -1.3658,0.20102 -0.11679,0.185 c 0.008,0.0178 0.0157,0.0359 0.0238,0.0538 0.0364,-0.0775 0.0682,-0.15677 0.093,-0.23875 z m -0.093,0.23875 c -0.57557,1.22682 -2.48396,1.9313 -2.07636,3.27887 1.61873,7.009261 4.69284,13.711711 8.74572,19.771911 3.3883,5.21371 6.77503,9.92817 11.9295,13.35061 0.39181,-0.74963 0.78419,-1.49912 1.17771,-2.24844 0.0618,-0.52369 0.11204,-1.0558 0.15244,-1.59525 0.0336,-0.44881 0.0583,-0.90414 0.0785,-1.36323 -8.55769,-6.95489 -12.4644,-15.0182 -17.03048,-24.341151 -0.99781,-2.28215 -1.94828,-4.58476 -2.97708,-6.85332 z m 2.32389,-0.10129 c -0.0261,0.004 -0.0816,0.0163 -0.18035,0.0434 0.0729,0.0112 0.2587,-0.0552 0.18035,-0.0434 z"
       inkscape:label="esôfago" />
    <path
       id="path16156"
       style="display:inline;fill:#ffff00;stroke:none;stroke-width:0.264583px;stroke-linecap:butt;stroke-linejoin:miter;stroke-opacity:1"
       d="m 29.04642,89.07968 c 3e-5,0.0123 -6.3e-4,0.0274 -5.1e-4,0.0393 -0.32487,0.73497 -0.68569,1.40132 -1.07642,2.00504 4.69548,10.33791 7.87557,21.77697 20.00808,25.1101 -0.0145,-0.36539 -0.0305,-0.73197 -0.0481,-1.10123 -0.046,-0.96741 -0.10257,-1.95112 -0.16226,-2.94297 -8.48095,-5.50727 -13.67982,-13.08433 -13.82552,-20.78943 -0.43263,0.1882 -0.93886,0.30074 -1.52652,0.33383 -0.77867,0.0438 -1.50847,-0.19536 -2.14922,-0.63097 -0.01,0.003 -0.0201,0.006 -0.03,0.008 -0.0168,0.003 -0.0336,0.006 -0.0501,0.007 -0.0166,10e-4 -0.0327,0.002 -0.0491,0.002 -0.0164,-5e-4 -0.0332,-0.002 -0.0496,-0.004 -0.0164,-0.002 -0.0325,-0.006 -0.0491,-0.0103 -0.0166,-0.004 -0.0337,-0.009 -0.0506,-0.015 -0.0169,-0.006 -0.0338,-0.0134 -0.0512,-0.0212 -0.0347,-0.0156 -0.0702,-0.0344 -0.10748,-0.0568 -0.0373,-0.0224 -0.0767,-0.0485 -0.11783,-0.0775 -0.0411,-0.029 -0.0842,-0.0609 -0.13022,-0.0961 -0.0461,-0.0352 -0.0946,-0.0736 -0.14676,-0.11472 -0.10431,-0.0823 -0.22201,-0.17633 -0.3576,-0.28061 -0.009,-0.25232 -0.0164,-0.50473 -0.0217,-0.75706 -0.004,-0.20233 -0.006,-0.40444 -0.008,-0.60668 z m 2.16421,0.0481 c 0.0121,0.40763 0.023,0.81118 0.032,1.20975 -0.005,-0.19929 -0.01,-0.3999 -0.015,-0.60152 -0.005,-0.20161 -0.011,-0.40441 -0.0171,-0.60823 z m -0.3452,1.56735 c -0.055,0.05 -0.10659,0.0952 -0.15502,0.13591 0.0242,-0.0204 0.0491,-0.0419 0.0749,-0.0646 0.0258,-0.0227 0.0526,-0.0463 0.0801,-0.0713 z m -0.15502,0.13591 c -0.0484,0.0408 -0.0939,0.0772 -0.13695,0.10903 0.0215,-0.0159 0.0434,-0.033 0.0661,-0.0512 0.0228,-0.0181 0.0466,-0.0375 0.0708,-0.0579 z m -0.13695,0.10903 c -0.043,0.0318 -0.0837,0.059 -0.12247,0.0822 0.0194,-0.0116 0.0391,-0.024 0.0594,-0.0377 0.0204,-0.0137 0.0415,-0.0286 0.063,-0.0445 z m -0.12247,0.0822 c -0.0387,0.0231 -0.0755,0.0421 -0.1111,0.0568 0.0178,-0.007 0.0357,-0.0159 0.0543,-0.0253 0.0185,-0.009 0.0375,-0.0199 0.0568,-0.0315 z"
       inkscape:label="tiréoide" />
    <path
       id="path16144"
       style="display:inline;fill:#ccffff;fill-rule:evenodd;stroke-width:0.264583"
       d="m 31.023564,80.07351 c -2.2e-4,0.0171 -8.1e-4,0.0341 -0.001,0.0512 -0.003,0.22053 -0.005,0.44126 -0.006,0.66146 -10e-4,0.22021 -10e-4,0.44016 -5.2e-4,0.65991 5.7e-4,0.21975 0.002,0.4392 0.004,0.65836 0.002,0.21915 0.005,0.43786 0.008,0.65629 0.003,0.21843 0.007,0.43665 0.0114,0.65422 0.004,0.21757 0.009,0.43455 0.014,0.65112 0.005,0.21658 0.0111,0.43258 0.017,0.64803 0.006,0.21545 0.0122,0.43021 0.0186,0.6444 0.0129,0.42838 0.0263,0.85439 0.0403,1.27693 0.014,0.42253 0.0286,0.84167 0.0424,1.25728 0.0137,0.41562 0.0267,0.82744 0.0388,1.23507 0.006,0.20382 0.0117,0.40662 0.0171,0.60823 0.005,0.20162 0.0105,0.40223 0.015,0.60152 -0.0716,0.0694 -0.13829,0.1337 -0.20102,0.19327 -0.0627,0.0596 -0.12121,0.11432 -0.17622,0.16433 -0.0275,0.025 -0.0543,0.0486 -0.0801,0.0713 -0.0258,0.0227 -0.0507,0.0442 -0.0749,0.0646 -0.0242,0.0204 -0.048,0.0398 -0.0708,0.0579 -0.0228,0.0181 -0.0446,0.0353 -0.0661,0.0512 -0.0215,0.0159 -0.0427,0.0307 -0.063,0.0445 -0.0204,0.0137 -0.0401,0.0262 -0.0594,0.0377 -0.0194,0.0116 -0.0383,0.0221 -0.0568,0.0315 -0.0185,0.009 -0.0365,0.0179 -0.0543,0.0253 -0.0178,0.007 -0.0355,0.0138 -0.0527,0.0191 -0.007,0.002 -0.0141,0.003 -0.0212,0.005 0.64075,0.43561 1.37055,0.67482 2.14922,0.63097 2.70651,-0.15241 3.68815,-1.98815 3.68815,-5.15472 1e-5,-3.07899 -2.62909,-6.32812 -5.0798,-6.50607 z"
       inkscape:label="garganta" />
    <path
       id="path13085"
       style="display:inline;fill:#cc00ff;stroke:none;stroke-width:0.264583px;stroke-linecap:butt;stroke-linejoin:miter;stroke-opacity:1"
       d="m 44.209844,84.02831 -3.40289,0.71624 c 1.32765,6.41655 1.47002,11.73166 -1.59474,15.47864 2.83611,-0.61192 5.50482,-1.32142 7.97884,-2.14457 5.4e-4,-0.0448 9.4e-4,-0.0896 0.002,-0.13436 0.009,-0.65653 0.0255,-1.31396 0.0512,-1.97146 0.31253,-0.61219 0.62611,-1.20561 0.93896,-1.78232 0.31286,-0.57671 0.62479,-1.13689 0.93535,-1.68155 0.31056,-0.54465 0.61936,-1.07406 0.92501,-1.59008 0.30565,-0.51603 0.60828,-1.01865 0.9064,-1.50947 0.0881,-0.14497 0.17474,-0.287 0.262,-0.42995 l -0.0713,-0.0382 c -1.65325,-3.26653 -3.99086,-2.59759 -6.09731,-3.2582 -0.35739,-0.48611 -0.74455,-1.06124 -0.83302,-1.65468 z"
       inkscape:label="pescoço" />
    <path
       id="path13051"
       style="display:inline;fill:#ff0000;stroke:none;stroke-width:0.264583px;stroke-linecap:butt;stroke-linejoin:miter;stroke-opacity:1"
       d="m 56.818374,78.09637 -0.0171,0.006 a 15.139627,12.96742 0 0 1 -11.40447,4.45038 15.139627,12.96742 0 0 1 -0.58446,-0.016 c -1.18476,1.05776 -0.42681,2.25204 0.23047,3.14606 2.10645,0.66061 4.44406,-0.008 6.09731,3.2582 l 0.0723,0.0388 c 0.50064,-0.82009 0.99591,-1.624 1.46245,-2.38797 0.27521,-0.45068 0.54321,-0.89337 0.80305,-1.32912 0.25984,-0.43575 0.5116,-0.86457 0.75344,-1.28881 0.24185,-0.42424 0.47382,-0.84371 0.69505,-1.25987 0.22123,-0.41616 0.43141,-0.82925 0.62942,-1.24075 0.198,-0.4115 0.38388,-0.82118 0.55604,-1.23145 0.01,-0.0231 0.0183,-0.0462 0.0279,-0.0693 z"
       inkscape:label="nariz" />
    <path
       id="path364"
       style="fill:#cb7c30;fill-opacity:1;stroke:none;stroke-width:0.264583px;stroke-linecap:butt;stroke-linejoin:miter;stroke-opacity:1"
       d="m 20.85416,144.40085 c -3.512107,-0.0138 -4.302705,2.48223 -4.157369,3.97857 l -0.01447,0.20464 c 0.184977,-0.006 0.374181,-0.0135 0.549321,-0.015 5.453258,-0.0456 6.204868,1.9487 7.015078,3.78634 0.0797,0.49095 0.13216,0.93339 0.16381,1.33893 4.63246,-2.48285 3.56838,-8.63061 -3.38739,-9.2909 -0.0571,-0.002 -0.11323,-0.002 -0.16898,-0.003 z"
       inkscape:label="supra-renais" />
    <ellipse
       style="fill:#bccb00;fill-opacity:1;fill-rule:evenodd;stroke-width:0.264583"
       id="path5828"
       cx="4.7171564"
       cy="153.33105"
       rx="3.6545572"
       ry="3.5222657"
       inkscape:label="vesícula biliar" />
    <path
       id="path1150"
       style="fill:#ff9003;stroke:none;stroke-width:0.264583px;stroke-linecap:butt;stroke-linejoin:miter;stroke-opacity:1;fill-opacity:1"
       d="m 19.759139,127.80807 c -7.626092,0.97485 -13.86421,5.26433 -22.770186,4.3403 0.588785,2.88433 0.951224,5.69234 1.018025,8.3876 -1.006553,5.64784 -5.402595,5.48011 -8.425325,5.59501 0,0 -0.41073,0.27912 -0.96118,0.61702 -0.29774,0.28819 -0.63383,0.47924 -1.00459,0.58084 -0.11279,0.0606 -0.22567,0.12056 -0.33693,0.17622 0.0849,0.27263 0.16924,0.54544 0.25218,0.81855 0.0945,0.31121 0.1876,0.62302 0.27957,0.93483 0.092,0.3118 0.18287,0.62347 0.27233,0.93586 0.0895,0.31239 0.17758,0.62548 0.26459,0.93844 0.087,0.31296 0.17275,0.62596 0.25735,0.93948 0.0846,0.31352 0.16789,0.62749 0.25011,0.94154 0.0822,0.31406 0.1635,0.628 0.2434,0.94258 0.0799,0.31459 0.15855,0.62955 0.23616,0.94465 0.0776,0.31509 0.15407,0.6306 0.22944,0.94619 0.15074,0.63119 0.29721,1.26344 0.43925,1.89653 0.14204,0.63309 0.27973,1.26682 0.41341,1.90169 0.13369,0.63487 0.26344,1.27084 0.38912,1.90738 0.0967,0.48996 0.18894,0.98086 0.28112,1.47174 5.00895,1.15209 10.519003,1.65318 17.512631,1.08934 -0.42352,-2.26438 -0.34302,-5.17861 0.731221,-9.07955 0.931465,-2.513 2.409989,-4.83196 6.052344,-6.38307 0.462014,-0.035 0.888307,-0.0544 1.299145,-0.0672 l 0.01447,-0.20464 c -0.108574,-1.11785 0.305373,-2.79365 1.985925,-3.56412 -0.214771,-5.66905 0.02087,-11.33822 1.07642,-17.00723 z M 4.717163,149.80879 a 3.6545572,3.5222657 0 0 1 3.654557,3.52227 3.6545572,3.5222657 0 0 1 -3.654557,3.52226 3.6545572,3.5222657 0 0 1 -3.654557,-3.52226 3.6545572,3.5222657 0 0 1 3.654557,-3.52227 z"
       inkscape:label="fígado" />
    <path
       id="path530"
       style="fill:#8ec100;fill-opacity:1;stroke:none;stroke-width:0.264583px;stroke-linecap:butt;stroke-linejoin:miter;stroke-opacity:1"
       d="m 21.054663,127.67475 c -0.436959,0.0323 -0.868246,0.0781 -1.295524,0.13333 -1.055545,5.66898 -1.291191,11.33818 -1.07642,17.00722 0.569013,-0.26087 1.283082,-0.41794 2.171444,-0.41445 0.05575,2.3e-4 0.11186,0.001 0.16898,0.003 6.95575,0.6603 8.01985,6.80807 3.38739,9.2909 0.0502,0.64293 0.046,1.18895 0,1.66088 4.19055,0.77016 8.33843,1.17731 12.33517,0.30024 0.0135,-0.18 0.0237,-0.35574 0.0377,-0.5364 0.0805,-1.03657 0.16947,-2.08398 0.26717,-3.14295 0.0977,-1.05897 0.20377,-2.12964 0.31884,-3.21222 0.14546,-0.50237 0.29794,-1.0034 0.4563,-1.50326 0.15836,-0.49986 0.32257,-0.99858 0.493,-1.49604 0.17043,-0.49743 0.34698,-0.99359 0.52865,-1.48879 0.18168,-0.4952 0.3686,-0.98948 0.56069,-1.48259 0.19209,-0.49312 0.38949,-0.9852 0.59117,-1.47641 0.20168,-0.49118 0.40761,-0.98125 0.61805,-1.47071 0.21044,-0.48944 0.425,-0.97819 0.64338,-1.46605 0.21838,-0.48786 0.44062,-0.97498 0.66611,-1.46141 0.45093,-0.97287 0.91563,-1.94277 1.39009,-2.91093 0.18163,-0.37063 0.37066,-0.73987 0.55501,-1.11001 l -0.004,-0.001 c -0.14442,0.28996 -0.28873,0.57997 -0.4315,0.87023 -7.02988,-1.29629 -19.79951,-4.02205 -22.38158,-6.09213 z m -1.313611,0.13591 c -0.23209,0.0302 -0.463249,0.0623 -0.692981,0.0982 0.229731,-0.0357 0.460794,-0.0683 0.692981,-0.0982 z m -1.408182,0.21911 c -0.225743,0.0412 -0.450589,0.0847 -0.674378,0.13074 0.223799,-0.0459 0.448621,-0.0897 0.674378,-0.13074 z m -0.690398,0.13384 c -0.430377,0.0887 -0.857674,0.18496 -1.282092,0.28887 v 0.002 c 0.424531,-0.1039 0.851548,-0.20184 1.282092,-0.29042 z m 0.749825,16.80103 c -0.01222,0.007 -0.02411,0.0141 -0.03617,0.0212 0.01207,-0.007 0.02395,-0.0142 0.03617,-0.0212 z m -0.38809,0.25787 c -0.0108,0.008 -0.02139,0.0169 -0.03204,0.0253 0.01065,-0.008 0.02124,-0.017 0.03204,-0.0253 z m -1.224214,1.95338 c -0.0054,0.0235 -0.01058,0.0469 -0.0155,0.0703 0.0049,-0.0234 0.0101,-0.0468 0.0155,-0.0703 z m -0.08113,0.50126 c -0.0015,0.0163 -0.0033,0.0324 -0.0047,0.0486 0.0013,-0.0161 0.0031,-0.0323 0.0047,-0.0486 z m -0.01499,0.22737 c -7.95e-4,0.0222 -0.0017,0.0442 -0.0021,0.0661 3.99e-4,-0.022 0.0013,-0.0439 0.0021,-0.0661 z m -10e-4,0.2403 c 3.68e-4,0.0127 5.36e-4,0.0252 10e-4,0.0377 -4.96e-4,-0.0125 -6.67e-4,-0.0251 -10e-4,-0.0377 z m -0.56534,0.46198 c -0.236691,0.0113 -0.47927,0.0251 -0.734322,0.0444 0.255258,-0.0194 0.494934,-0.032 0.734322,-0.0444 z m 7.24142,2.0469 c 0.0774,0.10757 0.14912,0.2175 0.21652,0.32866 -0.0674,-0.11116 -0.13912,-0.22109 -0.21652,-0.32866 z m 0.21652,0.32866 c 0.0674,0.11117 0.13045,0.22375 0.19017,0.33745 -0.0597,-0.1137 -0.12277,-0.22628 -0.19017,-0.33745 z m 0.3607,0.6811 c 0.10874,0.23031 0.2093,0.46224 0.31058,0.69195 -0.10128,-0.22971 -0.20184,-0.46164 -0.31058,-0.69195 z m 0.31058,0.69195 c 0.0209,0.12884 0.0394,0.25358 0.0568,0.3762 -0.0173,-0.12237 -0.0359,-0.24736 -0.0568,-0.3762 z m 0.0878,0.60926 c 0.005,0.0382 0.01,0.0771 0.0145,0.11472 -0.005,-0.0376 -0.01,-0.0765 -0.0145,-0.11472 z"
       inkscape:label="estômago" />
    <path
       id="path1831"
       style="display:inline;fill:#fbeb00;fill-opacity:1;stroke:none;stroke-width:0.264583px;stroke-linecap:butt;stroke-linejoin:miter;stroke-opacity:1"
       d="m 35.989123,202.27587 c 0.4453,1.47639 1.04669,3.26736 3.93413,3.4923 l 0.22479,-0.0114 c -0.73187,-3.92068 -1.45694,-7.60616 -2.019,-11.20294 -2.80647,1.02508 -2.98606,5.16395 -2.13992,7.72204 z"
       sodipodi:nodetypes="ccccc"
       inkscape:label="bexiga" />
    <path
       id="path794"
       style="display:inline;fill:#fbeb00;fill-opacity:1;stroke:none;stroke-width:0.264583px;stroke-linecap:butt;stroke-linejoin:miter;stroke-opacity:1"
       d="m 20.641773,171.33926 c -0.400427,0.28942 -1.858716,0.42395 -2.348178,0.42995 2.736138,8.87812 6.564378,16.93372 17.534848,25.49612 0.2444,-0.8398 0.65899,-1.5844 1.28158,-2.11563 -9.33151,-7.60612 -13.3669,-15.32828 -16.46825,-23.81044 z"
       sodipodi:nodetypes="ccccc"
       inkscape:label="ureter" />
    <path
       id="path787"
       style="fill:#fbeb00;fill-opacity:1;stroke:none;stroke-width:0.264583px;stroke-linecap:butt;stroke-linejoin:miter;stroke-opacity:1"
       d="m 17.231645,148.56907 c -0.564131,0.005 -1.178431,0.0314 -1.848466,0.0822 -3.642364,1.55111 -5.120876,3.87004 -6.052344,6.38307 -1.850749,6.7207 -0.755214,10.51636 0.79375,13.09688 1.802256,1.70674 2.917056,3.78234 8.16901,3.63802 0.489462,-0.006 1.947751,-0.14053 2.348178,-0.42994 3.25656,-2.54662 1.95701,-4.13412 2.24896,-6.41615 l -0.0992,-5.42395 c 0.70062,-1.99805 2.19539,-2.58429 1.45521,-7.14375 -0.81021,-1.83764 -1.56181,-3.83197 -7.015078,-3.78634 z"
       sodipodi:nodetypes="sccccccccs"
       inkscape:label="rim" />
    <path
       id="path10549"
       style="fill:#609400;fill-opacity:1;stroke:none;stroke-width:0.065;stroke-linecap:butt;stroke-linejoin:miter;stroke-dasharray:none;stroke-opacity:1"
       d="m 23.523253,157.99279 c -0.0915,0.16463 -0.18342,0.32829 -0.27337,0.49558 0.0901,-0.16746 0.18234,-0.33075 0.27388,-0.49558 z m -0.27337,0.49558 c -0.0547,0.10177 -0.10839,0.20556 -0.16071,0.3116 0.0524,-0.1061 0.10594,-0.20976 0.16071,-0.3116 z m -0.17828,0.34726 c -0.0175,0.036 -0.035,0.0723 -0.0522,0.10904 0.0171,-0.0367 0.0347,-0.0731 0.0522,-0.10904 z m -0.10801,0.23048 c -0.0111,0.0251 -0.0217,0.051 -0.0326,0.0765 0.0109,-0.0255 0.0214,-0.0514 0.0326,-0.0765 z m -0.0646,0.15348 c -0.0299,0.0727 -0.0591,0.14624 -0.0868,0.22272 0.0277,-0.0764 0.057,-0.15012 0.0868,-0.22272 z m -0.0868,0.22272 c -0.007,0.0189 -0.014,0.0377 -0.0207,0.0568 l 0.0904,4.93251 c 3.85156,1.36531 8.8517,1.66962 13.37231,0.80357 0.009,-0.35377 0.0193,-0.70833 0.0305,-1.06453 0.0308,-0.9767 0.0693,-1.96252 0.11627,-2.95796 0.0234,-0.49473 0.0489,-0.99226 0.0765,-1.4919 -4.57748,0.64668 -9.13768,0.71748 -13.66532,-0.27854 z"
       inkscape:label="duodeno" />
    <path
       id="path604"
       style="fill:#6eaa01;fill-opacity:1;stroke:none;stroke-width:0.1;stroke-linecap:butt;stroke-linejoin:miter;stroke-dasharray:none;stroke-opacity:1"
       d="m 24.410573,155.35574 c -0.19192,1.96788 -1.08886,2.68326 -1.59835,4.08657 4.52951,0.99643 9.09162,0.92544 13.671,0.27802 0.0668,-1.37161 0.16794,-2.80267 0.26249,-4.06435 -3.99674,0.87707 -8.14462,0.46992 -12.33517,-0.30024 z"
       sodipodi:nodetypes="cccccc"
       inkscape:label="pâncreas" />
    <path
       id="path550"
       style="fill:#a85c24;fill-opacity:1;stroke:none;stroke-width:0.1;stroke-linecap:butt;stroke-linejoin:miter;stroke-dasharray:none;stroke-opacity:1"
       d="m 36.25425,165.23524 c -4.52059,0.86605 -9.52075,0.56174 -13.37231,-0.80357 l 0.009,0.49144 c -0.29195,2.28203 1.0076,3.86953 -2.24896,6.41615 0.77358,2.11574 1.60565,4.18397 2.56315,6.21513 4.22952,0.27408 8.75325,0.1244 13.15424,-0.59738 -0.14437,-3.28768 -0.18445,-6.86565 -0.1426,-9.88312 0.008,-0.70936 0.10584,-4.47769 0.0377,-1.83865 z M 8.58721,164.04203 c 0.004,0.0237 0.008,0.0483 0.0124,0.0718 -3.49577,0.28184 -6.62101,0.29732 -9.49813,0.0987 l -0.0413,0.21756 c -2.5022,2.62127 -1.38439,6.58348 -0.65836,10.4004 1.67951,8.43824 1.73809,17.41321 2.22209,26.32966 -0.34116,3.49637 -0.16395,6.77017 3.83387,10.13685 2.13288,0.75236 4.32555,0.72988 6.58255,-0.13126 2.577381,-1.70734 3.313835,-4.15153 3.423043,-6.84609 -0.168561,-1.54625 -0.607987,-4.7091 -1.699633,-8.51783 -1.65579,-5.77693 -1.997,-13.59367 -2.21692,-18.73322 0.45554,-0.58257 1.2136,-1.45074 2.60345,-1.08417 2.135268,0.56311 4.529323,1.00904 7.077609,1.30276 -0.730662,-1.81116 -1.357374,-3.64619 -1.934249,-5.51801 -5.25192,0.14432 -6.36676,-1.93128 -8.16901,-3.63802 C 9.4654,167.03292 8.88959,165.71275 8.58725,164.042 Z"
       sodipodi:nodetypes="cccccccccccccccccsccccccsc"
       inkscape:label="cólon ascendente" />
    <ellipse
       style="fill:#75400b;fill-opacity:1;fill-rule:evenodd;stroke-width:0.264583"
       id="path1163"
       cx="7.7136178"
       cy="203.8605"
       rx="3.5839598"
       ry="3.5374146"
       inkscape:label="apêndice" />
    <path
       id="path4967"
       style="fill:#d97a28;fill-opacity:1;stroke:none;stroke-width:0.264583px;stroke-linecap:butt;stroke-linejoin:miter;stroke-opacity:1"
       d="m 22.258733,175.44289 c 0.13768,0.3224 0.27818,0.64383 0.42116,0.96428 -0.14296,-0.32059 -0.28352,-0.64173 -0.42116,-0.96428 z m -9.825762,0.45578 c -0.94616,0.035 -1.516065,0.69662 -1.886189,1.16996 0.219915,5.13952 0.561136,12.95632 2.216918,18.73322 1.091648,3.80873 1.53108,6.97158 1.699638,8.51783 -0.106512,2.62802 -0.810656,5.01755 -3.236495,6.71793 11.69404,1.24492 21.01093,-0.96712 29.03802,-4.66793 -0.0387,-0.20304 -0.078,-0.40975 -0.11679,-0.61288 l -0.22479,0.0114 c -2.88744,-0.22494 -3.48883,-2.01591 -3.93413,-3.4923 -0.47883,-1.44764 -0.62904,-3.40122 -0.16071,-5.01054 -8.65749,-6.75714 -12.86569,-13.19891 -15.600599,-19.97811 -2.548277,-0.29372 -4.942347,-0.73968 -7.077604,-1.30276 -0.260596,-0.0687 -0.498924,-0.0939 -0.717269,-0.0858 z m 23.921022,1.05937 c -4.39935,0.72104 -8.92122,0.87032 -13.14907,0.59635 2.88096,6.1114 6.90069,11.88532 13.90354,17.59375 0.29202,-0.24916 0.63,-0.45103 1.01855,-0.59324 -0.0331,-0.21163 -0.0669,-0.42222 -0.0992,-0.63511 -0.13091,-0.85075 -0.25503,-1.70441 -0.37259,-2.56056 -0.11757,-0.85616 -0.22832,-1.71488 -0.33228,-2.57762 -0.10396,-0.86274 -0.20135,-1.72935 -0.29145,-2.59984 -0.0901,-0.87054 -0.17318,-1.7451 -0.24908,-2.62465 -0.0759,-0.87955 -0.14469,-1.7638 -0.20619,-2.65359 -0.0615,-0.88974 -0.11547,-1.78543 -0.16227,-2.68665 -0.0217,-0.41817 -0.0414,-0.83803 -0.0599,-1.25884 z"
       inkscape:label="intestino delgado" />
    <path
       id="path11257"
       style="fill:#336793;fill-opacity:1;stroke:none;stroke-width:0.264583px;stroke-linecap:butt;stroke-linejoin:miter;stroke-opacity:1"
       d="m -8.77349,163.05501 c 0.0256,0.13661 0.0517,0.27311 0.077,0.4098 0.059,0.31904 0.11699,0.63815 0.17415,0.95756 0.0572,0.31941 0.11362,0.63883 0.16898,0.9586 0.0554,0.31976 0.1097,0.64005 0.1633,0.96015 0.0536,0.3201 0.10625,0.64024 0.15813,0.96066 0.0519,0.32042 0.10276,0.64097 0.15296,0.9617 0.0502,0.32073 0.0997,0.64171 0.14831,0.96273 0.0486,0.32102 0.0962,0.64195 0.14315,0.96325 0.047,0.3213 0.0936,0.64272 0.13901,0.96428 0.0454,0.32157 0.0899,0.6435 0.13384,0.96532 0.0439,0.32181 0.0872,0.64378 0.12971,0.96583 0.0383,0.29019 0.076,0.58038 0.11317,0.87075 1.83395,0.59356 3.51941,1.11214 5.48545,0.93741 -0.004,-0.0208 -0.008,-0.0417 -0.0119,-0.0625 -0.72603,-3.81692 -1.84383,-7.77913 0.65836,-10.4004 l 0.0413,-0.21756 c -2.82574,-0.19507 -5.41138,-0.59787 -7.87497,-1.15755 z m 7.90753,1.15962 c 0.25629,0.0175 0.51519,0.0326 0.77618,0.046 -0.26002,-0.0141 -0.52017,-0.0285 -0.77618,-0.046 z"
       inkscape:label="cotovelo" />
    <path
       id="path19939"
       style="fill:#667bb5;fill-opacity:1;stroke:none;stroke-width:0.264583px;stroke-linecap:butt;stroke-linejoin:miter;stroke-opacity:1"
       d="m -7.280037,172.41103 c 0.03038,0.22484 0.0654,0.44891 0.09508,0.67386 -0.02962,-0.22452 -0.06009,-0.44893 -0.09043,-0.67334 z m 0.09508,0.67386 c 0.16994,1.2882 0.328604,2.57817 0.476974,3.86953 0.14837,1.29137 0.28641,2.5842 0.415995,3.8778 0.129585,1.2936 0.250734,2.58807 0.364319,3.88297 0.113585,1.2949 0.219507,2.59028 0.319877,3.88555 0.100371,1.29527 0.194795,2.59033 0.284737,3.88503 0.179882,2.58941 0.341735,5.17666 0.496611,7.75819 0.154876,2.58149 0.303117,5.15738 0.455269,7.72356 l 0.109037,0.96324 c -0.05857,-0.5735 -0.109807,-1.14409 -0.145727,-1.70842 2.376017,0.8608 4.625816,1.61409 7.032129,2.22932 -2.210729,-2.72997 -2.278972,-5.43644 -2.000395,-8.29148 -0.482801,-8.89445 -0.542784,-17.84707 -2.210201,-26.26713 -1.966043,0.17473 -3.651501,-0.34385 -5.485453,-0.93741 -0.03713,-0.29037 -0.07489,-0.58056 -0.113172,-0.87075 z m 5.21777,-0.13074 c 0.06105,0.31263 0.123129,0.62532 0.185518,0.93844 -0.06215,-0.31296 -0.124475,-0.62587 -0.185518,-0.93844 z m 4.90771,36.87062 c 0.04112,0.0467 0.08264,0.0934 0.125057,0.14004 -0.04248,-0.0467 -0.08389,-0.0933 -0.125057,-0.14004 z m 0.257866,0.2837 c 0.04153,0.0443 0.08438,0.0885 0.127124,0.13281 -0.04275,-0.0443 -0.08559,-0.0885 -0.127124,-0.13281 z m 0.264583,0.27492 c 0.08676,0.0874 0.176592,0.17504 0.268201,0.26252 -0.09188,-0.0876 -0.181187,-0.17498 -0.268201,-0.26252 z m 0.333313,0.32349 c 0.07605,0.0717 0.15365,0.14369 0.233061,0.21549 -0.07935,-0.0717 -0.157042,-0.14385 -0.233061,-0.21549 z m 0.34985,0.3204 c 0.101452,0.0899 0.204714,0.17973 0.311609,0.26975 -0.106966,-0.0901 -0.210051,-0.1798 -0.311609,-0.26975 z m 0.639237,0.37724 c 0.04461,0.014 0.08918,0.028 0.133842,0.0413 -0.04465,-0.0132 -0.08925,-0.0275 -0.133842,-0.0413 z"
       inkscape:label="quadril" />
    <path
       id="path17314"
       style="fill:#ffaa96;fill-opacity:1;stroke:none;stroke-width:0.264583px;stroke-linecap:butt;stroke-linejoin:miter;stroke-opacity:1"
       d="m 41.117013,211.01281 c -13.82381,6.13971 -26.878872,6.19022 -37.00188,3.9734 -0.423281,5.45495 -3.242462,7.93103 -6.731372,8.43824 l 0.304891,2.68976 c 0.08509,0.19907 0.17188,0.39602 0.259415,0.5917 0.08754,0.19567 0.176198,0.38958 0.266134,0.58187 0.08994,0.19229 0.181075,0.38315 0.273368,0.57206 0.09229,0.18891 0.185481,0.37619 0.280087,0.56172 0.0946,0.18552 0.190448,0.36924 0.287321,0.55139 0.09687,0.18216 0.194943,0.3628 0.294038,0.54157 0.0991,0.17879 0.199478,0.35584 0.300757,0.53123 0.101278,0.1754 0.203543,0.34937 0.306958,0.52142 0.103416,0.17204 0.208167,0.34187 0.313676,0.51056 0.105507,0.16867 0.211804,0.33594 0.319361,0.50126 0.107554,0.16533 0.215999,0.32949 0.325561,0.49145 0.109562,0.16197 0.219723,0.32197 0.331246,0.48059 0.111522,0.15861 0.224524,0.31499 0.337964,0.47025 0.113441,0.15526 0.227821,0.30905 0.343131,0.46096 0.115313,0.15191 0.231674,0.30256 0.348816,0.45113 0.117143,0.14857 0.235057,0.29507 0.353984,0.44029 0.118927,0.14522 0.238482,0.28857 0.359151,0.43046 0.120669,0.14189 0.24247,0.28261 0.364836,0.42116 0.122367,0.13856 0.245466,0.27561 0.369486,0.41083 0.12402,0.13523 0.249026,0.26861 0.374654,0.40049 0.12563,0.1319 0.252111,0.26212 0.379305,0.39068 0.127196,0.12856 0.25524,0.2556 0.383956,0.38085 0.128717,0.12524 0.257896,0.2486 0.38809,0.37052 0.130195,0.12192 0.261113,0.24209 0.392741,0.3607 0.131629,0.11861 0.264375,0.2356 0.397392,0.35089 0.133019,0.1153 0.266129,0.22908 0.400492,0.34106 0.134365,0.11199 0.269479,0.22206 0.405143,0.33073 0.135666,0.10868 0.272353,0.21606 0.409278,0.32143 0.136925,0.10537 0.274239,0.20902 0.412378,0.31109 0.138138,0.10208 0.276686,0.20249 0.415995,0.30127 0.139309,0.0988 0.279177,0.19598 0.419613,0.29146 0.140432,0.0955 0.281712,0.18892 0.42323,0.28112 0.141515,0.0921 0.28326,0.18292 0.425813,0.27182 0.142556,0.0889 0.285881,0.17639 0.429432,0.262 0.143548,0.0856 0.287512,0.16934 0.432015,0.25166 0.144498,0.0823 0.289707,0.1633 0.435115,0.24236 0.145408,0.079 0.290911,0.15626 0.437183,0.23203 0.14627,0.0758 0.293192,0.1497 0.440283,0.22221 0.14709,0.0725 0.294484,0.14316 0.44235,0.21239 0.147865,0.0692 0.295821,0.13763 0.444418,0.2036 0.148593,0.0659 0.298236,0.13006 0.447517,0.19276 0.149283,0.0627 0.298626,0.12348 0.448552,0.18293 0.149926,0.0595 0.300093,0.11744 0.450618,0.17363 0.150525,0.0562 0.301605,0.11089 0.452686,0.16382 0.151081,0.0529 0.302127,0.10379 0.453719,0.15348 0.151592,0.0496 0.30321,0.0977 0.455269,0.14418 0.15206,0.0465 0.304337,0.0916 0.45682,0.13487 0.152483,0.0432 0.305507,0.0846 0.45837,0.12454 0.152862,0.0399 0.305688,0.078 0.458887,0.11472 0.153198,0.0367 0.30643,0.0719 0.45992,0.10542 0.153491,0.0335 0.307217,0.0654 0.460954,0.0956 0.153738,0.0303 0.307529,0.0588 0.46147,0.0858 0.153942,0.027 0.308402,0.0521 0.462504,0.076 0.154103,0.0238 0.30829,0.0462 0.462504,0.0667 0.154218,0.0205 0.308217,0.04 0.462504,0.0574 0.154289,0.0174 0.308703,0.0328 0.463021,0.047 0.154318,0.0141 0.308202,0.0268 0.462504,0.0377 0.154302,0.0109 0.309296,0.0197 0.463538,0.0274 0.154243,0.008 0.308378,0.0141 0.462508,0.0186 0.15414,0.005 0.30799,0.007 0.46198,0.009 0.15399,9.9e-4 0.30767,8.5e-4 0.46147,-10e-4 0.15381,-0.002 0.30739,-0.006 0.46096,-0.0103 0.15356,-0.005 0.30766,-0.0118 0.46095,-0.0202 0.15329,-0.008 0.30593,-0.0185 0.45889,-0.03 0.15296,-0.0115 0.30578,-0.0246 0.45837,-0.0393 0.1526,-0.0147 0.30515,-0.0313 0.45733,-0.0491 0.15218,-0.0179 0.30458,-0.0373 0.45631,-0.0584 0.15173,-0.0211 0.303,-0.0435 0.45423,-0.0677 0.15122,-0.0242 0.302,-0.0501 0.45269,-0.0775 0.15069,-0.0274 0.30102,-0.0566 0.45113,-0.0873 0.1501,-0.0306 0.30012,-0.0623 0.44959,-0.0961 0.14947,-0.0338 0.2982,-0.0695 0.447,-0.10645 0.14879,-0.0369 0.29738,-0.0752 0.44545,-0.11524 0.14808,-0.0401 0.29607,-0.0813 0.44338,-0.12454 0.14732,-0.0433 0.29378,-0.0885 0.44029,-0.13487 0.1465,-0.0465 0.29307,-0.0941 0.43873,-0.14367 0.14565,-0.0495 0.29035,-0.10075 0.43512,-0.15347 0.14476,-0.0527 0.28973,-0.10744 0.43356,-0.1633 0.14382,-0.0559 0.28658,-0.11359 0.42943,-0.1726 0.14284,-0.059 0.28555,-0.11923 0.42737,-0.18139 0.14182,-0.0622 0.28249,-0.1259 0.42323,-0.1912 0.14075,-0.0653 0.28153,-0.13258 0.42116,-0.20102 0.13963,-0.0684 0.27855,-0.13825 0.41703,-0.20981 0.13847,-0.0716 0.27613,-0.14492 0.41341,-0.21962 0.13727,-0.0747 0.27428,-0.15006 0.41031,-0.22789 0.13603,-0.0778 0.27144,-0.1578 0.40618,-0.23875 0.13473,-0.0809 0.26863,-0.16347 0.40204,-0.24753 0.1334,-0.0841 0.2664,-0.16964 0.39843,-0.25683 0.13202,-0.0872 0.26264,-0.17583 0.39325,-0.26613 0.1306,-0.0904 0.26051,-0.18254 0.38964,-0.27596 0.12915,-0.0934 0.25788,-0.18821 0.38551,-0.28473 0.12763,-0.0965 0.25427,-0.19441 0.38034,-0.29404 0.12608,-0.0996 0.25121,-0.20061 0.37569,-0.30334 0.12448,-0.10273 0.24871,-0.20732 0.37155,-0.31316 0.12284,-0.10583 0.24471,-0.21302 0.36587,-0.32195 0.12114,-0.10893 0.24127,-0.21975 0.3607,-0.33176 0.11941,-0.11202 0.23788,-0.22543 0.35553,-0.34055 0.11765,-0.11511 0.23505,-0.23165 0.35089,-0.34985 0.11584,-0.1182 0.23019,-0.23788 0.34416,-0.35915 0.11398,-0.12129 0.22746,-0.24408 0.33952,-0.36845 0.11207,-0.12436 0.22268,-0.25083 0.33279,-0.37827 0.11012,-0.12743 0.21951,-0.25602 0.32763,-0.38654 0.10813,-0.13051 0.21482,-0.26277 0.32091,-0.39636 0.10609,-0.13359 0.21173,-0.26848 0.31574,-0.40514 0.10401,-0.13665 0.20663,-0.27473 0.30851,-0.41445 0.10189,-0.13971 0.20311,-0.28096 0.30283,-0.42374 0.0997,-0.14279 0.19808,-0.28721 0.29559,-0.43305 0.0975,-0.14585 0.19413,-0.29294 0.28938,-0.44184 0.0953,-0.1489 0.18922,-0.29971 0.28216,-0.45165 0.093,-0.15195 0.18483,-0.30543 0.27543,-0.46044 0.0906,-0.15499 0.17999,-0.31169 0.2682,-0.46973 0.0882,-0.15805 0.17518,-0.31744 0.26097,-0.47853 0.0858,-0.16108 0.17041,-0.32318 0.25373,-0.48731 0.0834,-0.16412 0.1652,-0.33048 0.24598,-0.49764 0.0808,-0.16717 0.16052,-0.3357 0.23875,-0.50591 0.0783,-0.17019 0.15485,-0.34147 0.23047,-0.5147 0.0756,-0.17324 0.15027,-0.34826 0.22324,-0.52452 0.006,-0.0143 0.0117,-0.029 0.0176,-0.0434 l -0.53123,0.108 c 0.0216,-0.36889 0.0391,-0.73686 0.0532,-1.10329 0.0141,-0.36643 0.0245,-0.73136 0.0315,-1.09554 0.0138,-0.72837 0.014,-1.45231 0.001,-2.173 -0.013,-0.72068 -0.0392,-1.4381 -0.0765,-2.15284 -0.0373,-0.71473 -0.0857,-1.42684 -0.14469,-2.13733 -0.059,-0.71053 -0.12851,-1.41947 -0.20671,-2.12752 -0.0782,-0.70805 -0.16503,-1.41556 -0.25993,-2.12287 -0.0948,-0.70731 -0.19751,-1.41456 -0.30644,-2.12287 -0.10894,-0.70831 -0.22421,-1.41751 -0.34468,-2.12855 -0.0429,-0.25316 -0.0897,-0.50805 -0.13384,-0.76171 z"
       inkscape:label="glúteos"
       sodipodi:nodetypes="ccccssssssssssssssssssssssssssssssscssscssscscsscsccsscscsscsccccccsscssscscccccscsssscssscscssssssssssssssssssccssscscscccscsssscsscc" />
  </g>
</svg>
