<?xml version="1.0" encoding="UTF-8" standalone="no"?>
<!-- Created with Inkscape (http://www.inkscape.org/) -->

<svg
   width="76.060188mm"
   height="189.22928mm"
   viewBox="0 0 76.060188 189.22928"
   version="1.1"
   id="svg305"
   inkscape:version="1.2.2 (732a01da63, 2022-12-09)"
   sodipodi:docname="pe_direito.svg"
   xmlns:inkscape="http://www.inkscape.org/namespaces/inkscape"
   xmlns:sodipodi="http://sodipodi.sourceforge.net/DTD/sodipodi-0.dtd"
   xmlns="http://www.w3.org/2000/svg"
   xmlns:svg="http://www.w3.org/2000/svg">
  <sodipodi:namedview
     id="namedview307"
     pagecolor="#505050"
     bordercolor="#eeeeee"
     borderopacity="1"
     inkscape:showpageshadow="0"
     inkscape:pageopacity="0"
     inkscape:pagecheckerboard="0"
     inkscape:deskcolor="#505050"
     inkscape:document-units="mm"
     showgrid="false"
     inkscape:zoom="0.5946522"
     inkscape:cx="184.14125"
     inkscape:cy="326.24112"
     inkscape:window-width="1366"
     inkscape:window-height="745"
     inkscape:window-x="-8"
     inkscape:window-y="-8"
     inkscape:window-maximized="1"
     inkscape:current-layer="layer1" />
  <defs
     id="defs302" />
  <g
     inkscape:label="Layer 1"
     inkscape:groupmode="layer"
     id="layer1"
     transform="translate(17.894501,-55.143838)">
    <path
       id="path311"
       style="fill:#326497;fill-rule:evenodd;stroke:none;stroke-width:0.264583;stroke-dasharray:none;paint-order:stroke fill markers;stop-color:#000000;fill-opacity:1"
       inkscape:label="vertebra_lombar"
       d="m 58.031249,73.99265 -0.51676,-0.13539 c -0.002,0.22773 -0.009,0.45341 -0.0207,0.67696 -0.0117,0.22355 -0.0283,0.44477 -0.0496,0.66456 -0.0213,0.21979 -0.047,0.43776 -0.0775,0.65422 -0.0305,0.21646 -0.066,0.43136 -0.10542,0.64492 -0.0395,0.21356 -0.0832,0.42609 -0.13126,0.63717 -0.048,0.21108 -0.10027,0.4209 -0.15657,0.62994 -0.0563,0.20903 -0.11663,0.41735 -0.18087,0.62477 -0.0642,0.20741 -0.13228,0.41388 -0.20412,0.62011 -0.0719,0.20623 -0.14722,0.41207 -0.22635,0.61754 -0.0791,0.20546 -0.16197,0.41085 -0.24804,0.61598 -0.17216,0.41027 -0.35804,0.81995 -0.55604,1.23145 -0.19801,0.4115 -0.40819,0.82459 -0.62942,1.24075 -0.22123,0.41616 -0.4532,0.83563 -0.69505,1.25987 -0.24184,0.42424 -0.4936,0.85306 -0.75344,1.28881 -0.25984,0.43575 -0.52784,0.87844 -0.80305,1.32912 -0.55044,0.90136 -1.12923,1.83576 -1.72548,2.8174 -0.29812,0.49082 -0.60075,0.99344 -0.9064,1.50947 -0.30565,0.51602 -0.61445,1.04543 -0.92501,1.59008 -0.31056,0.54466 -0.62249,1.10484 -0.93535,1.68155 -0.31285,0.57671 -0.62643,1.17013 -0.93896,1.78232 -0.0257,0.6575 -0.0424,1.31493 -0.0512,1.97146 -0.009,0.65652 -0.009,1.31224 -0.004,1.9668 0.006,0.65457 0.0176,1.30795 0.0351,1.95957 0.0175,0.65163 0.0403,1.30154 0.0672,1.94924 0.0537,1.29539 0.12348,2.58181 0.19895,3.85558 0.0755,1.27377 0.15687,2.53483 0.23358,3.77909 0.0767,1.24426 0.14878,2.47146 0.20619,3.67833 0.0287,0.60344 0.0539,1.20212 0.0739,1.79472 0.02,0.59261 0.0351,1.17931 0.0439,1.7601 0.009,0.5808 0.0112,1.15541 0.006,1.72341 -0.005,0.568 -0.0179,1.12941 -0.0393,1.68362 -0.0214,0.55422 -0.0516,1.10128 -0.092,1.64073 -0.0404,0.53945 -0.0906,1.07156 -0.15244,1.59525 -0.50522,0.96202 -1.01048,1.9239 -1.51206,2.88665 -0.50158,0.96274 -0.99954,1.92598 -1.49086,2.89077 -0.49133,0.9648 -0.97558,1.9314 -1.45004,2.89957 -0.47446,0.96817 -0.93912,1.93806 -1.3901,2.91093 -0.22549,0.48644 -0.44773,0.97356 -0.66611,1.46141 -0.21838,0.48786 -0.43293,0.97662 -0.64337,1.46606 -0.21044,0.48945 -0.41637,0.97952 -0.61805,1.47071 -0.20168,0.4912 -0.39909,0.98329 -0.59118,1.4764 -0.19209,0.49311 -0.37901,0.9874 -0.56069,1.4826 -0.18167,0.49519 -0.35822,0.99135 -0.52865,1.48879 -0.17043,0.49745 -0.33463,0.99618 -0.49299,1.49604 -0.15836,0.49986 -0.31084,1.00083 -0.4563,1.50326 -0.11507,1.08258 -0.22119,2.15324 -0.31885,3.21221 -0.0977,1.05897 -0.18665,2.10638 -0.26716,3.14296 -0.0805,1.03658 -0.15236,2.06245 -0.21601,3.07785 -0.0636,1.0154 -0.11934,2.02039 -0.1664,3.01584 -0.047,0.99544 -0.0855,1.98126 -0.11627,2.95796 -0.0307,0.9767 -0.0535,1.944 -0.0682,2.90318 -0.0147,0.95917 -0.0213,1.91019 -0.0202,2.85305 0.001,0.94287 0.01,1.87775 0.0264,2.80552 0.0166,0.92777 0.041,1.84821 0.0729,2.7621 0.0319,0.91389 0.0715,1.82109 0.11834,2.72232 0.0468,0.90122 0.10076,1.79687 0.16226,2.68665 0.0615,0.88979 0.13026,1.77404 0.20619,2.65359 0.0759,0.87955 0.159,1.75411 0.24908,2.62465 0.0901,0.87053 0.1875,1.7371 0.29146,2.59984 0.10396,0.86274 0.21471,1.72146 0.33228,2.57762 0.11756,0.85615 0.24168,1.70977 0.37259,2.56056 0.12088,0.79538 0.24695,1.58182 0.37672,2.36058 0.12976,0.77877 0.26336,1.54968 0.39946,2.31356 0.27218,1.52776 0.55446,3.02753 0.83664,4.50618 0.28218,1.47865 0.56435,2.93616 0.83612,4.37958 0.13589,0.72171 0.26897,1.43992 0.39843,2.15542 0.12945,0.71551 0.25521,1.42837 0.37568,2.13941 0.12047,0.71104 0.23575,1.42024 0.34469,2.12855 0.10893,0.70831 0.21159,1.41556 0.30644,2.12287 0.0949,0.70731 0.18172,1.41482 0.25993,2.12287 0.0782,0.70805 0.14768,1.41699 0.20671,2.12752 0.059,0.71052 0.10741,1.4226 0.14469,2.13733 0.0373,0.71474 0.0635,1.43216 0.0765,2.15284 0.013,0.72069 0.0128,1.44463 -0.001,2.173 -0.007,0.36418 -0.0174,0.72911 -0.0315,1.09554 -0.0141,0.36643 -0.0316,0.7344 -0.0532,1.10329 l 0.72657,-0.1478 c 0.76251,-1.88936 1.37737,-3.94472 1.81177,-6.17223 l -2.60656,-27.64792 c -1.99311,-9.56513 -5.18846,-36.46133 5.11959,-57.06422 4.30959,-6.58478 5.51874,-13.38231 5.21312,-19.54868 -0.0956,-9.17189 -2.63236,-17.77487 -0.46561,-24.66878 4.59713,-7.03643 5.79403,-12.45049 5.72575,-19.6975 z" />
    <path
       id="path454"
       style="fill:none;fill-rule:evenodd;stroke:#000000;stroke-width:0.264583;stroke-dasharray:none;paint-order:stroke fill markers;stop-color:#000000"
       inkscape:label="contorno"
       d="m 24.706149,55.27648 c -3.35341,0.0337 -6.481839,2.48209 -7.476026,5.67924 -0.404738,4.95433 0.387214,10.29045 1.119312,15.7117 0.522015,3.86559 1.036696,7.14052 0.657841,10.09137 -0.540248,0.40202 -1.152281,0.55356 -2.040702,-0.26303 C 17.602856,79.76689 17.743483,73.39343 16.439991,67.80129 11.908569,60.35522 6.411629,64.62219 4.591618,68.32788 2.752537,73.68159 6.507716,84.8278 7.751115,93.07779 7.193509,94.21845 6.551254,94.63943 5.644784,92.81475 6.440213,87.59566 4.464678,77.59318 3.274903,77.01675 1.67334,74.38974 -5.195228,73.06713 -6.730171,79.18923 c -0.64445,7.80727 1.527333,13.92489 3.423047,20.20807 0.800838,2.08163 -0.758236,4.31492 -1.843299,1.3162 -0.381974,-5.72961 -1.245913,-13.42956 -3.159497,-14.21774 -3.289688,-1.37866 -6.099964,-0.63426 -8.162292,3.42253 -0.181317,2.75788 -0.560732,5.28498 0.263033,9.21546 0.894245,3.18566 1.452629,6.09013 0.26355,8.95242 -4.490646,13.15333 0.472202,29.90284 2.896464,38.37544 6.382723,19.83766 7.330579,40.97795 8.547798,61.50736 l 2.070158,18.28105 c 10.046584,23.54546 37.187438,23.54643 45.664398,2.54196 l -0.72657,0.1478 c 0.0216,-0.36889 0.0391,-0.73686 0.0532,-1.10329 0.0141,-0.36643 0.0246,-0.73136 0.0315,-1.09554 0.0139,-0.72837 0.014,-1.45231 0.001,-2.173 -0.013,-0.72068 -0.0392,-1.4381 -0.0765,-2.15284 -0.0373,-0.71473 -0.0857,-1.42681 -0.14469,-2.13733 -0.059,-0.71053 -0.1285,-1.41947 -0.20671,-2.12752 -0.0782,-0.70805 -0.16508,-1.41556 -0.25993,-2.12287 -0.0948,-0.70731 -0.19751,-1.41456 -0.30644,-2.12287 -0.10894,-0.70831 -0.22422,-1.41751 -0.34469,-2.12855 -0.12047,-0.71104 -0.24623,-1.4239 -0.37568,-2.13941 -0.12946,-0.7155 -0.26254,-1.43371 -0.39843,-2.15542 -0.27177,-1.44342 -0.55394,-2.90093 -0.83612,-4.37958 -0.28218,-1.47865 -0.56446,-2.97842 -0.83664,-4.50618 -0.1361,-0.76388 -0.2697,-1.53479 -0.39946,-2.31356 -0.12977,-0.77876 -0.25584,-1.5652 -0.37672,-2.36058 -0.13091,-0.85079 -0.25503,-1.70441 -0.37259,-2.56056 -0.11757,-0.85616 -0.22832,-1.71488 -0.33228,-2.57762 -0.10396,-0.86274 -0.20138,-1.72931 -0.29146,-2.59984 -0.0901,-0.87054 -0.17315,-1.7451 -0.24908,-2.62465 -0.0759,-0.87955 -0.14468,-1.7638 -0.20619,-2.65359 -0.0615,-0.88978 -0.11545,-1.78543 -0.16226,-2.68665 -0.0468,-0.90123 -0.0865,-1.80843 -0.11834,-2.72232 -0.0318,-0.91389 -0.0562,-1.83433 -0.0729,-2.7621 -0.0166,-0.92777 -0.0253,-1.86265 -0.0264,-2.80552 -10e-4,-0.94286 0.005,-1.89388 0.0202,-2.85305 0.0147,-0.95918 0.0375,-1.92648 0.0682,-2.90318 0.0307,-0.9767 0.0692,-1.96252 0.11627,-2.95796 0.0471,-0.99545 0.10275,-2.00044 0.1664,-3.01584 0.0636,-1.0154 0.13549,-2.04127 0.21601,-3.07785 0.0805,-1.03658 0.16951,-2.08399 0.26716,-3.14296 0.0977,-1.05897 0.20378,-2.12963 0.31885,-3.21221 0.14546,-0.50243 0.29794,-1.0034 0.4563,-1.50326 0.15836,-0.49986 0.32256,-0.99859 0.49299,-1.49604 0.17043,-0.49744 0.34698,-0.9936 0.52865,-1.48879 0.18168,-0.4952 0.3686,-0.98949 0.56069,-1.4826 0.19209,-0.49311 0.3895,-0.9852 0.59118,-1.4764 0.20168,-0.49119 0.40761,-0.98126 0.61805,-1.47071 0.21044,-0.48944 0.42499,-0.9782 0.64337,-1.46606 0.21838,-0.48785 0.44062,-0.97497 0.66611,-1.46141 0.45098,-0.97287 0.91564,-1.94276 1.3901,-2.91093 0.47446,-0.96817 0.95871,-1.93477 1.45004,-2.89957 0.49132,-0.96479 0.98928,-1.92803 1.49086,-2.89077 0.50158,-0.96275 1.00684,-1.92463 1.51206,-2.88665 0.0618,-0.52369 0.11209,-1.0558 0.15244,-1.59525 0.0404,-0.53945 0.0706,-1.08651 0.092,-1.64073 0.0214,-0.55421 0.0342,-1.11562 0.0393,-1.68362 0.005,-0.568 0.003,-1.14261 -0.006,-1.72341 -0.009,-0.58079 -0.0239,-1.16749 -0.0439,-1.7601 -0.02,-0.5926 -0.0452,-1.19128 -0.0739,-1.79472 -0.0574,-1.20687 -0.12949,-2.43407 -0.20619,-3.67833 -0.0767,-1.24426 -0.15811,-2.50532 -0.23358,-3.77909 -0.0755,-1.27377 -0.14526,-2.56019 -0.19895,-3.85558 -0.0269,-0.6477 -0.0496,-1.29761 -0.0672,-1.94924 -0.0176,-0.65162 -0.0294,-1.305 -0.0351,-1.95957 -0.006,-0.65456 -0.005,-1.31028 0.004,-1.9668 0.009,-0.65653 0.0254,-1.31396 0.0512,-1.97146 0.31253,-0.61219 0.62611,-1.20561 0.93896,-1.78232 0.31286,-0.57671 0.62479,-1.13689 0.93535,-1.68155 0.31056,-0.54465 0.61936,-1.07406 0.92501,-1.59008 0.30565,-0.51603 0.60828,-1.01865 0.9064,-1.50947 0.59625,-0.98164 1.17504,-1.91604 1.72548,-2.8174 0.27521,-0.45068 0.54321,-0.89337 0.80305,-1.32912 0.25984,-0.43575 0.5116,-0.86457 0.75344,-1.28881 0.24185,-0.42424 0.47382,-0.84371 0.69505,-1.25987 0.22123,-0.41616 0.43141,-0.82925 0.62942,-1.24075 0.198,-0.4115 0.38388,-0.82118 0.55604,-1.23145 0.0861,-0.20513 0.16892,-0.41052 0.24804,-0.61598 0.0791,-0.20547 0.1545,-0.41131 0.22635,-0.61754 0.0718,-0.20623 0.13988,-0.4127 0.20412,-0.62011 0.0642,-0.20742 0.12456,-0.41574 0.18087,-0.62477 0.0563,-0.20904 0.10853,-0.41886 0.15657,-0.62994 0.048,-0.21108 0.0918,-0.42361 0.13126,-0.63717 0.0395,-0.21356 0.0749,-0.42846 0.10542,-0.64492 0.0306,-0.21646 0.0562,-0.43443 0.0775,-0.65422 0.0213,-0.21979 0.0379,-0.44101 0.0496,-0.66456 0.0117,-0.22355 0.0188,-0.44923 0.0207,-0.67696 l 0.51676,0.13539 c -0.006,-0.68002 -0.02,-1.3704 -0.047,-2.08566 -1.98026,-9.49236 -8.06922,-16.5778 -17.59376,-15.08022 -5.24756,0.82536 -7.12021,5.88359 -8.16488,12.88965 -1.74993,6.64041 -1.12524,14.24541 -0.98082,20.62252 -1.14571,1.11072 -1.08152,0.94018 -2.16627,0.10593 -0.14414,-4.03723 0.19048,-8.07417 0.78961,-12.1114 0.50443,-5.00352 4.17352,-14.58144 2.17248,-17.97048 -1.98189,-3.67845 -4.72622,-5.11274 -7.33444,-5.08651 z" />
  </g>
</svg>
