<?xml version="1.0" encoding="UTF-8" standalone="no"?>
<!-- Created with Inkscape (http://www.inkscape.org/) -->

<svg
   width="76.060188mm"
   height="189.22928mm"
   viewBox="0 0 76.060188 189.22928"
   version="1.1"
   id="svg305"
   inkscape:version="1.2.2 (732a01da63, 2022-12-09)"
   sodipodi:docname="pe_direito.svg"
   xmlns:inkscape="http://www.inkscape.org/namespaces/inkscape"
   xmlns:sodipodi="http://sodipodi.sourceforge.net/DTD/sodipodi-0.dtd"
   xmlns="http://www.w3.org/2000/svg"
   xmlns:svg="http://www.w3.org/2000/svg">
  <sodipodi:namedview
     id="namedview307"
     pagecolor="#505050"
     bordercolor="#eeeeee"
     borderopacity="1"
     inkscape:showpageshadow="0"
     inkscape:pageopacity="0"
     inkscape:pagecheckerboard="0"
     inkscape:deskcolor="#505050"
     inkscape:document-units="mm"
     showgrid="false"
     inkscape:zoom="0.5946522"
     inkscape:cx="190.86787"
     inkscape:cy="327.08195"
     inkscape:window-width="1366"
     inkscape:window-height="768"
     inkscape:window-x="0"
     inkscape:window-y="0"
     inkscape:window-maximized="1"
     inkscape:current-layer="layer1" />
  <defs
     id="defs302" />
  <g
     inkscape:label="pe_direito"
     inkscape:groupmode="layer"
     id="layer1"
     transform="translate(17.894501,-55.143838)">
    <path
       id="path454"
       style="fill:none;fill-rule:evenodd;stroke:#000000;stroke-width:0.264583;stroke-dasharray:none;paint-order:stroke fill markers;stop-color:#000000"
       inkscape:label="contorno"
       d="m 24.706182,55.276482 c -3.35341,0.0337 -6.481839,2.48209 -7.476026,5.67924 -0.404738,4.95433 0.387214,10.29045 1.119312,15.7117 0.522015,3.86559 1.036696,7.14052 0.657841,10.09137 -0.540248,0.40202 -1.152281,0.55356 -2.040702,-0.26303 0.636282,-6.72887 0.776909,-13.10233 -0.526583,-18.69447 -4.531422,-7.44607 -10.0283624,-3.1791 -11.8483734,0.52659 -1.839081,5.35371 1.916098,16.49992 3.159497,24.74991 -0.557606,1.14066 -1.199861,1.56164 -2.106331,-0.26304 0.795429,-5.21909 -1.180106,-15.22157 -2.369881,-15.798 -1.601563,-2.62701 -8.470131,-3.94962 -10.005074,2.17248 -0.64445,7.80727 1.527333,13.92489 3.423047,20.20807 0.800838,2.081628 -0.758236,4.314918 -1.843299,1.316198 -0.381974,-5.729608 -1.245913,-13.429558 -3.159497,-14.217738 -3.2896876,-1.37866 -6.0999636,-0.63426 -8.1622916,3.42253 -0.181317,2.75788 -0.560732,5.28498 0.263033,9.21546 0.894245,3.185658 1.452629,6.090128 0.26355,8.952418 -4.490646,13.15333 0.472202,29.90284 2.896464,38.37544 6.3827226,19.83766 7.3305786,40.97795 8.5477976,61.50736 l 2.070158,18.28105 c 10.046584,23.54546 37.1874384,23.54643 45.6643984,2.54196 l -0.72657,0.1478 c 0.0216,-0.36889 0.0391,-0.73686 0.0532,-1.10329 0.0141,-0.36643 0.0246,-0.73136 0.0315,-1.09554 0.0139,-0.72837 0.014,-1.45231 10e-4,-2.173 -0.013,-0.72068 -0.0392,-1.4381 -0.0765,-2.15284 -0.0373,-0.71473 -0.0857,-1.42681 -0.14469,-2.13733 -0.059,-0.71053 -0.1285,-1.41947 -0.20671,-2.12752 -0.0782,-0.70805 -0.16508,-1.41556 -0.25993,-2.12287 -0.0948,-0.70731 -0.19751,-1.41456 -0.30644,-2.12287 -0.10894,-0.70831 -0.22422,-1.41751 -0.34469,-2.12855 -0.12047,-0.71104 -0.24623,-1.4239 -0.37568,-2.13941 -0.12946,-0.7155 -0.26254,-1.43371 -0.39843,-2.15542 -0.27177,-1.44342 -0.55394,-2.90093 -0.83612,-4.37958 -0.28218,-1.47865 -0.56446,-2.97842 -0.83664,-4.50618 -0.1361,-0.76388 -0.2697,-1.53479 -0.39946,-2.31356 -0.12977,-0.77876 -0.25584,-1.5652 -0.37672,-2.36058 -0.13091,-0.85079 -0.25503,-1.70441 -0.37259,-2.56056 -0.11757,-0.85616 -0.22832,-1.71488 -0.33228,-2.57762 -0.10396,-0.86274 -0.20138,-1.72931 -0.29146,-2.59984 -0.0901,-0.87054 -0.17315,-1.7451 -0.24908,-2.62465 -0.0759,-0.87955 -0.14468,-1.7638 -0.20619,-2.65359 -0.0615,-0.88978 -0.11545,-1.78543 -0.16226,-2.68665 -0.0468,-0.90123 -0.0865,-1.80843 -0.11834,-2.72232 -0.0318,-0.91389 -0.0562,-1.83433 -0.0729,-2.7621 -0.0166,-0.92777 -0.0253,-1.86265 -0.0264,-2.80552 -10e-4,-0.94286 0.005,-1.89388 0.0202,-2.85305 0.0147,-0.95918 0.0375,-1.92648 0.0682,-2.90318 0.0307,-0.9767 0.0692,-1.96252 0.11627,-2.95796 0.0471,-0.99545 0.10275,-2.00044 0.1664,-3.01584 0.0636,-1.0154 0.13549,-2.04127 0.21601,-3.07785 0.0805,-1.03658 0.16951,-2.08399 0.26716,-3.14296 0.0977,-1.05897 0.20378,-2.12963 0.31885,-3.21221 0.14546,-0.50243 0.29794,-1.0034 0.4563,-1.50326 0.15836,-0.49986 0.32256,-0.99859 0.49299,-1.49604 0.17043,-0.49744 0.34698,-0.9936 0.52865,-1.48879 0.18168,-0.4952 0.3686,-0.98949 0.56069,-1.4826 0.19209,-0.49311 0.3895,-0.9852 0.59118,-1.4764 0.20168,-0.49119 0.40761,-0.98126 0.61805,-1.47071 0.21044,-0.48944 0.42499,-0.9782 0.64337,-1.46606 0.21838,-0.48785 0.44062,-0.97497 0.66611,-1.46141 0.45098,-0.97287 0.91564,-1.94276 1.3901,-2.91093 0.47446,-0.96817 0.95871,-1.93477 1.45004,-2.89957 0.49132,-0.96479 0.98928,-1.92803 1.49086,-2.89077 0.50158,-0.96275 1.00684,-1.92463 1.51206,-2.88665 0.0618,-0.52369 0.11209,-1.0558 0.15244,-1.59525 0.0404,-0.53945 0.0706,-1.08651 0.092,-1.64073 0.0214,-0.55421 0.0342,-1.11562 0.0393,-1.68362 0.005,-0.568 0.003,-1.14261 -0.006,-1.72341 -0.009,-0.58079 -0.0239,-1.16749 -0.0439,-1.7601 -0.02,-0.5926 -0.0452,-1.19128 -0.0739,-1.79472 -0.0574,-1.20687 -0.12949,-2.43407 -0.20619,-3.67833 -0.0767,-1.24426 -0.15811,-2.50532 -0.23358,-3.77909 -0.0755,-1.27377 -0.14526,-2.56019 -0.19895,-3.85558 -0.0269,-0.6477 -0.0496,-1.29761 -0.0672,-1.94924 -0.0176,-0.65162 -0.0294,-1.305 -0.0351,-1.959568 -0.006,-0.65456 -0.005,-1.31028 0.004,-1.9668 0.009,-0.65653 0.0254,-1.31396 0.0512,-1.97146 0.31253,-0.61219 0.62611,-1.20561 0.93896,-1.78232 0.31286,-0.57671 0.62479,-1.13689 0.93535,-1.68155 0.31056,-0.54465 0.61936,-1.07406 0.92501,-1.59008 0.30565,-0.51603 0.60828,-1.01865 0.9064,-1.50947 0.59625,-0.98164 1.17504,-1.91604 1.72548,-2.8174 0.27521,-0.45068 0.54321,-0.89337 0.80305,-1.32912 0.25984,-0.43575 0.5116,-0.86457 0.75344,-1.28881 0.24185,-0.42424 0.47382,-0.84371 0.69505,-1.25987 0.22123,-0.41616 0.43141,-0.82925 0.62942,-1.24075 0.198,-0.4115 0.38388,-0.82118 0.55604,-1.23145 0.0861,-0.20513 0.16892,-0.41052 0.24804,-0.61598 0.0791,-0.20547 0.1545,-0.41131 0.22635,-0.61754 0.0718,-0.20623 0.13988,-0.4127 0.20412,-0.62011 0.0642,-0.20742 0.12456,-0.41574 0.18087,-0.62477 0.0563,-0.20904 0.10853,-0.41886 0.15657,-0.62994 0.048,-0.21108 0.0918,-0.42361 0.13126,-0.63717 0.0395,-0.21356 0.0749,-0.42846 0.10542,-0.64492 0.0306,-0.21646 0.0562,-0.43443 0.0775,-0.65422 0.0213,-0.21979 0.0379,-0.44101 0.0496,-0.66456 0.0117,-0.22355 0.0188,-0.44923 0.0207,-0.67696 l 0.51676,0.13539 c -0.006,-0.68002 -0.02,-1.3704 -0.047,-2.08566 -1.98026,-9.49236 -8.06922,-16.5778 -17.59376,-15.08022 -5.24756,0.82536 -7.12021,5.88359 -8.16488,12.88965 -1.74993,6.64041 -1.12524,14.24541 -0.98082,20.62252 -1.14571,1.11072 -1.08152,0.94018 -2.16627,0.10593 -0.14414,-4.03723 0.19048,-8.07417 0.78961,-12.1114 0.50443,-5.00352 4.17352,-14.58144 2.17248,-17.97048 -1.98189,-3.67845 -4.72622,-5.11274 -7.33444,-5.08651 z" />
    <path
       id="path311"
       style="fill:#326497;fill-rule:evenodd;stroke:none;stroke-width:0.264583;stroke-dasharray:none;paint-order:stroke fill markers;stop-color:#000000;fill-opacity:1"
       inkscape:label="vertebra_lombar"
       d="m 58.031249,73.99265 -0.51676,-0.13539 c -0.002,0.22773 -0.009,0.45341 -0.0207,0.67696 -0.0117,0.22355 -0.0283,0.44477 -0.0496,0.66456 -0.0213,0.21979 -0.047,0.43776 -0.0775,0.65422 -0.0305,0.21646 -0.066,0.43136 -0.10542,0.64492 -0.0395,0.21356 -0.0832,0.42609 -0.13126,0.63717 -0.048,0.21108 -0.10027,0.4209 -0.15657,0.62994 -0.0563,0.20903 -0.11663,0.41735 -0.18087,0.62477 -0.0642,0.20741 -0.13228,0.41388 -0.20412,0.62011 -0.0719,0.20623 -0.14722,0.41207 -0.22635,0.61754 -0.0791,0.20546 -0.16197,0.41085 -0.24804,0.61598 -0.17216,0.41027 -0.35804,0.81995 -0.55604,1.23145 -0.19801,0.4115 -0.40819,0.82459 -0.62942,1.24075 -0.22123,0.41616 -0.4532,0.83563 -0.69505,1.25987 -0.24184,0.42424 -0.4936,0.85306 -0.75344,1.28881 -0.25984,0.43575 -0.52784,0.87844 -0.80305,1.32912 -0.55044,0.90136 -1.12923,1.83576 -1.72548,2.8174 -0.29812,0.49082 -0.60075,0.99344 -0.9064,1.50947 -0.30565,0.51602 -0.61445,1.04543 -0.92501,1.59008 -0.31056,0.54466 -0.62249,1.10484 -0.93535,1.68155 -0.31285,0.57671 -0.62643,1.17013 -0.93896,1.78232 -0.0257,0.6575 -0.0424,1.31493 -0.0512,1.97146 -0.009,0.65652 -0.009,1.31224 -0.004,1.9668 0.006,0.65457 0.0176,1.30795 0.0351,1.95957 0.0175,0.65163 0.0403,1.30154 0.0672,1.94924 0.0537,1.29539 0.12348,2.58181 0.19895,3.85558 0.0755,1.27377 0.15687,2.53483 0.23358,3.77909 0.0767,1.24426 0.14878,2.47146 0.20619,3.67833 0.0287,0.60344 0.0539,1.20212 0.0739,1.79472 0.02,0.59261 0.0351,1.17931 0.0439,1.7601 0.009,0.5808 0.0112,1.15541 0.006,1.72341 -0.005,0.568 -0.0179,1.12941 -0.0393,1.68362 -0.0214,0.55422 -0.0516,1.10128 -0.092,1.64073 -0.0404,0.53945 -0.0906,1.07156 -0.15244,1.59525 -0.50522,0.96202 -1.01048,1.9239 -1.51206,2.88665 -0.50158,0.96274 -0.99954,1.92598 -1.49086,2.89077 -0.49133,0.9648 -0.97558,1.9314 -1.45004,2.89957 -0.47446,0.96817 -0.93912,1.93806 -1.3901,2.91093 -0.22549,0.48644 -0.44773,0.97356 -0.66611,1.46141 -0.21838,0.48786 -0.43293,0.97662 -0.64337,1.46606 -0.21044,0.48945 -0.41637,0.97952 -0.61805,1.47071 -0.20168,0.4912 -0.39909,0.98329 -0.59118,1.4764 -0.19209,0.49311 -0.37901,0.9874 -0.56069,1.4826 -0.18167,0.49519 -0.35822,0.99135 -0.52865,1.48879 -0.17043,0.49745 -0.33463,0.99618 -0.49299,1.49604 -0.15836,0.49986 -0.31084,1.00083 -0.4563,1.50326 -0.11507,1.08258 -0.22119,2.15324 -0.31885,3.21221 -0.0977,1.05897 -0.18665,2.10638 -0.26716,3.14296 -0.0805,1.03658 -0.15236,2.06245 -0.21601,3.07785 -0.0636,1.0154 -0.11934,2.02039 -0.1664,3.01584 -0.047,0.99544 -0.0855,1.98126 -0.11627,2.95796 -0.0307,0.9767 -0.0535,1.944 -0.0682,2.90318 -0.0147,0.95917 -0.0213,1.91019 -0.0202,2.85305 0.001,0.94287 0.01,1.87775 0.0264,2.80552 0.0166,0.92777 0.041,1.84821 0.0729,2.7621 0.0319,0.91389 0.0715,1.82109 0.11834,2.72232 0.0468,0.90122 0.10076,1.79687 0.16226,2.68665 0.0615,0.88979 0.13026,1.77404 0.20619,2.65359 0.0759,0.87955 0.159,1.75411 0.24908,2.62465 0.0901,0.87053 0.1875,1.7371 0.29146,2.59984 0.10396,0.86274 0.21471,1.72146 0.33228,2.57762 0.11756,0.85615 0.24168,1.70977 0.37259,2.56056 0.12088,0.79538 0.24695,1.58182 0.37672,2.36058 0.12976,0.77877 0.26336,1.54968 0.39946,2.31356 0.27218,1.52776 0.55446,3.02753 0.83664,4.50618 0.28218,1.47865 0.56435,2.93616 0.83612,4.37958 0.13589,0.72171 0.26897,1.43992 0.39843,2.15542 0.12945,0.71551 0.25521,1.42837 0.37568,2.13941 0.12047,0.71104 0.23575,1.42024 0.34469,2.12855 0.10893,0.70831 0.21159,1.41556 0.30644,2.12287 0.0949,0.70731 0.18172,1.41482 0.25993,2.12287 0.0782,0.70805 0.14768,1.41699 0.20671,2.12752 0.059,0.71052 0.10741,1.4226 0.14469,2.13733 0.0373,0.71474 0.0635,1.43216 0.0765,2.15284 0.013,0.72069 0.0128,1.44463 -0.001,2.173 -0.007,0.36418 -0.0174,0.72911 -0.0315,1.09554 -0.0141,0.36643 -0.0316,0.7344 -0.0532,1.10329 l 0.72657,-0.1478 c 0.76251,-1.88936 1.37737,-3.94472 1.81177,-6.17223 l -2.60656,-27.64792 c -1.99311,-9.56513 -5.18846,-36.46133 5.11959,-57.06422 4.30959,-6.58478 5.51874,-13.38231 5.21312,-19.54868 -0.0956,-9.17189 -2.63236,-17.77487 -0.46561,-24.66878 4.59713,-7.03643 5.79403,-12.45049 5.72575,-19.6975 z" />
    <ellipse
       style="display:inline;fill:#eeafc6;fill-opacity:1;fill-rule:evenodd;stroke-width:0.264583"
       id="path352"
       cx="87.112907"
       cy="119.71992"
       rx="3.8688481"
       ry="3.6232071"
       inkscape:label="glândula pituitária"
       transform="translate(-40.459446,-50.272959)" />
    <g
       id="g5602"
       style="display:inline"
       transform="translate(-79.139216,-72.010866)"
       inkscape:label="cabeça">
      <path
         id="path960"
         style="font-variation-settings:normal;opacity:1;vector-effect:none;fill:#f8a9c6;fill-opacity:1;fill-rule:evenodd;stroke:#000000;stroke-width:0.264583;stroke-linecap:butt;stroke-linejoin:miter;stroke-miterlimit:4;stroke-dasharray:none;stroke-dashoffset:0;stroke-opacity:1;-inkscape-stroke:none;paint-order:stroke fill markers;stop-color:#000000;stop-opacity:1"
         d="m 73.471484,167.12778 c -0.04877,-0.40561 -0.09305,-0.81717 -0.147794,-1.21336 -0.10291,-0.74479 -0.216883,-1.46791 -0.342615,-2.15284 -0.06287,-0.34246 -0.128416,-0.67533 -0.197404,-0.99632 -0.06899,-0.32099 -0.141138,-0.63034 -0.216524,-0.92553 -0.07539,-0.29518 -0.154099,-0.57625 -0.236161,-0.84129 -0.08206,-0.26504 -0.167301,-0.5141 -0.256316,-0.74466 -0.08902,-0.23055 -0.181774,-0.44284 -0.278019,-0.63458 -0.09624,-0.19174 -0.195971,-0.36302 -0.299723,-0.5116 -0.05188,-0.0743 -0.104842,-0.14298 -0.158647,-0.20567 -0.0538,-0.0627 -0.108562,-0.11895 -0.164331,-0.1695 -0.05577,-0.0505 -0.112765,-0.0949 -0.170532,-0.13281 -0.05777,-0.0379 -0.116417,-0.0694 -0.176217,-0.094 -0.205605,-0.0862 -0.409538,-0.16429 -0.611332,-0.23358 -0.201794,-0.0693 -0.401594,-0.12955 -0.599446,-0.18138 -0.197853,-0.0518 -0.393782,-0.0949 -0.587562,-0.12868 -0.193779,-0.0338 -0.385067,-0.0587 -0.574641,-0.0739 -0.189575,-0.0152 -0.377001,-0.0206 -0.56224,-0.0165 -0.185239,0.004 -0.368548,0.0175 -0.54932,0.0413 -0.180773,0.0238 -0.359193,0.0576 -0.535368,0.1018 -0.176175,0.0442 -0.349969,0.0987 -0.521416,0.16382 -0.171446,0.0651 -0.340359,0.14074 -0.506945,0.22737 -0.166587,0.0866 -0.330882,0.18428 -0.492477,0.29301 -0.161595,0.10873 -0.3205,0.22877 -0.476973,0.36019 -0.156473,0.13141 -0.310768,0.27423 -0.461988,0.42891 -0.151219,0.15468 -0.299615,0.32118 -0.44545,0.49971 -0.145836,0.17853 -0.289112,0.3691 -0.429432,0.57206 -0.140319,0.20295 -0.277704,0.41851 -0.412377,0.64647 -0.134674,0.22796 -0.26643,0.46837 -0.395325,0.72192 -0.04533,0.68947 -0.103216,1.36437 -0.151412,2.05052 -0.0241,0.34308 -0.04541,0.68894 -0.06201,1.04076 -0.0166,0.35183 -0.0284,0.70999 -0.03204,1.07694 -0.0036,0.36696 6.98e-4,0.74273 0.0155,1.1312 0.0027,0.0698 0.01059,0.14595 0.01395,0.21652 1.518793,0.61309 3.179753,0.9524 4.95267,0.9524 2.13657,0 4.187559,-0.44958 6.069913,-1.26866 z"
         inkscape:label="mínimo" />
      <path
         id="path5536"
         style="font-variation-settings:normal;display:inline;opacity:1;vector-effect:none;fill:#f8a9c6;fill-opacity:1;fill-rule:evenodd;stroke:#000000;stroke-width:0.264583;stroke-linecap:butt;stroke-linejoin:miter;stroke-miterlimit:4;stroke-dasharray:none;stroke-dashoffset:0;stroke-opacity:1;-inkscape-stroke:none;paint-order:stroke fill markers;stop-color:#000000;stop-opacity:1"
         inkscape:label="anelar"
         d="m 72.479297,157.58005 c 0.05742,0.0202 0.113189,0.0431 0.171049,0.0625 0.226559,0.0759 0.456239,0.1462 0.689363,0.21033 0.233125,0.0641 0.46947,0.12217 0.709001,0.17415 0.239531,0.052 0.482343,0.098 0.728121,0.13746 0.245778,0.0395 0.494341,0.0726 0.746208,0.0992 0.251866,0.0267 0.507016,0.0464 0.764811,0.0599 0.257795,0.0135 0.518299,0.0207 0.781864,0.0207 0.263566,0 0.526514,-0.006 0.788066,-0.0186 0.261552,-0.0123 0.521652,-0.0305 0.780831,-0.0548 0.259178,-0.0243 0.517151,-0.0548 0.773596,-0.0909 0.256445,-0.0362 0.511459,-0.0783 0.764811,-0.12609 0.253352,-0.0478 0.505094,-0.10151 0.754993,-0.16072 0.249898,-0.0592 0.498055,-0.1239 0.744141,-0.1943 0.246085,-0.0704 0.490343,-0.14601 0.732255,-0.22737 0.241911,-0.0814 0.481441,-0.16833 0.718819,-0.26045 0.237378,-0.0921 0.472382,-0.18983 0.704866,-0.29249 0.232485,-0.10267 0.46265,-0.21051 0.689881,-0.3235 0.01098,-0.005 0.02159,-0.0116 0.03256,-0.0171 -0.529863,-3.82574 -1.46381,-7.22266 -2.142505,-7.55148 -1.601561,-2.627 -8.470133,-3.94961 -10.005074,2.17248 -0.185983,2.25312 -0.136447,4.36475 0.07235,6.38101 z" />
      <path
         id="path5506"
         style="font-variation-settings:normal;display:inline;opacity:1;vector-effect:none;fill:#f8a9c6;fill-opacity:1;fill-rule:evenodd;stroke:#000000;stroke-width:0.264583;stroke-linecap:butt;stroke-linejoin:miter;stroke-miterlimit:4;stroke-dasharray:none;stroke-dashoffset:0;stroke-opacity:1;-inkscape-stroke:none;paint-order:stroke fill markers;stop-color:#000000;stop-opacity:1"
         inkscape:label="médio"
         d="m 83.588696,148.32066 c 0.0037,8e-4 0.0072,0.002 0.01085,0.003 0.239531,0.052 0.481826,0.098 0.727605,0.13746 0.245778,0.0395 0.494858,0.0726 0.746724,0.0992 0.251866,0.0267 0.506499,0.047 0.764294,0.0605 0.257796,0.0135 0.518817,0.0202 0.782382,0.0202 0.263565,0 0.525996,-0.006 0.787548,-0.0186 0.261552,-0.0123 0.522169,-0.0305 0.781348,-0.0548 0.259179,-0.0243 0.517151,-0.0548 0.773596,-0.0909 0.256445,-0.0362 0.51146,-0.0783 0.764811,-0.12609 0.253352,-0.0478 0.505095,-0.10099 0.754993,-0.1602 0.249898,-0.0592 0.498056,-0.12442 0.744141,-0.19482 0.246085,-0.0704 0.489827,-0.14601 0.731738,-0.22738 0.241911,-0.0814 0.481958,-0.16832 0.719336,-0.26044 0.237378,-0.0921 0.472382,-0.18931 0.704867,-0.29198 0.232484,-0.10266 0.462132,-0.2105 0.689363,-0.32349 0.227231,-0.11299 0.451727,-0.2314 0.673344,-0.3545 0.221617,-0.1231 0.440647,-0.25097 0.656291,-0.38396 0.215644,-0.13299 0.42786,-0.27126 0.63717,-0.41393 0.128992,-0.0879 0.254379,-0.1808 0.380855,-0.27233 -0.151565,-1.95728 -0.421342,-3.8477 -0.842842,-5.65599 -4.531418,-7.44606 -10.028363,-3.1791 -11.848373,0.52659 -0.687803,2.00225 -0.593155,4.81483 -0.140043,7.98297 z" />
      <path
         id="path5452"
         style="font-variation-settings:normal;opacity:1;vector-effect:none;fill:#f8a9c6;fill-opacity:1;fill-rule:evenodd;stroke:#000000;stroke-width:0.264583;stroke-linecap:butt;stroke-linejoin:miter;stroke-miterlimit:4;stroke-dasharray:none;stroke-dashoffset:0;stroke-opacity:1;-inkscape-stroke:none;paint-order:stroke fill markers;stop-color:#000000;stop-opacity:1"
         d="m 111.17513,140.03951 c 0.0377,-0.1886 0.0786,-0.3798 0.11368,-0.56637 0.0793,-0.42151 0.15139,-0.83705 0.21446,-1.24437 0.0631,-0.40732 0.11718,-0.80637 0.15968,-1.19424 0.0425,-0.38787 0.0733,-0.76441 0.0909,-1.12758 0.0176,-0.36317 0.0219,-0.71271 0.0103,-1.04593 -0.006,-0.16661 -0.0156,-0.32918 -0.0295,-0.48731 -0.0139,-0.15813 -0.0322,-0.31195 -0.0548,-0.46095 -0.0225,-0.14901 -0.0494,-0.29332 -0.0811,-0.43254 -0.0317,-0.13921 -0.0681,-0.27327 -0.10955,-0.40204 -0.0415,-0.12877 -0.0878,-0.25233 -0.13953,-0.37 -0.0517,-0.11767 -0.10903,-0.22947 -0.17156,-0.33538 -0.12387,-0.2299 -0.25074,-0.45096 -0.38034,-0.66353 -0.12961,-0.21256 -0.26197,-0.41676 -0.39688,-0.61236 -0.1349,-0.19561 -0.27209,-0.3827 -0.41186,-0.56173 -0.13976,-0.17902 -0.28214,-0.34979 -0.42633,-0.51263 -0.14418,-0.16283 -0.29056,-0.31754 -0.43873,-0.46457 -0.14817,-0.14702 -0.29788,-0.28646 -0.44959,-0.41806 -0.15171,-0.13159 -0.3051,-0.25552 -0.45992,-0.37207 -0.15481,-0.11655 -0.31122,-0.22574 -0.4687,-0.32763 -0.15748,-0.10189 -0.31623,-0.19661 -0.47594,-0.28422 -0.15971,-0.0876 -0.32013,-0.16813 -0.48163,-0.24184 -0.16149,-0.0737 -0.32394,-0.14031 -0.48679,-0.20051 -0.16284,-0.0602 -0.32613,-0.11365 -0.48989,-0.16071 -0.16376,-0.0471 -0.32825,-0.0877 -0.49248,-0.12196 -0.16423,-0.0343 -0.32821,-0.0628 -0.49247,-0.0847 -0.16427,-0.0219 -0.32862,-0.0376 -0.49248,-0.0475 -0.16386,-0.01 -0.3274,-0.014 -0.49041,-0.0124 h -5.2e-4 c -0.20958,0.002 -0.41843,0.0135 -0.6258,0.0341 -0.20736,0.0206 -0.41332,0.0502 -0.61753,0.0884 -0.20421,0.0382 -0.40656,0.085 -0.60668,0.14004 -0.20012,0.055 -0.39815,0.1186 -0.59325,0.18966 -0.1951,0.071 -0.38704,0.1499 -0.57619,0.23616 -0.18915,0.0863 -0.37533,0.17995 -0.55759,0.2806 -0.18226,0.10065 -0.360927,0.20823 -0.535367,0.32246 -0.17444,0.11423 -0.34487,0.23474 -0.51056,0.36174 -0.1657,0.12699 -0.32665,0.26051 -0.48266,0.39946 -0.156017,0.13894 -0.306767,0.28348 -0.452167,0.43356 -0.1454,0.15008 -0.28525,0.30572 -0.4191,0.46612 -0.13385,0.16041 -0.26155,0.32566 -0.38292,0.49558 -0.12137,0.16991 -0.236717,0.34435 -0.344687,0.52296 -0.10796,0.17862 -0.20868,0.36128 -0.3023,0.54777 -0.0936,0.1865 -0.18004,0.37695 -0.25839,0.57051 -0.0783,0.19357 -0.1487,0.39033 -0.21084,0.59015 -0.0506,0.61929 -0.0825,1.24469 -0.0982,1.87534 -0.0156,0.63064 -0.0149,1.26654 -5.1e-4,1.90737 0.0144,0.64084 0.0427,1.28645 0.0822,1.93632 0.0206,0.33897 0.0516,0.682 0.078,1.02319 2.052897,1.32143 4.514601,2.08153 7.293081,2.08153 2.63606,0 5.18072,-0.61953 7.4533,-1.74977 z"
         inkscape:label="indicador" />
      <path
         id="path302"
         style="display:inline;fill:#f8a9c6;fill-opacity:1;fill-rule:evenodd;stroke:#000000;stroke-width:0.264583;stroke-dasharray:none;paint-order:stroke fill markers;stop-color:#000000"
         inkscape:label="polegar"
         d="m 111.23972,142.243 c 0.0233,0.056 0.0459,0.11233 0.0698,0.16795 0.0476,0.11108 0.0963,0.2217 0.14625,0.33124 0.0499,0.10954 0.10074,0.21812 0.15296,0.32608 0.0522,0.10796 0.10571,0.21509 0.1602,0.32143 0.0545,0.10633 0.11017,0.21211 0.16691,0.31677 0.0567,0.10467 0.11467,0.20814 0.17364,0.3111 0.059,0.10295 0.11917,0.20523 0.18035,0.30644 0.0612,0.1012 0.12319,0.20134 0.18655,0.30075 0.0634,0.0994 0.12774,0.19802 0.19327,0.29559 0.0655,0.0976 0.13231,0.19421 0.19999,0.28991 0.0677,0.0957 0.13638,0.19044 0.20619,0.28422 0.0698,0.0938 0.14098,0.18672 0.2129,0.27853 0.0719,0.0918 0.14459,0.18253 0.21859,0.27234 0.074,0.0898 0.14924,0.17837 0.22531,0.26613 0.0761,0.0878 0.15287,0.17478 0.231,0.26045 0.0781,0.0857 0.15755,0.17019 0.23771,0.25373 0.0802,0.0835 0.16123,0.16617 0.24339,0.24753 0.0822,0.0814 0.16545,0.16166 0.2496,0.24082 0.0841,0.0791 0.16916,0.15719 0.25528,0.23409 0.0861,0.0769 0.17341,0.15226 0.26149,0.22686 0.0881,0.0746 0.17716,0.1484 0.26716,0.22066 0.09,0.0722 0.18094,0.14304 0.27285,0.2129 0.0919,0.0699 0.18474,0.13875 0.27854,0.20619 0.0938,0.0674 0.18855,0.13347 0.28422,0.19844 0.0957,0.065 0.19187,0.12874 0.28939,0.1912 0.0975,0.0625 0.19623,0.12354 0.29559,0.18346 0.0994,0.0599 0.19959,0.1189 0.30075,0.17621 0.10117,0.0573 0.20298,0.11327 0.30593,0.16795 0.10295,0.0547 0.20688,0.1082 0.31161,0.1602 0.10472,0.052 0.2103,0.10265 0.31677,0.15193 0.10648,0.0493 0.21426,0.0971 0.32247,0.14366 0.1082,0.0465 0.21719,0.0912 0.32711,0.13487 0.10991,0.0437 0.22067,0.0863 0.33228,0.12713 0.11161,0.0409 0.22416,0.0804 0.33744,0.11833 0.11328,0.038 0.22717,0.0745 0.3421,0.10956 0.11493,0.035 0.23071,0.0687 0.34727,0.10077 0.11656,0.0321 0.23374,0.0624 0.35191,0.0915 0.11818,0.029 0.23732,0.0567 0.35709,0.0827 0.11976,0.026 0.2404,0.0505 0.36173,0.0734 0.12134,0.0229 0.2435,0.0438 0.36639,0.0636 0.12289,0.0197 0.24661,0.0382 0.37104,0.0548 0.12442,0.0166 0.24923,0.0316 0.37517,0.045 0.12593,0.0133 0.25291,0.0246 0.38034,0.0346 0.12742,0.0101 0.25557,0.0186 0.38447,0.0253 0.1289,0.007 0.25825,0.0121 0.3886,0.0155 0.13035,0.003 0.26148,0.005 0.39326,0.005 0.13178,0 0.26351,-0.002 0.39481,-0.005 0.1313,-0.003 0.26248,-0.008 0.39326,-0.0139 0.13077,-0.006 0.26098,-0.0141 0.39119,-0.0233 0.1302,-0.009 0.26005,-0.0194 0.38964,-0.0315 0.12959,-0.0122 0.25916,-0.0262 0.38809,-0.0413 0.12893,-0.0151 0.25728,-0.0315 0.3855,-0.0496 0.12823,-0.0181 0.25597,-0.0379 0.38344,-0.0589 0.12748,-0.021 0.2547,-0.0433 0.38138,-0.0672 0.12667,-0.0239 0.25295,-0.0492 0.37878,-0.076 0.12584,-0.0268 0.25126,-0.0551 0.37621,-0.0847 0.12495,-0.0296 0.2496,-0.0606 0.37362,-0.093 0.12402,-0.0324 0.24748,-0.0661 0.37052,-0.10129 0.12304,-0.0352 0.2454,-0.0716 0.36742,-0.10955 0.12202,-0.038 0.24388,-0.0777 0.36483,-0.11834 0.12096,-0.0407 0.24138,-0.0827 0.36122,-0.12609 0.11985,-0.0434 0.23891,-0.0878 0.3576,-0.13384 0.11869,-0.0461 0.23702,-0.0934 0.3545,-0.14211 0.11749,-0.0487 0.23413,-0.0991 0.35037,-0.15038 0.11624,-0.0513 0.2318,-0.10369 0.34675,-0.15762 0.11495,-0.0539 0.22952,-0.10938 0.34313,-0.16588 0.11362,-0.0565 0.22625,-0.11408 0.33848,-0.17311 0.11224,-0.059 0.22406,-0.11932 0.33486,-0.18087 0.11081,-0.0615 0.22088,-0.12458 0.33022,-0.18862 0.10933,-0.064 0.21774,-0.12936 0.32556,-0.19585 0.10782,-0.0665 0.21465,-0.13416 0.32091,-0.20309 0.10626,-0.0689 0.21212,-0.13899 0.31678,-0.21032 0.10465,-0.0713 0.2086,-0.14385 0.3116,-0.21756 0.10301,-0.0737 0.20514,-0.14874 0.30645,-0.22479 0.1013,-0.0761 0.2017,-0.15313 0.30127,-0.23151 0.0996,-0.0784 0.19832,-0.15807 0.29611,-0.23875 0.0978,-0.0807 0.19447,-0.16251 0.29042,-0.24546 0.0959,-0.0829 0.19118,-0.16699 0.28525,-0.25218 0.0941,-0.0852 0.1869,-0.1715 0.27905,-0.2589 0.0922,-0.0874 0.18318,-0.17603 0.27337,-0.26562 0.0902,-0.0896 0.17951,-0.18006 0.26769,-0.27182 0.0882,-0.0917 0.17536,-0.18465 0.26148,-0.27853 0.0861,-0.0939 0.17126,-0.18875 0.25528,-0.28474 0.084,-0.096 0.16721,-0.19286 0.24908,-0.29094 0.0819,-0.0981 0.16268,-0.19753 0.24236,-0.29766 0.0744,-0.0935 0.14768,-0.18792 0.22014,-0.28318 -0.004,-0.1389 -0.004,-0.2696 -0.009,-0.41031 -1.98026,-9.49235 -8.06922,-16.5778 -17.59376,-15.08022 -5.24755,0.82536 -7.1202,5.8836 -8.16487,12.88965 -0.045,0.17078 -0.0816,0.34476 -0.12351,0.51677 z" />
    </g>
  </g>
</svg>
