<?xml version="1.0" encoding="UTF-8" standalone="no"?>
<!-- Created with Inkscape (http://www.inkscape.org/) -->

<svg
   width="76.060188mm"
   height="189.22928mm"
   viewBox="0 0 76.060188 189.22928"
   version="1.1"
   id="svg305"
   inkscape:version="1.2.2 (732a01da63, 2022-12-09)"
   sodipodi:docname="pe_esquerdo.svg"
   xmlns:inkscape="http://www.inkscape.org/namespaces/inkscape"
   xmlns:sodipodi="http://sodipodi.sourceforge.net/DTD/sodipodi-0.dtd"
   xmlns="http://www.w3.org/2000/svg"
   xmlns:svg="http://www.w3.org/2000/svg">
  <sodipodi:namedview
     id="namedview307"
     pagecolor="#505050"
     bordercolor="#eeeeee"
     borderopacity="1"
     inkscape:showpageshadow="0"
     inkscape:pageopacity="0"
     inkscape:pagecheckerboard="0"
     inkscape:deskcolor="#505050"
     inkscape:document-units="mm"
     showgrid="false"
     inkscape:zoom="0.39429681"
     inkscape:cx="-107.78682"
     inkscape:cy="301.8031"
     inkscape:window-width="1366"
     inkscape:window-height="745"
     inkscape:window-x="-8"
     inkscape:window-y="-8"
     inkscape:window-maximized="1"
     inkscape:current-layer="layer1" />
  <defs
     id="defs302" />
  <g
     inkscape:label="pe_direito"
     inkscape:groupmode="layer"
     id="layer1"
     transform="translate(17.894501,-55.143838)">
    <path
       style="display:inline;fill:none;fill-rule:evenodd;stroke:#000000;stroke-width:0.264583;stroke-dasharray:none;paint-order:stroke fill markers;stop-color:#000000"
       d="m 42.704361,226.24863 c -10.950293,25.66342 -42.21203915,23.36061 -47.4758292,-3.6305 l 2.60652,-27.64769 c 1.99312005,-9.56514 5.18812,-36.46117 -5.11994,-57.06408 -4.3095998,-6.58479 -5.5186478,-13.3825 -5.2130278,-19.54887 0.0956,-9.1719 2.6322078,-17.7749 0.465448,-24.668808 -5.028498,-7.6967 -5.993148,-13.4451 -5.678478,-21.78303 1.98026,-9.49237 8.0694278,-16.57813 17.59397785,-15.08055 5.24755995,0.82536 7.11995995,5.88357 8.16462995,12.88964 1.74993,6.64041 1.12518,14.2456 0.98076,20.62271 1.1457102,1.11072 1.0818102,0.94033 2.1665602,0.10608 0.14414,-4.03724 -0.19077,-8.07447 -0.7899,-12.11171 -0.5044302,-5.00352 -4.1732502,-14.58103 -2.1722102,-17.97007 4.5300502,-8.4079 13.0430672,-5.09142 14.8105112,0.59241 0.404739,4.95434 -0.387299,10.29034 -1.119398,15.7116 -0.522016,3.86559 -1.036719,7.14073 -0.657864,10.09159 0.540249,0.40202 1.152137,0.5533 2.040559,-0.26329 -0.636283,-6.72888 -0.776898,-13.10201 0.526595,-18.69415 4.531426,-7.44608 10.028392,-3.1791 11.848404,0.52659 1.839083,5.35372 -1.916174,16.5 -3.159575,24.75 0.557607,1.14066 1.199914,1.56139 2.106385,-0.26329 -0.79543,-5.2191 1.179904,-15.22144 2.36968,-15.79787 1.601565,-2.62702 8.470375,-3.94991 10.00532,2.1722 0.644451,7.80728 -1.527157,13.92493 -3.422873,20.20811 -0.800839,2.081628 0.758021,4.315218 1.843085,1.316488 0.381975,-5.729608 1.245988,-13.429898 3.159574,-14.218078 3.289692,-1.37866 6.099905,-0.63392 8.162235,3.42287 0.181317,2.75788 0.560468,5.28495 -0.263298,9.21543 -0.894246,3.185658 -1.45238,6.089818 -0.2633,8.952118 4.49065,13.15334 -0.47201,29.90305 -2.896274,38.37566 -6.38273,19.83768 -7.330605,40.9779 -8.547826,61.50733 z"
       id="path289"
       inkscape:label="contorno"
       sodipodi:nodetypes="ccccccccccccccsccccccccccccccccc" />
    <path
       id="path311"
       style="fill:#326497;fill-opacity:1;fill-rule:evenodd;stroke:none;stroke-width:0.264583;stroke-dasharray:none;paint-order:stroke fill markers;stop-color:#000000"
       inkscape:label="vertebra_lombar"
       d="m -17.760063,73.99265 c 1.077506,2.47661 1.76501,7.683431 4.16767,10.622939 2.422946,4.990454 7.3981368,9.368518 6.6729198,15.296921 5.73e-4,8.47603 -1.452389,16.95031 -0.58108,25.41964 4.041882,8.07549 8.862043,16.09966 10.566354,25.04815 2.09779,19.05809 0.886356,38.394 -3.27330395,57.10084 -1.34258105,7.0624 -2.47101705,14.2471 -2.02737005,21.45864 -2.191957,-1.70113 -2.709205,-5.88438 -2.303144,-8.81476 1.159289,-10.98293 1.716898,-22.04246 3.61148105,-32.92918 1.96256895,-17.90155 0.97402,-37.19627 -8.46730405,-53.00904 -5.4096548,-10.47781 -2.2143478,-22.42323 -1.7685278,-33.5677 0.610217,-4.714137 -1.856274,-8.626722 -3.990822,-12.557813 -2.026438,-4.391716 -2.691185,-9.268331 -2.606873,-14.068637 z" />
    <g
       id="g5602"
       style="display:inline"
       transform="matrix(-1,0,0,1,119.4104,-72.010866)"
       inkscape:label="cabeça">
      <path
         id="path960"
         style="font-variation-settings:normal;opacity:1;vector-effect:none;fill:#f8a9c6;fill-opacity:1;fill-rule:evenodd;stroke:#000000;stroke-width:0.264583;stroke-linecap:butt;stroke-linejoin:miter;stroke-miterlimit:4;stroke-dasharray:none;stroke-dashoffset:0;stroke-opacity:1;-inkscape-stroke:none;paint-order:stroke fill markers;stop-color:#000000;stop-opacity:1"
         d="m 73.471484,167.12778 c -0.27156,-2.25977 -0.592765,-4.536 -1.330751,-6.69765 -0.304036,-0.75846 -0.63126,-1.67989 -1.467415,-1.98763 -1.495888,-0.62025 -3.274084,-0.84625 -4.769008,-0.0995 -1.491752,0.72864 -2.503262,2.14236 -3.239401,3.58519 -0.124929,1.83534 -0.324877,3.67439 -0.216012,5.51594 3.511783,1.43418 7.575742,1.18466 11.022587,-0.3163 z"
         inkscape:label="mínimo" />
      <path
         id="path5536"
         style="font-variation-settings:normal;display:inline;opacity:1;vector-effect:none;fill:#f8a9c6;fill-opacity:1;fill-rule:evenodd;stroke:#000000;stroke-width:0.264583;stroke-linecap:butt;stroke-linejoin:miter;stroke-miterlimit:4;stroke-dasharray:none;stroke-dashoffset:0;stroke-opacity:1;-inkscape-stroke:none;paint-order:stroke fill markers;stop-color:#000000;stop-opacity:1"
         inkscape:label="anelar"
         d="m 72.479297,157.58005 c 3.373796,1.18597 7.145627,0.92791 10.469488,-0.30088 0.546843,-0.20577 1.083832,-0.43847 1.605748,-0.7012 -0.332471,-2.23447 -0.716304,-4.48584 -1.523952,-6.60468 -0.159619,-0.52703 -0.561738,-0.88458 -0.8774,-1.30699 -1.175205,-1.32813 -3.03274,-1.89999 -4.768673,-1.83448 -1.760918,0.0506 -3.465065,1.05183 -4.296355,2.61749 -0.436541,0.79329 -0.758115,1.67187 -0.740052,2.58804 -0.107605,1.8471 -0.06014,3.70257 0.131196,5.5427 z" />
      <path
         id="path5506"
         style="font-variation-settings:normal;display:inline;opacity:1;vector-effect:none;fill:#f8a9c6;fill-opacity:1;fill-rule:evenodd;stroke:#000000;stroke-width:0.264583;stroke-linecap:butt;stroke-linejoin:miter;stroke-miterlimit:4;stroke-dasharray:none;stroke-dashoffset:0;stroke-opacity:1;-inkscape-stroke:none;paint-order:stroke fill markers;stop-color:#000000;stop-opacity:1"
         inkscape:label="médio"
         d="m 83.588696,148.32066 c 4.422329,0.92536 9.192618,-0.20332 12.831256,-2.85306 -0.147465,-1.90179 -0.409817,-3.7973 -0.842842,-5.65599 -1.050565,-1.71436 -2.480142,-3.41213 -4.499029,-3.95331 -1.880793,-0.50767 -3.841195,0.36033 -5.207734,1.63816 -0.911712,0.85734 -1.726215,1.86841 -2.203812,3.03181 -0.72753,2.527 -0.409871,5.231 -0.07784,7.79239 z" />
      <path
         id="path5452"
         style="font-variation-settings:normal;opacity:1;vector-effect:none;fill:#f8a9c6;fill-opacity:1;fill-rule:evenodd;stroke:#000000;stroke-width:0.264583;stroke-linecap:butt;stroke-linejoin:miter;stroke-miterlimit:4;stroke-dasharray:none;stroke-dashoffset:0;stroke-opacity:1;-inkscape-stroke:none;paint-order:stroke fill markers;stop-color:#000000;stop-opacity:1"
         d="m 111.17513,140.03951 c 0.40117,-2.14905 0.84711,-4.37924 0.42362,-6.55929 -0.28259,-1.15567 -1.01328,-2.14004 -1.71502,-3.07776 -1.49251,-1.92835 -3.86944,-3.27909 -6.35431,-3.10601 -3.24785,0.18232 -6.201318,2.57982 -7.162301,5.6692 -0.179225,2.24355 -0.1262,4.50107 0.06149,6.74222 3.122539,2.04758 7.078751,2.49786 10.685291,1.7349 1.40657,-0.29059 2.77537,-0.7634 4.06123,-1.40326 z"
         inkscape:label="indicador" />
      <path
         id="path16625"
         style="font-variation-settings:normal;display:inline;vector-effect:none;fill:#f8a9c6;fill-opacity:1;stroke:#000000;stroke-width:0.264583;stroke-linecap:butt;stroke-linejoin:miter;stroke-miterlimit:4;stroke-dasharray:none;stroke-dashoffset:0;stroke-opacity:1;-inkscape-stroke:none;paint-order:stroke fill markers;stop-color:#000000"
         d="m 110.51057,146.36535 c -0.0886,1.83635 -0.63724,4.23831 -0.11713,5.74465 2.77003,0.61677 4.62322,3.4758 4.84149,6.19141 0.22349,1.27514 -0.44628,2.93899 -0.53852,3.87213 2.04842,0.63946 4.09685,1.27892 6.14527,1.91838 -0.009,-2.47069 -0.40058,-4.92181 -0.89555,-7.3365 1.13033,-0.22415 2.30255,-0.51208 3.40689,-0.69664 -0.48519,-1.58716 3.49277,-2.78597 -2.26818,-1.84394 -4.41348,-0.87441 -8.73841,-3.6441 -10.57427,-7.84949 z m 14.78307,8.1778 -0.75757,0.0207 0.75654,-0.0176 z m -1.92856,1.5844 0.006,0.032 z m 0.0248,0.10955 0.008,0.0331 z m 0.0279,0.0992 0.0134,0.0424 z m 0.45372,0.91209 0.0563,0.0858 z m -12.63178,-15.00578 c 1.78737,4.58056 6.14176,8.1154 11.08619,8.54642 5.6108,0.5851 11.41988,-1.94915 14.80529,-6.4626 -0.34575,-2.63097 -1.31908,-5.17908 -2.54127,-7.53086 -2.08971,-4.00964 -5.86512,-7.37318 -10.45829,-8.00256 -3.01515,-0.38515 -6.53616,-0.19415 -8.76865,2.14184 -2.84661,3.02375 -3.38155,7.41003 -4.12327,11.30776 z"
         inkscape:label="polegar" />
    </g>
    <ellipse
       style="display:inline;fill:#eec6c6;fill-opacity:1;fill-rule:evenodd;stroke-width:0.264583"
       id="path352"
       cx="6.3822756"
       cy="69.44696"
       rx="3.8688481"
       ry="3.6232071"
       inkscape:label="glândula pituitária"
       transform="scale(-1,1)" />
    <g
       id="g5811"
       inkscape:label="dentes"
       style="display:inline"
       transform="matrix(-1,0,0,1,119.4104,-72.01126)">
      <path
         id="path1301"
         style="font-variation-settings:normal;display:inline;opacity:1;vector-effect:none;fill:#e77dae;fill-opacity:1;fill-rule:evenodd;stroke-width:0.264583;stroke-linecap:butt;stroke-linejoin:miter;stroke-miterlimit:4;stroke-dasharray:none;stroke-dashoffset:0;stroke-opacity:1;-inkscape-stroke:none;stop-color:#000000;stop-opacity:1"
         d="m 84.769467,159.16001 c -0.06655,-0.76961 -0.107986,-1.81656 -0.215972,-2.58145 -3.18833,1.58904 -6.910574,2.17857 -10.414806,1.46766 -0.560467,-0.11972 -1.116424,-0.26703 -1.654739,-0.46468 0.128367,1.35018 0.350517,2.22499 0.626836,3.55239 5.074586,1.16258 7.903515,0.96639 11.658681,-1.97392 z"
         sodipodi:nodetypes="cscccc"
         inkscape:label="anelar2" />
      <path
         id="path1174"
         style="font-variation-settings:normal;vector-effect:none;fill:#e77dae;fill-opacity:1;fill-rule:evenodd;stroke-width:0.264583;stroke-linecap:butt;stroke-linejoin:miter;stroke-miterlimit:4;stroke-dasharray:none;stroke-dashoffset:0;stroke-opacity:1;-inkscape-stroke:none;stop-color:#000000"
         d="m 96.571883,150.32829 c 0.01506,-1.62129 -0.02474,-3.244 -0.1519,-4.86068 -3.562245,2.59601 -8.204767,3.72505 -12.54973,2.91197 -0.568416,-0.261 -0.08198,0.59677 -0.14034,0.8696 0.164396,1.02065 0.352142,2.03747 0.555395,3.05107 4.135785,0.91901 8.679718,0.29877 12.286575,-1.97196 z"
         inkscape:label="médio2" />
      <path
         id="path1112"
         style="font-variation-settings:normal;vector-effect:none;fill:#e77dae;fill-opacity:1;fill-rule:evenodd;stroke-width:0.264583;stroke-linecap:butt;stroke-linejoin:miter;stroke-miterlimit:4;stroke-dasharray:none;stroke-dashoffset:0;stroke-opacity:1;-inkscape-stroke:none;stop-color:#000000"
         d="m 110.02171,145.12809 c 0.39542,-1.69334 0.81878,-3.38101 1.15238,-5.08806 -3.44678,1.70249 -7.52517,2.26275 -11.256313,1.23684 -1.232254,-0.34614 -2.413058,-0.87568 -3.489038,-1.56912 0.122552,1.75569 0.334282,3.50383 0.560174,5.24878 4.017767,2.03153 8.962297,2.0892 13.032797,0.17156 z"
         inkscape:label="indicador2" />
      <path
         id="path1003"
         style="font-variation-settings:normal;vector-effect:none;fill:#e77dae;fill-opacity:1;fill-rule:evenodd;stroke-width:0.264583;stroke-linecap:butt;stroke-linejoin:miter;stroke-miterlimit:4;stroke-dasharray:none;stroke-dashoffset:0;stroke-opacity:1;-inkscape-stroke:none;stop-color:#000000"
         d="m 137.12341,148.79092 c 0.0799,-1.57272 0.0586,-3.149 0.002,-4.72219 -0.31444,1.05446 -1.42115,1.81305 -2.1844,2.6162 -4.20413,3.73779 -10.46418,5.27194 -15.82503,3.3646 -3.60731,-1.28994 -6.45203,-4.28798 -7.87553,-7.80728 0.0735,-0.33872 -0.25625,1.02539 -0.30926,1.37496 -0.19325,1.64774 -1.09835,3.51527 0.72649,4.78428 5.83824,8.06373 19.36591,8.20571 25.46543,0.38943 z"
         inkscape:label="polegar2" />
      <path
         id="path1431"
         style="font-variation-settings:normal;display:inline;vector-effect:none;fill:#e77dae;fill-opacity:1;fill-rule:evenodd;stroke-width:0.264583;stroke-linecap:butt;stroke-linejoin:miter;stroke-miterlimit:4;stroke-dasharray:none;stroke-dashoffset:0;stroke-opacity:1;-inkscape-stroke:none;stop-color:#000000"
         d="m 73.774308,170.02166 c -0.05354,-0.60651 -0.107883,-1.216 -0.173116,-1.82624 -0.03852,-0.36038 -0.0868,-0.71074 -0.129708,-1.06764 -1.88235,0.81908 -3.933347,1.26866 -6.069913,1.26866 -1.772915,0 -3.433879,-0.33931 -4.95267,-0.9524 0.01535,0.32243 0.03334,0.6475 0.06511,0.98909 0.03873,0.41636 0.09105,0.8485 0.159163,1.29915 0.02644,0.1749 0.06727,0.36703 0.0987,0.54777 a 8.3926191,6.9773932 0 0 0 5.322673,1.58801 8.3926191,6.9773932 0 0 0 5.679756,-1.8464 z"
         inkscape:label="mínimo2" />
    </g>
    <path
       id="path496-5"
       style="display:inline;fill:#6f75b6;fill-opacity:1;fill-rule:evenodd;stroke:none;stroke-width:0.264583;stroke-dasharray:none;paint-order:stroke fill markers;stop-color:#000000"
       inkscape:label="ouvido"
       d="m 34.642452,86.39354 c -0.206009,1.234774 1.482948,1.674104 2.363164,2.30525 2.629082,1.450775 5.768626,1.220905 8.594838,0.577822 1.223697,-0.03887 0.835749,-1.70921 1.18441,-2.583532 -0.567952,4.522894 -2.084906,8.911145 -3.369787,13.287741 -0.382827,0.899829 0.437285,2.996899 1.476115,1.774159 0.80231,-0.9578 0.528586,-2.254837 0.71474,-3.398718 -0.125727,-0.995812 0.930004,0.627701 1.268864,0.439578 2.947605,1.84139 7.384455,0.928419 9.727312,-0.314318 -0.529893,2.374108 -1.310851,4.779058 -0.994512,7.245608 -1.892372,-1.33834 -4.095053,0.75469 -4.373857,2.43057 -4.350021,-0.5421 -8.850491,-0.74516 -12.93743,-2.47798 -2.518798,-1.03399 -4.645457,-3.19682 -5.174675,-5.92586 -0.461235,-1.919377 -0.211812,-3.900911 0.01295,-5.83014 1.340548,0.361479 1.669696,-1.548056 1.349764,-2.535474 -0.09233,-1.665475 -0.0028,-3.336641 0.158104,-4.994706 z m 21.133593,20.30884 0.01654,0.0718 z m 0.442867,1.38234 c 0.122882,0.36918 0.121671,0.36968 0,0 z" />
    <path
       id="path467"
       style="fill:#af62d6;fill-opacity:1;fill-rule:evenodd;stroke-width:0.264583"
       d="m 22.376015,72.966968 -0.453203,3.7083 c -0.408239,3.34047 -1.054247,6.70838 -0.656807,10.08207 1.109125,0.9177 2.537536,-0.26958 1.927531,-1.52083 -0.190769,-2.29989 -0.343703,-4.60563 -0.346232,-6.91431 3.604244,2.28718 8.150195,2.84076 12.264884,2.00039 -0.830386,4.2579 -1.929411,8.46326 -2.590022,12.75375 -2.787516,2.488 -16.279674,7.393312 -21.296894,-3.95738 0.0231,-2.36536 -1.8236602,-12.20963 -1.7445902,-15.9613 a 13.230718,11.387632 0 0 0 6.2559402,1.3565 13.230718,11.387632 0 0 0 6.639393,-1.54719 z"
       inkscape:label="olho" />
    <path
       id="path1314"
       style="fill:#075e92;fill-opacity:1;fill-rule:evenodd;stroke-width:0.264583"
       d="m 55.611195,105.72931 c 0.0077,0.0656 0.01259,0.13141 0.02171,0.19689 0.02523,0.18114 0.05552,0.36168 0.09198,0.54209 0.03647,0.1804 0.07873,0.36075 0.127124,0.54053 0.04839,0.17978 0.103319,0.35919 0.164331,0.53847 0.06101,0.17928 0.128254,0.35854 0.202571,0.53743 0.140333,0.41105 0.27154,0.82512 0.393775,1.24282 0.07435,0.25408 0.139347,0.51158 0.207222,0.76791 a 2.8798203,3.3241353 0 0 1 -2.590023,1.87276 2.8798203,3.3241353 0 0 1 -2.879927,-3.32435 2.8798203,3.3241353 0 0 1 2.879927,-3.32383 2.8798203,3.3241353 0 0 1 1.38131,0.40928 z"
       inkscape:label="axila" />
    <path
       id="path16125"
       style="display:inline;fill:#01bae9;fill-opacity:1;stroke:none;stroke-width:0.264583px;stroke-linecap:butt;stroke-linejoin:miter;stroke-opacity:1"
       d="m -6.9209082,98.078099 c 11.978118,3.846911 24.6458522,4.760461 37.1382202,5.347511 1.993524,0.39379 4.498974,-0.62052 5.984732,1.05623 2.915734,2.06487 6.55634,2.61015 10.012309,3.09483 -0.319297,1.55116 0.994682,3.05087 0.899526,4.68058 0.64021,5.46617 -1.401408,10.72616 -2.920074,15.87476 -6.05606,1.79077 -12.396585,0.0525 -18.024093,-2.32671 -2.257134,-0.73723 -4.562442,-2.20255 -6.837499,-2.35844 -7.289512,4.12813 -15.3332442,6.87053 -23.6248512,8.06685 -0.995322,-2.36153 -2.726559,-4.49011 -3.290255,-6.9748 -0.716822,-8.82035 0.837388,-17.63747 0.661985,-26.460811 z"
       inkscape:label="pulmão/torax" />
    <path
       id="path13175"
       style="display:inline;fill:#ff66cc;stroke:none;stroke-width:0.264583px;stroke-linecap:butt;stroke-linejoin:miter;stroke-opacity:1"
       d="m 2.5059118,87.54748 c 0.571887,0.07269 1.143773,0.14538 1.71566,0.21807 -0.417573,2.055277 2.218259,3.041309 2.045555,4.825025 -0.24663,2.868245 -1.188733,5.651841 -2.582475,8.161775 -1.397344,-0.54136 -3.48562895,-0.12284 -4.42031195,-1.394754 C -1.5201402,95.859621 -2.3046192,92.361645 -3.0890982,88.86367 c 1.865003,-0.43873 3.73000705,-0.87746 5.59501,-1.31619 z m 8.9296902,2.0252 0.094,0.190689 z m 0.094,0.19068 0.07355,0.141372 z m -0.31885,0.14831 -0.0088,0.300306 z m -0.009,0.30489 -0.0067,0.211392 z m -0.007,0.22686 c -0.668938,0.520946 -0.766583,0.598427 0,0 z m 0.49868,-0.35915 c 0.198281,0.360416 0.202054,0.36742 0,0 z m 0.26148,0.47129 0.118817,0.201531 z m 0.0744,0.12299 0.143126,0.238208 z m -1.48828,0.26872 c -0.384781,0.208457 -0.451626,0.210017 0,0 z m 1.68827,0.061 c 0.350449,0.534588 1.10871,1.548353 0.253985,0.536257 -0.110064,-0.16666 -0.1587,-0.362208 -0.253985,-0.536257 z m 0.0486,0.1695 c -0.208527,0.461626 -0.0463,0.09816 0,0 z m -0.3824,0.85214 c -0.204452,0.461536 -0.04516,0.101942 0,0 z m -0.37621,0.85473 c -0.456916,1.05448 -0.348457,0.802107 0,0 z m 21.002854,0.19172 c 1.115592,0.980904 0.237788,2.524097 0.334966,3.757101 -0.07893,2.41942 0.540723,5.011329 2.31341,6.755929 -7.736743,-0.20797 -15.476049,-0.62304 -23.16189,-1.56011 0.98738,-2.560867 1.827193,-5.184099 2.39997,-7.870272 -0.426272,-1.459542 1.220245,0.66854 1.906084,0.734463 4.322853,2.260044 9.581402,1.534055 13.885426,-0.39344 0.825269,-0.382602 1.617207,-0.846188 2.322034,-1.423671 z m -21.930964,1.95853 c -0.279794,0.653797 -0.7844882,1.83047 -0.230721,0.538859 0.07694,-0.179604 0.153851,-0.359223 0.230721,-0.538859 z"
       inkscape:label="trapézio" />
    <path
       id="path5421"
       style="display:inline;fill:#b7ebef;fill-opacity:1;stroke:none;stroke-width:0.264583px;stroke-linecap:butt;stroke-linejoin:miter;stroke-opacity:1"
       d="m 45.79164,122.85075 0.0124,0.015 c -0.06281,0.19067 -0.122947,0.38069 -0.184485,0.57103 0.05734,-0.19533 0.116193,-0.39068 0.172083,-0.58601 z m -26.173596,0.44028 c 7.877763,2.61869 15.074438,7.41777 24.575761,4.84105 0.127728,-0.42792 0.258367,-0.85574 0.38964,-1.28364 -0.506124,1.78964 -0.943689,3.55856 -1.299146,5.29993 -9.406495,0.97675 -15.835479,-3.86519 -24.067777,-4.47363 -2.58207,2.07008 -15.3516602,4.79585 -22.3815802,6.09214 -0.36998,-0.75222 -0.74577,-1.50343 -1.12603,-2.25361 11.17633,-1.73858 17.8207402,-4.89363 23.9091322,-8.22224 z"
       inkscape:label="diafragma" />
    <circle
       style="display:inline;fill:#f3efa0;fill-opacity:1;fill-rule:evenodd;stroke-width:0.264583"
       id="path934"
       cx="-20.265907"
       cy="121.51909"
       r="3.9494679"
       inkscape:label="plexo_solar"
       transform="scale(-1,1)" />
    <path
       id="path581"
       style="display:inline;fill:#cccc00;stroke:none;stroke-width:0.264583px;stroke-linecap:butt;stroke-linejoin:miter;stroke-opacity:1"
       d="m 46.327524,107.59121 c 0.295645,0.0382 0.591435,0.0763 0.889352,0.11214 0.395374,0.0476 0.792273,0.0936 1.190108,0.13849 0.795667,0.0899 1.594609,0.17644 2.389001,0.26614 0.195665,0.0221 0.390957,0.0446 0.586011,0.0672 a 2.8798203,3.3241353 0 0 0 -0.03204,0.4687 2.8798203,3.3241353 0 0 0 2.879927,3.32435 2.8798203,3.3241353 0 0 0 0.521932,-0.0605 c 0.570023,5.31497 -0.0068,10.71485 -1.560628,16.18712 0,0 0.836781,8.59734 1.235067,14.45958 -0.0326,0.11838 -0.06635,0.24714 -0.0987,0.36381 -0.358936,1.29454 -0.702074,2.48282 -1.005107,3.5419 -0.112011,0.34813 -0.218417,0.69752 -0.327112,1.04645 -1.080813,-0.53995 -2.305802,-1.37563 -2.305802,-1.37563 -3.022747,-0.1149 -7.418765,0.0528 -8.425325,-5.59501 0.145869,-5.88505 1.69746,-12.30471 3.949629,-18.89187 0.661485,-4.65156 1.998437,-9.30314 0,-13.9547 z"
       inkscape:label="ombro" />
    <path
       id="path12933"
       style="display:inline;fill:#ff3300;fill-opacity:1;stroke:none;stroke-width:0.264583px;stroke-linecap:butt;stroke-linejoin:miter;stroke-opacity:1"
       d="m 55.862866,107.04344 c 0.368451,0.67213 -0.176708,-0.001 0,0 z m 0.0724,0.25218 0.0811,0.25167 z m 0.0811,0.25167 0.0961,0.26872 z m 0.0961,0.26872 0.10645,0.26871 z m 0.56689,1.74873 c 2.217932,7.99541 1.402627,16.47075 -0.19095,24.49773 -0.922777,4.5018 -2.132206,8.94075 -3.46026,13.3382 -1.904581,-0.25025 -2.507529,-2.40527 -2.755182,-4.01534 -0.0737,-1.85135 0.542953,-3.6916 0.782395,-5.5321 0.917816,-5.23342 2.126814,-10.41565 2.947488,-15.66489 0.423707,-3.41018 0.32207,-6.88013 -0.252251,-10.26664 1.174039,0.32784 3.512644,-0.96095 2.92876,-2.35696 z"
       inkscape:label="braço" />
    <path
       id="path16165"
       style="display:inline;fill:#cccc00;stroke:none;stroke-width:0.264583px;stroke-linecap:butt;stroke-linejoin:miter;stroke-opacity:1"
       d="m 11.219596,89.263649 c -0.0019,0.142124 -0.0086,0.63279 0,0 z m 0.0827,0.0248 c 0.181024,0.390347 0.0374,0.08065 0,0 z m 0.33693,0.69246 c 0.203405,0.381451 0.203391,0.381438 0,0 z m 0.17673,0.32969 c 0.20088,0.358295 0.03996,0.07127 0,0 z m -0.99683,0.42737 -0.2589,0.196871 z m 1.3658,0.20102 c 0.147152,0.113332 0.132185,0.480137 0,0 z m 0.093,0.23875 c 0.853739,1.334458 2.938694,2.381438 1.839182,4.26249 -1.889249,7.664941 -5.5955852,14.755041 -10.1034422,21.192631 -2.817187,4.16972 -6.09027,8.15837 -10.3346,10.94627 -0.982884,-1.46554 -1.473953,-3.09529 -1.392588,-4.86335 0.616588,-1.29817 2.359753,-2.13056 3.333056,-3.34384 6.241733,-6.08321 10.153011,-14.00638 13.867927,-21.769011 0.9302942,-2.141638 1.8261492,-4.29857 2.7904652,-6.42519 z m -2.3238902,-0.10129 0.1803502,0.0434 z"
       inkscape:label="esôfago" />
    <path
       id="path16156"
       style="display:inline;fill:#ffff00;stroke:none;stroke-width:0.264583px;stroke-linecap:butt;stroke-linejoin:miter;stroke-opacity:1"
       d="m 11.224766,89.07968 c 0.134039,0.895984 1.334744,1.664149 0.857899,2.529701 -2.8496452,6.279044 -5.0890222,13.038249 -9.6914652,18.317889 -2.64094495,3.04783 -6.201452,5.26989 -10.097584,6.30685 0.05309,-1.34889 0.129177,-2.69675 0.21036,-4.0442 5.575549,-3.63061 10.579891,-8.6694 12.796449,-15.064952 0.628521,-1.841514 0.993382,-3.777329 1.029071,-5.724478 1.188938,0.525342 2.635974,0.435372 3.7057402,-0.28914 0.950411,-0.05877 1.37587,-1.0121 1.187759,-1.879309 l 0.0015,-0.151661 z m -2.1642102,0.0481 c -0.01572,0.489647 -0.04547,1.764393 -0.017,0.60823 0.005,-0.202751 0.01114,-0.405664 0.017,-0.60823 z m 0.3452,1.56735 c 0.348282,0.301497 0.0651,0.06093 0,0 z m 0.15502,0.13591 c 0.308807,0.240702 0.05632,0.04999 0,0 z m 0.13695,0.10903 c 0.277493,0.178406 0.04905,0.04077 0,0 z m 0.12247,0.0822 c 0.2518052,0.119859 0.0444,0.03158 0,0 z"
       inkscape:label="tiréoide" />
    <path
       id="path16144"
       style="display:inline;fill:#ccffff;fill-rule:evenodd;stroke-width:0.264583"
       d="m 9.2476218,80.07351 c 0.0484,3.423057 -0.138122,6.842963 -0.21908,10.26402 0.307088,0.272893 0.580424,0.621819 0.9765402,0.7657 -0.8058382,0.577144 -1.8457292,0.760593 -2.8092482,0.554605 -1.046916,-0.161356 -2.013035,-0.827774 -2.448184,-1.80771 -0.534098,-1.150353 -0.610285,-2.455095 -0.562898,-3.704416 0.182068,-2.009345 1.270243,-3.907062 2.852387,-5.14599 0.641356,-0.486182 1.397443,-0.865171 2.210483,-0.926209 z"
       inkscape:label="garganta" />
    <path
       id="path13085"
       style="display:inline;fill:#cc00ff;stroke:none;stroke-width:0.264583px;stroke-linecap:butt;stroke-linejoin:miter;stroke-opacity:1"
       d="m -3.9386582,84.02831 c 1.134297,0.238747 2.268593,0.477493 3.40289005,0.71624 -0.71654105,3.58947 -1.30246505,7.333777 -0.53631005,10.965581 0.35593105,1.639189 1.06034105,3.21474 2.13105,4.513059 -2.692826,-0.581731 -5.363758,-1.275347 -7.97884,-2.14457 -0.07164,-0.771602 0.09908,-1.609412 -0.170444,-2.334515 -1.186376,-2.308618 -2.495823,-4.551416 -3.8504758,-6.764675 0.404577,-0.535145 0.701983,-1.220718 1.2449048,-1.672017 1.064077,-1.060384 2.621371,-1.18693 4.023879,-1.409924 0.779625,0.01445 1.258871,-0.529889 1.524629,-1.212972 0.0976,-0.208277 0.173735,-0.428928 0.208717,-0.656207 z"
       inkscape:label="pescoço" />
    <path
       id="path13051"
       style="display:inline;fill:#ff0000;stroke:none;stroke-width:0.264583px;stroke-linecap:butt;stroke-linejoin:miter;stroke-opacity:1"
       d="m -16.547188,78.09637 c 3.150371,3.138872 7.7204628,4.535698 12.0601508,4.490061 0.612922,0.502618 0.718336,1.408754 0.345916,2.085723 -0.270916,0.627218 -0.672558,1.227065 -1.429473,1.206359 -1.357168,0.237566 -2.85634,0.313397 -3.944394,1.268373 -0.5996078,0.4833 -1.0070798,1.160819 -1.3833268,1.809889 -0.312981,-0.289847 -0.548311,-0.868771 -0.832769,-1.266722 -1.499242,-2.472589 -3.076116,-4.925053 -4.168578,-7.612585 -0.215842,-0.660366 -0.431684,-1.320732 -0.647526,-1.981098 z"
       inkscape:label="nariz" />
    <path
       id="path364"
       style="fill:#cb7c30;fill-opacity:1;stroke:none;stroke-width:0.264583px;stroke-linecap:butt;stroke-linejoin:miter;stroke-opacity:1"
       d="m 19.417026,144.40085 c 3.512107,-0.0138 4.302705,2.48223 4.157369,3.97857 l 0.01447,0.20464 c -0.184977,-0.006 -0.374181,-0.0135 -0.549321,-0.015 -5.453258,-0.0456 -6.204868,1.9487 -7.015078,3.78634 -0.0797,0.49095 -0.13216,0.93339 -0.16381,1.33893 -4.63246,-2.48285 -3.56838,-8.63061 3.38739,-9.2909 0.0571,-0.002 0.11323,-0.002 0.16898,-0.003 z"
       inkscape:label="supra-renais" />
    <path
       id="path530"
       style="fill:#8ec100;fill-opacity:1;stroke:none;stroke-width:0.264583px;stroke-linecap:butt;stroke-linejoin:miter;stroke-opacity:1"
       d="m 19.216523,127.67475 c 1.98203,-0.33877 1.477023,2.28862 1.828127,3.4937 0.595605,4.52064 0.717423,9.09373 0.543817,13.64685 -2.593941,-1.00274 -5.713818,-0.0262 -7.562669,1.96749 -1.507962,1.79067 -1.215045,4.76987 0.739976,6.12389 1.623045,0.70948 1.452539,3.05592 -0.548985,2.75286 -3.535619,0.49305 -7.1731052,0.79406 -10.6913062,-0.004 -0.253719,-2.52861 -0.276389,-5.10585 -0.830248,-7.58852 -1.590135,-5.25026 -3.847102,-10.26917 -6.291912,-15.17025 0.592216,1.71223 2.68575305,0.0807 3.93182805,0.19068 5.92057795,-1.24895 11.92492315,-2.38224 17.55870715,-4.65017 0.463867,-0.21077 0.916441,-0.45338 1.322665,-0.76286 z m 1.313611,0.13591 c 0.383921,0.0506 0.07853,0.0103 0,0 z m 1.408182,0.21911 c 0.374658,0.0693 0.0755,0.014 0,0 z m 0.690398,0.13384 c 0.53888,0.10762 1.620234,0.36995 0.482929,0.10387 l -0.241509,-0.0527 z m -0.749825,16.80103 0.03617,0.0212 z m 0.38809,0.25787 0.03204,0.0253 z m 1.224214,1.95338 0.0155,0.0703 z m 0.08113,0.50126 0.0047,0.0486 z m 0.01499,0.22737 0.0021,0.0661 z m 10e-4,0.2403 -10e-4,0.0377 z m 0.56534,0.46198 c 0.395005,0.0198 0.08254,0.004 0,0 z m -7.24142,2.0469 c -0.25272,0.37811 -0.25272,0.37811 0,0 z m -0.21652,0.32866 c -0.221752,0.3888 -0.221796,0.38879 0,0 z m -0.3607,0.6811 c -0.174443,0.37644 -0.03791,0.0818 0,0 z m -0.31058,0.69195 c -0.06629,0.43443 -0.0665,0.43497 0,0 z m -0.0878,0.60926 c -0.01903,0.15058 -0.0139,0.10996 0,0 z"
       inkscape:label="estômago" />
    <path
       id="path794"
       style="display:inline;fill:#fbeb00;fill-opacity:1;stroke:none;stroke-width:0.264583px;stroke-linecap:butt;stroke-linejoin:miter;stroke-opacity:1"
       d="m 19.629413,171.33926 c 0.400427,0.28942 1.858716,0.42395 2.348178,0.42995 -2.736138,8.87812 -6.564378,16.93372 -17.5348482,25.49612 -0.2444,-0.8398 -0.65899,-1.5844 -1.28158,-2.11563 9.3315102,-7.60612 13.3669002,-15.32828 16.4682502,-23.81044 z"
       sodipodi:nodetypes="ccccc"
       inkscape:label="ureter" />
    <path
       id="path787"
       style="fill:#fbeb00;fill-opacity:1;stroke:none;stroke-width:0.264583px;stroke-linecap:butt;stroke-linejoin:miter;stroke-opacity:1"
       d="m 23.039541,148.56907 c 0.564131,0.005 1.178431,0.0314 1.848466,0.0822 3.642364,1.55111 5.120876,3.87004 6.052344,6.38307 1.850749,6.7207 0.755214,10.51636 -0.79375,13.09688 -1.802256,1.70674 -2.917056,3.78234 -8.16901,3.63802 -0.489462,-0.006 -1.947751,-0.14053 -2.348178,-0.42994 -3.25656,-2.54662 -1.95701,-4.13412 -2.24896,-6.41615 l 0.0992,-5.42395 c -0.70062,-1.99805 -2.19539,-2.58429 -1.45521,-7.14375 0.81021,-1.83764 1.56181,-3.83197 7.015078,-3.78634 z"
       sodipodi:nodetypes="sccccccccs"
       inkscape:label="rim" />
    <path
       id="path10549"
       style="fill:#609400;fill-opacity:1;stroke:none;stroke-width:0.065;stroke-linecap:butt;stroke-linejoin:miter;stroke-dasharray:none;stroke-opacity:1"
       d="m 16.747933,157.99279 c 0.0915,0.16463 0.18342,0.32829 0.27337,0.49558 -0.0901,-0.16746 -0.18234,-0.33075 -0.27388,-0.49558 z m 0.27337,0.49558 c 0.0547,0.10177 0.10839,0.20556 0.16071,0.3116 -0.0524,-0.1061 -0.10594,-0.20976 -0.16071,-0.3116 z m 0.17828,0.34726 c 0.0175,0.036 0.035,0.0723 0.0522,0.10904 -0.0171,-0.0367 -0.0347,-0.0731 -0.0522,-0.10904 z m 0.10801,0.23048 c 0.0111,0.0251 0.0217,0.051 0.0326,0.0765 -0.0109,-0.0255 -0.0214,-0.0514 -0.0326,-0.0765 z m 0.0646,0.15348 c 0.0299,0.0727 0.0591,0.14624 0.0868,0.22272 -0.0277,-0.0764 -0.057,-0.15012 -0.0868,-0.22272 z m 0.0868,0.22272 c 0.007,0.0189 0.014,0.0377 0.0207,0.0568 l -0.0904,4.93251 c -3.85156,1.36531 -8.8517002,1.66962 -13.3723102,0.80357 -0.009,-0.35377 -0.0193,-0.70833 -0.0305,-1.06453 -0.0308,-0.9767 -0.0693,-1.96252 -0.11627,-2.95796 -0.0234,-0.49473 -0.0489,-0.99226 -0.0765,-1.4919 4.57748,0.64668 9.1376802,0.71748 13.6653202,-0.27854 z"
       inkscape:label="duodeno" />
    <path
       id="path604"
       style="fill:#6eaa01;fill-opacity:1;stroke:none;stroke-width:0.1;stroke-linecap:butt;stroke-linejoin:miter;stroke-dasharray:none;stroke-opacity:1"
       d="m 15.860613,155.35574 c 0.19192,1.96788 1.08886,2.68326 1.59835,4.08657 -4.52951,0.99643 -9.0916202,0.92544 -13.6710002,0.27802 -0.0668,-1.37161 -0.16794,-2.80267 -0.26249,-4.06435 3.99674,0.87707 8.1446202,0.46992 12.3351702,-0.30024 z"
       sodipodi:nodetypes="cccccc"
       inkscape:label="pâncreas" />
    <path
       id="path550"
       style="fill:#a85c24;fill-opacity:1;stroke:none;stroke-width:0.1;stroke-linecap:butt;stroke-linejoin:miter;stroke-dasharray:none;stroke-opacity:1"
       d="m 4.0169358,165.23524 c 4.52059,0.86605 9.5207502,0.56174 13.3723102,-0.80357 l -0.009,0.49144 c 0.29195,2.28203 -1.0076,3.86953 2.24896,6.41615 -0.77358,2.11574 -1.60565,4.18397 -2.56315,6.21513 -4.22952,0.27408 -8.7532502,0.1244 -13.1542402,-0.59738 0.14437,-3.28768 0.18445,-6.86565 0.1426,-9.88312 -0.008,-0.70936 -0.10584,-4.47769 -0.0377,-1.83865 z m 27.6670402,-1.19321 c -0.004,0.0237 -0.008,0.0483 -0.0124,0.0718 3.49577,0.28184 6.62101,0.29732 9.49813,0.0987 l 0.0413,0.21756 c 2.5022,2.62127 1.38439,6.58348 0.65836,10.4004 -1.67951,8.43824 -1.73809,17.41321 -2.22209,26.32966 0.34116,3.49637 0.16395,6.77017 -3.83387,10.13685 -2.13288,0.75236 -4.32555,0.72988 -6.58255,-0.13126 -2.577381,-1.70734 -3.313835,-4.15153 -3.423043,-6.84609 0.168561,-1.54625 0.607987,-4.7091 1.699633,-8.51783 1.65579,-5.77693 1.997,-13.59367 2.21692,-18.73322 -0.45554,-0.58257 -1.2136,-1.45074 -2.60345,-1.08417 -2.135268,0.56311 -4.529323,1.00904 -7.077609,1.30276 0.730662,-1.81116 1.357374,-3.64619 1.934249,-5.51801 5.25192,0.14432 6.36676,-1.93128 8.16901,-3.63802 0.65922,-1.09824 1.23503,-2.41841 1.53737,-4.08916 z"
       sodipodi:nodetypes="cccccccccccccccccsccccccsc"
       inkscape:label="cólon ascendente" />
    <ellipse
       style="fill:#75400b;fill-opacity:1;fill-rule:evenodd;stroke-width:0.264583"
       id="path1163"
       cx="-32.557568"
       cy="203.8605"
       rx="3.5839598"
       ry="3.5374146"
       inkscape:label="apêndice"
       transform="scale(-1,1)" />
    <path
       id="path4967"
       style="fill:#d97a28;fill-opacity:1;stroke:none;stroke-width:0.264583px;stroke-linecap:butt;stroke-linejoin:miter;stroke-opacity:1"
       d="m 27.838215,175.89867 c 0.94616,0.035 1.516065,0.69662 1.886189,1.16996 -0.219915,5.13952 -0.561136,12.95632 -2.216918,18.73322 -1.091648,3.80873 -1.53108,6.97158 -1.699638,8.51783 0.106512,2.62802 0.810656,5.01755 3.236495,6.71793 -11.69404,1.24492 -21.0109302,-0.96712 -29.03802015,-4.66793 0.0387,-0.20304 0.078,-0.40975 0.11679,-0.61288 l 0.22479,0.0114 c 2.88743995,-0.22494 3.48882995,-2.01591 3.93412995,-3.4923 0.47883,-1.44764 0.62904,-3.40122 0.16071,-5.01054 8.6574902,-6.75714 12.8656902,-13.19891 15.6005992,-19.97811 2.548277,-0.29372 4.942347,-0.73968 7.077604,-1.30276 0.260596,-0.0687 0.498924,-0.0939 0.717269,-0.0858 z m -23.9210222,1.05937 c 4.39935,0.72104 8.9212202,0.87032 13.1490702,0.59635 -2.88096,6.1114 -6.90069,11.88532 -13.9035402,17.59375 -0.29202,-0.24916 -0.63,-0.45103 -1.01855,-0.59324 0.763865,-6.25367 1.531368,-12.11586 1.77296,-17.59686 z"
       inkscape:label="intestino delgado"
       sodipodi:nodetypes="scsccccccccssssccccs" />
    <path
       id="path11257"
       style="fill:#336793;fill-opacity:1;stroke:none;stroke-width:0.264583px;stroke-linecap:butt;stroke-linejoin:miter;stroke-opacity:1"
       d="m 49.044676,163.05501 c -0.613265,3.85191 -1.263467,7.47905 -1.70171,10.90063 -1.83395,0.59356 -3.51941,1.11214 -5.48545,0.93741 0.004,-0.0208 0.008,-0.0417 0.0119,-0.0625 0.72603,-3.81692 1.84383,-7.77913 -0.65836,-10.4004 l -0.0413,-0.21756 c 2.742486,-0.25374 5.546735,-0.63535 7.87492,-1.15758 z"
       inkscape:label="cotovelo"
       sodipodi:nodetypes="ccccccc" />
    <path
       id="path19939"
       style="fill:#667bb5;fill-opacity:1;stroke:none;stroke-width:0.264583px;stroke-linecap:butt;stroke-linejoin:miter;stroke-opacity:1"
       d="m 45.878978,188.60074 c -0.298973,3.59396 -1.345635,20.75141 -1.199927,18.6216 -2.376017,0.8608 -4.625816,1.61409 -7.032129,2.22932 2.210729,-2.72997 2.278972,-5.43644 2.000395,-8.29148 0.482801,-8.89445 0.542784,-17.84707 2.210201,-26.26713 1.966043,0.17473 3.651501,-0.34385 5.485453,-0.93741 -0.618491,5.09867 -1.097686,9.928 -1.463993,14.6451 z"
       inkscape:label="quadril"
       sodipodi:nodetypes="ccccccc" />
    <path
       id="path17314"
       style="fill:#ffaa96;fill-opacity:1;stroke:none;stroke-width:0.264583px;stroke-linecap:butt;stroke-linejoin:miter;stroke-opacity:1"
       d="m -0.84582715,211.01281 c 11.50406115,5.17494 24.66305315,6.70717 37.00188015,3.9734 0.158234,3.31604 1.780247,6.9562 5.151583,8.05243 1.461707,0.0202 1.777078,0.68262 1.402206,1.95245 -0.06385,1.86993 -1.299758,3.42575 -2.088428,5.05466 -3.965235,7.05505 -10.981007,12.69401 -19.152836,13.73517 -7.418472,1.08275 -15.1939062,-2.03021 -19.9401002,-7.80743 -1.80369295,-2.12955 -3.231619,-4.56494 -4.292555,-7.14284 1.210792,0.0482 0.0577,-2.68629 0.438261,-3.72268 0.04129,-4.73297 0.660651,-9.44033 1.47998905,-14.09516 z"
       inkscape:label="glúteos"
       sodipodi:nodetypes="ccccssssssssssssssssssssssssssssssscssscssscscsscsccsscscsscsccccccsscssscscccccscsssscssscscssssssssssssssssssccssscscscccscsssscsscc" />
    <path
       id="path17295"
       style="display:inline;fill:#a4a1ce;fill-opacity:1;stroke:none;stroke-width:0.065;stroke-linecap:butt;stroke-linejoin:miter;stroke-dasharray:none;stroke-opacity:1"
       d="m 42.892076,223.42497 c -3.491053,-0.5057 -6.312555,-2.98138 -6.736023,-8.43876 2.910702,-0.63741 5.579709,-1.46173 7.954037,-2.38332 -0.0049,-0.0338 -1.025102,9.11805 -1.218014,10.82208 z"
       inkscape:label="joelho"
       sodipodi:nodetypes="cccc" />
    <path
       id="path13994"
       style="fill:#fe9177;fill-opacity:1;stroke:none;stroke-width:0.065;stroke-linecap:butt;stroke-linejoin:miter;stroke-dasharray:none;stroke-opacity:1"
       d="m 44.678939,207.22234 c -0.112199,1.76269 -0.365374,3.58316 -0.568958,5.38055 -10.631914,4.12676 -27.157178,6.31501 -44.95580815,-1.59008 0.0799,-0.45878 0.15849,-0.91694 0.24185,-1.3777 0.12946,-0.71546 0.26254,-1.43371 0.39843,-2.15542 0.0662,-0.35153 0.13633,-0.7133 0.2036,-1.0666 1.49867995,0.67083 2.98799995,1.26776 4.46897995,1.79524 3.66877,1.33484 7.6131902,2.32794 11.9186502,2.8236 0.0748,0.009 0.14954,0.0172 0.22428,0.0258 0.0972,0.0108 0.19391,0.0223 0.29145,0.0326 4.110162,0.45149 8.159394,0.41037 12.157916,-0.0424 0.05662,0.0395 0.113062,0.0791 0.171566,0.11782 2.256992,0.86114 4.449667,0.88362 6.582543,0.13126 0.733305,-0.61754 1.336888,-1.23213 1.83348,-1.84537 2.406317,-0.61523 4.655998,-1.36852 7.032021,-2.22932 z"
       sodipodi:nodetypes="cccsscccccccccc"
       inkscape:label="nervo ciático" />
    <path
       id="path1150-0"
       style="fill:#ff9003;fill-opacity:1;stroke:none;stroke-width:0.264583px;stroke-linecap:butt;stroke-linejoin:miter;stroke-opacity:1"
       d="m 20.512053,127.80807 c 7.6261,0.97485 13.86421,5.26433 22.77019,4.3403 -0.58879,2.88433 -0.95122,5.69234 -1.01803,8.3876 1.00656,5.64784 5.4026,5.48011 8.42533,5.59501 0,0 0.41073,0.27912 0.96118,0.61702 0.29774,0.28819 0.63383,0.47924 1.00459,0.58084 0.11279,0.0606 0.22567,0.12056 0.33693,0.17622 -0.0849,0.27263 -0.16924,0.54544 -0.25218,0.81855 -0.0945,0.31121 -0.1876,0.62302 -0.27957,0.93483 -0.092,0.3118 -0.18287,0.62347 -0.27233,0.93586 -0.0895,0.31239 -0.17758,0.62548 -0.26459,0.93844 -0.087,0.31296 -0.17275,0.62596 -0.25735,0.93948 -0.0846,0.31352 -0.16789,0.62749 -0.25011,0.94154 -0.0822,0.31406 -0.1635,0.628 -0.2434,0.94258 -0.0799,0.31459 -0.15855,0.62955 -0.23616,0.94465 -0.0776,0.31509 -0.15407,0.6306 -0.22944,0.94619 -0.15074,0.63119 -0.29721,1.26344 -0.43925,1.89653 -0.14204,0.63309 -0.27973,1.26682 -0.41341,1.90169 -0.13369,0.63487 -0.26344,1.27084 -0.38913,1.90738 -0.0967,0.48996 -0.18894,0.98086 -0.28111,1.47174 -5.00896,1.15209 -10.519,1.65318 -17.51263,1.08934 0.42352,-2.26438 0.34302,-5.17861 -0.73122,-9.07955 -0.93147,-2.513 -2.40999,-4.83196 -6.05235,-6.38307 -0.46201,-0.035 -0.8883,-0.0544 -1.29914,-0.0672 l -0.0145,-0.20464 c 0.10857,-1.11785 -0.30537,-2.79365 -1.98593,-3.56412 0.21477,-5.66905 -0.0209,-11.33822 -1.07642,-17.00723 z"
       sodipodi:nodetypes="sccccccsssssssssssscccccccss"
       inkscape:label="fígado " />
    <path
       id="path5828"
       style="fill:#a05227;fill-opacity:1;fill-rule:evenodd;stroke-width:0.264583"
       d="m 35.76839,154.9344 c 0,2.67647 2.35018,4.38541 5.37107,4.38541 3.0209,0 5.71355,-1.52822 5.83185,-4.38541 0.16729,-4.04054 -2.47726,-5.46814 -6.09514,-5.17529 -3.01105,0.24373 -5.10778,2.49883 -5.10778,5.17529 z"
       sodipodi:nodetypes="sssss"
       inkscape:label="baço" />
    <path
       id="path1797"
       style="display:inline;fill:#fbeb00;fill-opacity:1;stroke:none;stroke-width:0.264583px;stroke-linecap:butt;stroke-linejoin:miter;stroke-opacity:1"
       d="m -2.84021,203.53283 0.8077,-8.56486 c 10e-4,-0.006 0.003,-0.0132 0.004,-0.0196 1.02873,-0.55467 2.43854,-0.75843 4.30258,-0.39688 2.80647,1.02508 2.98606,5.16392 2.13992,7.72201 -0.4453,1.47639 -1.04669,3.26735 -3.93412,3.49229 l -0.2248,-0.0114 c -1.26467,-0.28052 -2.32222,-1.12053 -3.09541,-2.22157 z"
       inkscape:label="bexiga" />
    <path
       style="fill:#e97e72;fill-opacity:1;stroke:none;stroke-width:0.1;stroke-linecap:butt;stroke-linejoin:miter;stroke-dasharray:none;stroke-opacity:1"
       d="m 22.076703,118.91355 c 0.0372,-4.21639 1.84417,-7.85882 10.98461,-9.12281 5.96456,-0.0371 12.10779,-0.79298 15.73219,7.44719 0.90512,4.05993 0.79746,8.77613 -3.07197,11.35696 -7.10662,2.101 -14.12409,-0.0116 -20.29359,-2.42033 -2.78329,-1.92047 -2.97054,-4.61976 -3.35124,-7.26101 z"
       id="path385"
       sodipodi:nodetypes="cccccc"
       inkscape:label="coração" />
    <path
       style="display:inline;opacity:0.375486;fill:none;fill-rule:evenodd;stroke:#000000;stroke-width:0.264583;stroke-dasharray:none;paint-order:stroke fill markers;stop-color:#000000"
       d="m 42.704373,226.24615 c -10.95029,25.66342 -42.21205,23.36061 -47.47584,-3.6305 l 2.60652,-27.64769 c 1.99312,-9.56514 5.18812,-36.46117 -5.11994,-57.06408 -4.3096,-6.58479 -5.51865,-13.3825 -5.21303,-19.54887 0.0956,-9.1719 2.63221,-17.7749 0.46545,-24.668808 -5.02851,-7.696696 -5.99316,-13.445096 -5.67849,-21.783026 1.98027,-9.49237 8.06944,-16.57813 17.59399,-15.08055 5.24756,0.82536 7.11996,5.88357 8.16463,12.88964 1.74993,6.64041 1.12518,14.2456 0.98076,20.622706 1.14571,1.11072 1.08181,0.94033 2.16656,0.10608 0.14414,-4.037236 -0.19077,-8.074466 -0.7899,-12.111706 -0.50443,-5.00352 -4.17325,-14.58103 -2.17221,-17.97007 4.53005,-8.4079 13.04308,-5.09142 14.81052,0.59241 0.40474,4.95434 -0.3873,10.29034 -1.1194,15.7116 -0.52201,3.86559 -1.03672,7.14073 -0.65786,10.09159 0.54025,0.402016 1.15214,0.553296 2.04056,-0.26329 -0.63629,-6.72888 -0.7769,-13.10201 0.52659,-18.69415 4.53143,-7.44608 10.02839,-3.1791 11.84841,0.52659 1.83908,5.35372 -1.91618,16.5 -3.15958,24.749996 0.55761,1.14066 1.19992,1.56139 2.10639,-0.26329 -0.79543,-5.2191 1.1799,-15.221436 2.36968,-15.797866 1.60156,-2.62702 8.47037,-3.94991 10.00532,2.1722 0.64445,7.807276 -1.52716,13.924926 -3.42288,20.208106 -0.80084,2.081628 0.75802,4.315218 1.84309,1.316488 0.38197,-5.729608 1.24599,-13.429898 3.15957,-14.218074 3.28969,-1.37866 6.09991,-0.63392 8.16224,3.422866 0.18131,2.75788 0.56047,5.28495 -0.2633,9.21543 -0.89425,3.185658 -1.45238,6.089818 -0.2633,8.952118 4.49065,13.15334 -0.47201,29.90305 -2.89627,38.37566 -6.38273,19.83768 -7.33061,40.9779 -8.54783,61.50733 z"
       id="path4964"
       inkscape:label="contorno"
       sodipodi:nodetypes="ccccccccccccccsccccccccccccccccc" />
  </g>
</svg>
