<?xml version="1.0" encoding="UTF-8" standalone="no"?>
<!-- Created with Inkscape (http://www.inkscape.org/) -->

<svg width="335.89838" height="346.90463" viewBox="0 0 88.873109 91.785183" version="1.1" id="svg133"
  xml:space="preserve" xmlns="http://www.w3.org/2000/svg" xmlns:svg="http://www.w3.org/2000/svg"
  xmlns:rdf="http://www.w3.org/1999/02/22-rdf-syntax-ns#" xmlns:cc="http://creativecommons.org/ns#"
  xmlns:dc="http://purl.org/dc/elements/1.1/">
  <defs id="defs8" />
  <title id="title256">main</title>
  <!-- <defsid />=&quot;defs130&quot; /&gt; -->
  <path
    style="fill:none;fill-rule:evenodd;stroke:#000000;stroke-width:0.264583;stroke-dasharray:none;paint-order:stroke fill markers;stop-color:#000000"
    d="m 7.558408,82.938556 c 5.303247,12.42946 20.443368,11.31415 22.992632,-1.75834 l -1.262343,-13.39049 c -0.965271,-4.63264 -2.512616,-17.65908 2.479597,-27.6376 2.087147,-3.18918 2.672692,-6.48149 2.52468,-9.468018 -0.0463,-4.442187 -1.274784,-8.608841 -0.225419,-11.947739 2.435312,-3.72771 2.902494,-6.511807 2.750099,-10.550081 -0.959044,-4.597399 -3.90804,-8.029215 -8.520797,-7.303898 -2.541403,0.399743 -3.44821,2.849564 -3.954146,6.242784 -0.847494,3.216121 -0.544926,6.89951 -0.474984,9.988108 -0.554869,0.53795 -0.523922,0.455426 -1.049269,0.05138 -0.06981,-1.95534 0.09239,-3.910674 0.38255,-5.866013 0.244297,-2.423333 2.021113,-7.061967 1.052006,-8.703367 -2.193912,-4.072162 -6.316782,-2.465905 -7.172758,0.28692 -0.196016,2.399514 0.18757,4.983876 0.542126,7.609531 0.252814,1.872205 0.502085,3.458439 0.318605,4.887617 -0.261643,0.194708 -0.557982,0.267977 -0.988246,-0.127518 0.308153,-3.25897 0.376253,-6.34564 -0.255031,-9.054058 -2.194578,-3.606327 -4.856769,-1.539719 -5.738204,0.255041 -0.890671,2.592945 0.928006,7.991375 1.530188,11.987062 -0.27005,0.552451 -0.581121,0.756221 -1.020126,-0.127519 0.385228,-2.527744 -0.57143,-7.372134 -1.147641,-7.651314 C 9.546286,9.388711 6.219709,8.748001 5.476332,11.713096 5.164223,15.494363 6.215937,18.457298 7.134036,21.500403 7.521884,22.50859 6.766925,23.590375 6.241427,22.138013 6.056435,19.363016 5.637992,15.633568 4.711239,15.251832 3.118035,14.584111 1.757044,14.944808 0.758253,16.909616 c -0.08781,1.335712 -0.271435,2.559637 0.127516,4.463269 0.433085,1.542897 0.703391,2.949457 0.127517,4.335742 -2.1748296,6.370501 0.228595,14.482809 1.402671,18.586319 3.091168,9.6079 3.550225,19.84665 4.139728,29.78958 z"
    id="path311" />
  <path
    style="fill:none;fill-rule:evenodd;stroke:#000000;stroke-width:0.264583;stroke-dasharray:none;paint-order:stroke fill markers;stop-color:#000000"
    d="m 81.314701,82.938556 c -5.303246,12.42946 -20.443392,11.31415 -22.99266,-1.75834 l 1.262347,-13.39049 c 0.965272,-4.63264 2.512621,-17.65908 -2.479606,-27.6376 -2.087152,-3.18918 -2.672697,-6.48149 -2.524685,-9.468018 0.0463,-4.442187 1.274789,-8.608841 0.225419,-11.947739 -2.435317,-3.72771 -2.902499,-6.511807 -2.750104,-10.550081 0.959049,-4.597399 3.90805,-8.029215 8.520817,-7.303898 2.541408,0.399743 3.448219,2.849564 3.954155,6.242784 0.847494,3.216121 0.544927,6.89951 0.474984,9.988108 0.554868,0.53795 0.523921,0.455426 1.049272,0.05138 0.06981,-1.95534 -0.09239,-3.910674 -0.38255,-5.866013 -0.2443,-2.423333 -2.021121,-7.061967 -1.052008,-8.703367 2.193915,-4.072162 6.316796,-2.465905 7.17277,0.28692 0.196016,2.399514 -0.18757,4.983876 -0.542127,7.609531 -0.252811,1.872205 -0.502086,3.458439 -0.318603,4.887617 0.261644,0.194708 0.557983,0.267977 0.988247,-0.127518 -0.308157,-3.25897 -0.376254,-6.34564 0.255028,-9.054058 2.19458,-3.606327 4.856768,-1.539719 5.738207,0.255041 0.89067,2.592945 -0.928009,7.991375 -1.53019,11.987062 0.270051,0.552451 0.581123,0.756221 1.020128,-0.127519 -0.385228,-2.527744 0.571428,-7.372134 1.147641,-7.651314 0.775638,-1.272333 4.102215,-1.913043 4.845595,1.052052 0.312108,3.781267 -0.739607,6.744202 -1.657708,9.787307 -0.387848,1.008187 0.367111,2.089972 0.892612,0.63761 0.184989,-2.774997 0.603436,-6.504445 1.530186,-6.886181 1.593203,-0.667721 2.954198,-0.307024 3.952984,1.657784 0.0878,1.335712 0.27144,2.559637 -0.12751,4.463269 -0.43309,1.542897 -0.703393,2.949457 -0.12752,4.335742 2.174827,6.370501 -0.228595,14.482809 -1.402668,18.586319 -3.091168,9.6079 -3.550228,19.84665 -4.13973,29.78958 z"
    id="path1017" />
  <metadataid />=&quot;metadata254&quot;&gt;

  <metadata id="metadata291">
    <rdf:RDF>
      <cc:Work rdf:about="">
        <dc:title>main</dc:title>
        <dc:creator>
          <cc:Agent>
            <dc:title>Cleyton Ferreira</dc:title>
          </cc:Agent>
        </dc:creator>
        <dc:subject>
          <rdf:Bag>
            <rdf:li>viewport</rdf:li>
            <rdf:li>prototype</rdf:li>
            <rdf:li>phone</rdf:li>
            <rdf:li>mobile</rdf:li>
          </rdf:Bag>
        </dc:subject>
        <dc:description>Viewport size of a Motorola G20 smartphone for prototyping websites and mobile apps
        </dc:description>
      </cc:Work>
    </rdf:RDF>
  </metadata>
</svg>